SplineFontDB: 3.0
FontName: Signika-Semibold
FullName: Signika Semibold
FamilyName: Signika
Weight: Semibold
Copyright: Copyright (c) 2011 by Anna Giedrys (http://ancymonic.com), with Reserved Font Names "Signika".
Version: 001.001
ItalicAngle: 0
UnderlinePosition: -100
UnderlineWidth: 50
Ascent: 800
Descent: 200
sfntRevision: 0x00010042
LayerCount: 2
Layer: 0 1 "Back"  1
Layer: 1 1 "Fore"  0
NeedsXUIDChange: 1
XUID: [1021 288 713564382 12996328]
FSType: 0
OS2Version: 2
OS2_WeightWidthSlopeOnly: 0
OS2_UseTypoMetrics: 1
CreationTime: 1321815031
ModificationTime: 1321846534
PfmFamily: 17
TTFWeight: 600
TTFWidth: 5
LineGap: 0
VLineGap: 0
Panose: 2 1 0 3 2 6 0 0 0 4
OS2TypoAscent: 140
OS2TypoAOffset: 1
OS2TypoDescent: -92
OS2TypoDOffset: 1
OS2TypoLinegap: 0
OS2WinAscent: 18
OS2WinAOffset: 1
OS2WinDescent: 14
OS2WinDOffset: 1
HheadAscent: 18
HheadAOffset: 1
HheadDescent: -14
HheadDOffset: 1
OS2SubXSize: 700
OS2SubYSize: 650
OS2SubXOff: 0
OS2SubYOff: 140
OS2SupXSize: 700
OS2SupYSize: 650
OS2SupXOff: 0
OS2SupYOff: 477
OS2StrikeYSize: 50
OS2StrikeYPos: 250
OS2CodePages: 00000093.00000000
OS2UnicodeRanges: a00000ef.40000043.00000000.00000000
Lookup: 1 0 0 "'aalt' Access All Alternates lookup 0"  {"'aalt' Access All Alternates lookup 0 subtable"  } ['aalt' ('    ' <'dflt' > 'latn' <'dflt' > ) ]
Lookup: 3 0 0 "'aalt' Access All Alternates lookup 1"  {"'aalt' Access All Alternates lookup 1 subtable"  } ['aalt' ('    ' <'dflt' > 'latn' <'dflt' > ) ]
Lookup: 1 0 0 "'smcp' Lowercase to Small Capitals lookup 2"  {"'smcp' Lowercase to Small Capitals lookup 2 subtable"  } ['smcp' ('    ' <'dflt' > 'latn' <'dflt' > ) ]
Lookup: 1 0 0 "'c2sc' Capitals to Small Capitals lookup 3"  {"'c2sc' Capitals to Small Capitals lookup 3 subtable"  } ['c2sc' ('    ' <'dflt' > 'latn' <'dflt' > ) ]
Lookup: 4 0 0 "'frac' Diagonal Fractions lookup 4"  {"'frac' Diagonal Fractions lookup 4 subtable"  } ['frac' ('    ' <'dflt' > 'latn' <'dflt' > ) ]

StartChar: a
Encoding: 97 97 5
Width: 510
Flags: HMW
HStem: -14 99<203 218.5> 219 86<217 242.5 178.5 253> 405 103<241 265.5>
VStem: 36 129<127.5 167 127.5 194.5> 315 130<129 134 134 216 216 216 302 329 329 339>
LayerCount: 2
Fore
SplineSet
473 60 m 1,0,1
 468 42 468 42 455 22 c 128,-1,2
 442 2 442 2 429 -8 c 1,3,4
 364 -1 364 -1 334 49 c 1,5,6
 269 -14 269 -14 192 -14 c 0,7,8
 115 -14 115 -14 75.5 31.5 c 128,-1,9
 36 77 36 77 36 136 c 0,10,11
 36 219 36 219 91.5 262 c 128,-1,12
 147 305 147 305 231 305 c 0,13,14
 285 305 285 305 315 302 c 1,15,-1
 315 329 l 2,16,17
 315 405 315 405 241 405 c 0,18,19
 190 405 190 405 89 370 c 1,20,21
 61 401 61 401 55 463 c 1,22,23
 162 508 162 508 274 508 c 0,24,25
 349 508 349 508 397 466 c 128,-1,26
 445 424 445 424 445 339 c 2,27,-1
 445 134 l 2,28,29
 445 81 445 81 473 60 c 1,0,1
221 85 m 0,30,31
 271 85 271 85 315 129 c 1,32,-1
 315 216 l 1,33,34
 277 219 277 219 241 219 c 0,35,36
 205 219 205 219 185 199 c 128,-1,37
 165 179 165 179 165 148.5 c 0,38,39
 165 118 165 118 180 101.5 c 128,-1,40
 195 85 195 85 221 85 c 0,30,31
EndSplineSet
Substitution2: "'ordn' Ordinals lookup 6 subtable" ordfeminine
Substitution2: "'smcp' Lowercase to Small Capitals lookup 2 subtable" a.smcp
AlternateSubs2: "'aalt' Access All Alternates lookup 1 subtable" a.smcp ordfeminine
EndChar

StartChar: b
Encoding: 98 98 6
Width: 531
Flags: HMW
HStem: -8 95<247.5 291.5 247.5 327> 399 107<294.5 307.5>
VStem: 69 127<95 355 464 655> 361 134<255 304.5>
LayerCount: 2
Fore
SplineSet
449.5 437 m 128,-1,1
 495 368 495 368 495.5 249.5 c 128,-1,2
 496 131 496 131 430 61.5 c 128,-1,3
 364 -8 364 -8 259 -8 c 128,-1,4
 154 -8 154 -8 69 25 c 1,5,-1
 69 729 l 1,6,-1
 75 736 l 1,7,-1
 124 736 l 2,8,9
 163 736 163 736 179.5 717.5 c 128,-1,10
 196 699 196 699 196 655 c 2,11,-1
 196 464 l 1,12,13
 252 506 252 506 320 506 c 0,14,0
 404 506 404 506 449.5 437 c 128,-1,1
284 399 m 1,15,16
 235 401 235 401 196 355 c 1,17,-1
 196 95 l 1,18,19
 228 87 228 87 259 87 c 0,20,21
 308 87 308 87 334.5 130 c 128,-1,22
 361 173 361 173 361 253 c 0,23,24
 361 399 361 399 284 399 c 1,15,16
EndSplineSet
Substitution2: "'smcp' Lowercase to Small Capitals lookup 2 subtable" b.smcp
Substitution2: "'aalt' Access All Alternates lookup 0 subtable" b.smcp
EndChar

StartChar: c
Encoding: 99 99 7
Width: 473
Flags: HMW
HStem: -14 104<238 286> 412 98<223.5 282>
VStem: 37 134<189.5 302.5 189.5 341> 324 118
LayerCount: 2
Fore
SplineSet
324 290 m 1,0,1
 325 350 325 350 309.5 381 c 128,-1,2
 294 412 294 412 251 412 c 0,3,4
 171 412 171 412 171 246 c 0,5,6
 171 163 171 163 195.5 126.5 c 128,-1,7
 220 90 220 90 271.5 90 c 0,8,9
 323 90 323 90 386 136 c 1,10,11
 402 126 402 126 417.5 103.5 c 128,-1,12
 433 81 433 81 437 61 c 1,13,14
 403 27 403 27 353 6.5 c 128,-1,15
 303 -14 303 -14 250 -14 c 0,16,17
 146 -14 146 -14 91.5 57.5 c 128,-1,18
 37 129 37 129 37 254 c 0,19,20
 37 379 37 379 100.5 444.5 c 128,-1,21
 164 510 164 510 251.5 510 c 0,22,23
 339 510 339 510 390.5 464 c 128,-1,24
 442 418 442 418 442 352 c 0,25,26
 442 320 442 320 425 302.5 c 128,-1,27
 408 285 408 285 376 285 c 0,28,29
 344 285 344 285 324 290 c 1,0,1
EndSplineSet
Substitution2: "'smcp' Lowercase to Small Capitals lookup 2 subtable" c.smcp
Substitution2: "'aalt' Access All Alternates lookup 0 subtable" c.smcp
EndChar

StartChar: d
Encoding: 100 100 8
Width: 534
Flags: HMW
HStem: -14 107<225.5 242.5> 406 100<229 253 182.5 268>
VStem: 38 133<189 295 189 329.5> 336 128<143 377 377 377 479 655>
LayerCount: 2
Fore
SplineSet
83 55.5 m 128,-1,1
 38 125 38 125 38 246 c 128,-1,2
 38 367 38 367 95 436.5 c 128,-1,3
 152 506 152 506 234 506 c 0,4,5
 282 506 282 506 336 479 c 1,6,-1
 336 729 l 1,7,-1
 343 736 l 1,8,-1
 393 736 l 2,9,10
 432 736 432 736 448 717.5 c 128,-1,11
 464 699 464 699 464 655 c 2,12,-1
 464 143 l 2,13,14
 464 82 464 82 492 60 c 1,15,16
 488 42 488 42 475.5 22 c 128,-1,17
 463 2 463 2 449 -8 c 1,18,19
 384 -2 384 -2 355 51 c 1,20,21
 297 -14 297 -14 212.5 -14 c 128,-1,0
 128 -14 128 -14 83 55.5 c 128,-1,1
246 93 m 0,22,23
 298 93 298 93 336 143 c 1,24,-1
 336 377 l 1,25,26
 290 406 290 406 253 406 c 128,-1,27
 216 406 216 406 193.5 363.5 c 128,-1,28
 171 321 171 321 171 244 c 128,-1,29
 171 167 171 167 192 130 c 128,-1,30
 213 93 213 93 246 93 c 0,22,23
EndSplineSet
Substitution2: "'smcp' Lowercase to Small Capitals lookup 2 subtable" d.smcp
Substitution2: "'aalt' Access All Alternates lookup 0 subtable" d.smcp
EndChar

StartChar: e
Encoding: 101 101 9
Width: 498
Flags: HMW
HStem: -14 102<234 287> 206 92<170 335 169 446 170 170> 416 94<226 282.5>
VStem: 37 132<298 298 298 321> 335 122<298 310 310 339>
LayerCount: 2
Fore
SplineSet
446 206 m 1,0,-1
 170 206 l 1,1,2
 173 150 173 150 196 119 c 128,-1,3
 219 88 219 88 275.5 88 c 128,-1,4
 332 88 332 88 407 122 c 1,5,6
 436 93 436 93 444 43 c 1,7,8
 365 -14 365 -14 252 -14 c 0,9,10
 115.102941176 -14 115.102941176 -14 64.5 97 c 0,11,12
 37 157.322580645 37 157.322580645 37 246 c 0,13,14
 37 365 37 365 91.5 437.5 c 128,-1,15
 146 510 146 510 247.5 510 c 128,-1,16
 349 510 349 510 403 450.5 c 128,-1,17
 457 391 457 391 457 298 c 0,18,19
 457 249 457 249 446 206 c 1,0,-1
253 416 m 0,20,21
 175 416 175 416 169 298 c 1,22,-1
 335 298 l 1,23,-1
 335 310 l 2,24,25
 335 357 335 357 315 386.5 c 128,-1,26
 295 416 295 416 253 416 c 0,20,21
EndSplineSet
Substitution2: "'smcp' Lowercase to Small Capitals lookup 2 subtable" e.smcp
Substitution2: "'aalt' Access All Alternates lookup 0 subtable" e.smcp
EndChar

StartChar: f
Encoding: 102 102 10
Width: 346
Flags: HMW
HStem: 404 93<8 94> 641 99<255 274 196.5 291>
VStem: 94 128<0 404 404 404>
LayerCount: 2
Fore
SplineSet
94 0 m 1,0,-1
 94 404 l 1,1,-1
 8 403 l 1,2,3
 3 428 3 428 3 450 c 0,4,5
 3 472 3 472 8 497 c 1,6,-1
 88 496 l 1,7,8
 82 548 82 548 82 574 c 0,9,10
 82 646 82 646 127.5 693 c 128,-1,11
 173 740 173 740 244.5 740 c 0,12,13
 316 740 316 740 388 714 c 1,14,15
 388 658 388 658 359 627 c 1,16,17
 305 641 305 641 277 641 c 0,18,19
 207 641 207 641 207 565 c 0,20,21
 207 531 207 531 213 495 c 1,22,-1
 349 497 l 1,23,24
 354 472 354 472 354 450 c 0,25,26
 354 428 354 428 349 403 c 1,27,-1
 222 405 l 1,28,-1
 222 0 l 1,29,30
 189 -5 189 -5 158 -5 c 0,31,32
 127 -5 127 -5 94 0 c 1,0,-1
EndSplineSet
Substitution2: "'smcp' Lowercase to Small Capitals lookup 2 subtable" f.smcp
Substitution2: "'aalt' Access All Alternates lookup 0 subtable" f.smcp
EndChar

StartChar: g
Encoding: 103 103 11
Width: 532
Flags: HMW
HStem: -221 99<207.5 269.5 205.5 277.5> -9 106<224.5 238.5> 410 100<229 264 183 268.5> 484 20G
VStem: 38 133<194 300 194 334.5> 338 127<10.5 36 36 36 143 354>
LayerCount: 2
Fore
SplineSet
83 60 m 128,-1,1
 38 129 38 129 38 250.5 c 128,-1,2
 38 372 38 372 95 441 c 128,-1,3
 152 510 152 510 232.5 510 c 128,-1,4
 313 510 313 510 367 461 c 1,5,6
 396 498 396 498 450 504 c 1,7,8
 464 494 464 494 477 474 c 128,-1,9
 490 454 490 454 493 437 c 1,10,11
 465 413 465 413 465 354 c 2,12,-1
 465 75 l 2,13,14
 465 -88 465 -88 416 -151 c 1,15,16
 360 -221 360 -221 239 -221 c 0,17,18
 141 -221 141 -221 58 -187 c 1,19,20
 58 -163 58 -163 67.5 -135 c 128,-1,21
 77 -107 77 -107 91 -91 c 1,22,23
 156 -122 156 -122 226 -122 c 0,24,25
 338 -122 338 -122 338 -3 c 2,26,-1
 338 36 l 1,27,28
 281 -9 281 -9 215 -9 c 0,29,0
 128 -9 128 -9 83 60 c 128,-1,1
338 143 m 1,30,-1
 338 370 l 1,31,32
 295 410 295 410 255 410 c 128,-1,33
 215 410 215 410 193 368 c 128,-1,34
 171 326 171 326 171 248.5 c 128,-1,35
 171 171 171 171 191.5 134 c 128,-1,36
 212 97 212 97 245 97 c 0,37,38
 297 97 297 97 338 143 c 1,30,-1
EndSplineSet
Substitution2: "'smcp' Lowercase to Small Capitals lookup 2 subtable" g.smcp
Substitution2: "'aalt' Access All Alternates lookup 0 subtable" g.smcp
EndChar

StartChar: h
Encoding: 104 104 12
Width: 543
Flags: HMW
HStem: 388 117<313.5 315.5>
VStem: 69 127<0 340 0 444 444 655> 347 131<97.5 116 116 307 307 334>
LayerCount: 2
Fore
SplineSet
478 334 m 2,0,-1
 478 116 l 2,1,2
 478 52 478 52 499 21 c 1,3,4
 466 -7 466 -7 422.5 -7 c 0,5,6
 379 -7 379 -7 363 13 c 128,-1,7
 347 33 347 33 347 74 c 2,8,-1
 347 307 l 2,9,10
 347 351 347 351 336 369.5 c 128,-1,11
 325 388 325 388 295 388 c 0,12,13
 242 388 242 388 196 340 c 1,14,-1
 196 0 l 1,15,16
 166 -5 166 -5 133.5 -5 c 0,17,18
 101 -5 101 -5 69 0 c 1,19,-1
 69 729 l 1,20,-1
 75 736 l 1,21,-1
 126 736 l 2,22,23
 165 736 165 736 180.5 717.5 c 128,-1,24
 196 699 196 699 196 655 c 2,25,-1
 196 444 l 1,26,27
 266 505 266 505 337.5 505 c 0,28,29
 409 505 409 505 443.5 458 c 128,-1,30
 478 411 478 411 478 334 c 2,0,-1
EndSplineSet
Substitution2: "'smcp' Lowercase to Small Capitals lookup 2 subtable" h.smcp
Substitution2: "'aalt' Access All Alternates lookup 0 subtable" h.smcp
EndChar

StartChar: j
Encoding: 106 106 14
Width: 292
Flags: HMW
HStem: -220 21G 403 97<28 131 28 131> 475 20G 585 104<72 72 202 202>
VStem: 62 140 96 128<-17 24 24 348 348 365>
LayerCount: 2
Fore
SplineSet
224 395 m 2,0,-1
 224 24 l 2,1,2
 224 -34 224 -34 218.5 -69.5 c 128,-1,3
 213 -105 213 -105 195.5 -137 c 128,-1,4
 178 -169 178 -169 144 -188.5 c 128,-1,5
 110 -208 110 -208 55 -220 c 1,6,7
 22 -191 22 -191 19 -140 c 1,8,9
 63 -120 63 -120 79.5 -94.5 c 128,-1,10
 96 -69 96 -69 96 -17 c 2,11,-1
 96 348 l 2,12,13
 96 403 96 403 50 403 c 2,14,-1
 28 403 l 1,15,16
 22 426 22 426 22 449 c 0,17,18
 22 472 22 472 28 495 c 1,19,20
 80 500 80 500 113 500 c 2,21,-1
 131 500 l 2,22,23
 174 500 174 500 199 472 c 128,-1,24
 224 444 224 444 224 395 c 2,0,-1
62 637 m 128,-1,26
 62 666 62 666 72 689 c 1,27,28
 96 702 96 702 138.5 702 c 0,29,30
 181 702 181 702 202 689 c 1,31,32
 212 666 212 666 212 637 c 128,-1,33
 212 608 212 608 202 585 c 1,34,35
 179 571 179 571 137 571 c 128,-1,36
 95 571 95 571 72 585 c 1,37,25
 62 608 62 608 62 637 c 128,-1,26
EndSplineSet
Substitution2: "'smcp' Lowercase to Small Capitals lookup 2 subtable" j.smcp
Substitution2: "'aalt' Access All Alternates lookup 0 subtable" j.smcp
EndChar

StartChar: k
Encoding: 107 107 15
Width: 513
Flags: HMW
HStem: 207 108<221 252.5> 490 10
VStem: 69 127<0 205 0 314 314 655>
LayerCount: 2
Fore
SplineSet
424 193 m 2,0,-1
 453 115 l 1,1,2
 475 52 475 52 501 33 c 1,3,4
 466 -7 466 -7 413 -7 c 0,5,6
 383 -7 383 -7 368 7.5 c 128,-1,7
 353 22 353 22 340 57 c 2,8,-1
 306 149 l 2,9,10
 293 183 293 183 277.5 195 c 128,-1,11
 262 207 262 207 241 207 c 0,12,13
 220 207 220 207 196 205 c 1,14,-1
 196 0 l 1,15,16
 166 -5 166 -5 132.5 -5 c 0,17,18
 99 -5 99 -5 69 0 c 1,19,-1
 69 729 l 1,20,-1
 75 736 l 1,21,-1
 126 736 l 2,22,23
 165 736 165 736 180.5 717.5 c 128,-1,24
 196 699 196 699 196 655 c 2,25,-1
 196 314 l 1,26,-1
 221 315 l 2,27,28
 238 315 238 315 247 331 c 2,29,-1
 316 450 l 1,30,31
 343 500 343 500 394 500 c 0,32,33
 418 500 418 500 466 498 c 1,34,-1
 472 490 l 1,35,-1
 379 330 l 1,36,37
 363 299 363 299 337 281 c 1,38,39
 398 261 398 261 424 193 c 2,0,-1
EndSplineSet
Substitution2: "'smcp' Lowercase to Small Capitals lookup 2 subtable" k.smcp
Substitution2: "'aalt' Access All Alternates lookup 0 subtable" k.smcp
EndChar

StartChar: l
Encoding: 108 108 16
Width: 304
Flags: HMW
HStem: -5 101<140 268>
VStem: 67 128<127 142 142 655>
LayerCount: 2
Fore
SplineSet
237 96 m 2,0,-1
 268 96 l 1,1,2
 279 68 279 68 279 42 c 0,3,4
 279 16 279 16 276 4 c 1,5,6
 215 -5 215 -5 179 -5 c 0,7,8
 121 -5 121 -5 94 24.5 c 128,-1,9
 67 54 67 54 67 117 c 2,10,-1
 67 729 l 1,11,-1
 74 736 l 1,12,-1
 124 736 l 2,13,14
 163 736 163 736 179 717.5 c 128,-1,15
 195 699 195 699 195 655 c 2,16,-1
 195 142 l 2,17,18
 195 96 195 96 237 96 c 2,0,-1
EndSplineSet
Substitution2: "'smcp' Lowercase to Small Capitals lookup 2 subtable" l.smcp
Substitution2: "'aalt' Access All Alternates lookup 0 subtable" l.smcp
EndChar

StartChar: m
Encoding: 109 109 17
Width: 803
Flags: HMW
HStem: 388 117<286 363>
VStem: 69 130<0 341 0 495> 338 130<0 307 307 337.5> 607 131<97.5 116 116 308 308 338.5>
LayerCount: 2
Fore
SplineSet
338 307 m 2,0,1
 338 388 338 388 286 388 c 1,2,3
 243 386 243 386 199 341 c 1,4,-1
 199 0 l 1,5,6
 169 -5 169 -5 134 -5 c 128,-1,7
 99 -5 99 -5 69 0 c 1,8,-1
 69 495 l 1,9,-1
 75 502 l 1,10,-1
 124 502 l 2,11,12
 183 502 183 502 196 440 c 1,13,14
 266 505 266 505 335 505 c 0,15,16
 417 505 417 505 451 433 c 1,17,18
 528 505 528 505 607 505 c 0,19,20
 671 505 671 505 704.5 461.5 c 128,-1,21
 738 418 738 418 738 348 c 2,22,-1
 738 116 l 2,23,24
 738 52 738 52 759 21 c 1,25,26
 724 -7 724 -7 681.5 -7 c 0,27,28
 639 -7 639 -7 623 13 c 128,-1,29
 607 33 607 33 607 74 c 2,30,-1
 607 308 l 2,31,32
 607 388 607 388 554 388 c 0,33,34
 514 388 514 388 468 340 c 1,35,-1
 468 0 l 1,36,37
 438 -5 438 -5 403 -5 c 128,-1,38
 368 -5 368 -5 338 0 c 1,39,-1
 338 307 l 2,0,1
EndSplineSet
Substitution2: "'smcp' Lowercase to Small Capitals lookup 2 subtable" m.smcp
Substitution2: "'aalt' Access All Alternates lookup 0 subtable" m.smcp
EndChar

StartChar: n
Encoding: 110 110 18
Width: 546
Flags: HMW
HStem: 388 117<316 318.5> 482 20G<75 125 125 145>
VStem: 69 130<0 340 0 495> 350 131<97.5 116 116 307 307 334>
LayerCount: 2
Fore
SplineSet
481 334 m 2,0,-1
 481 116 l 2,1,2
 481 52 481 52 502 21 c 1,3,4
 469 -7 469 -7 425.5 -7 c 0,5,6
 382 -7 382 -7 366 13 c 128,-1,7
 350 33 350 33 350 74 c 2,8,-1
 350 307 l 2,9,10
 350 351 350 351 339 369.5 c 128,-1,11
 328 388 328 388 298 388 c 0,12,13
 246 388 246 388 199 340 c 1,14,-1
 199 0 l 1,15,16
 169 -5 169 -5 134 -5 c 128,-1,17
 99 -5 99 -5 69 0 c 1,18,-1
 69 495 l 1,19,-1
 75 502 l 1,20,-1
 125 502 l 2,21,22
 182 502 182 502 195 442 c 1,23,24
 268 505 268 505 340 505 c 0,25,26
 412 505 412 505 446.5 458 c 128,-1,27
 481 411 481 411 481 334 c 2,0,-1
EndSplineSet
Substitution2: "'smcp' Lowercase to Small Capitals lookup 2 subtable" n.smcp
Substitution2: "'aalt' Access All Alternates lookup 0 subtable" n.smcp
EndChar

StartChar: o
Encoding: 111 111 19
Width: 521
Flags: HMW
HStem: -14 99<230 290.5> 412 98<230 290.5 230 297.5>
VStem: 37 134<205.5 290.5> 350 134<205.5 290.5 205.5 292>
LayerCount: 2
Fore
SplineSet
413 454 m 1,0,1
 484 383 484 383 484 248.5 c 128,-1,2
 484 114 484 114 413 43 c 0,3,4
 355 -14 355 -14 260.5 -14 c 128,-1,5
 166 -14 166 -14 108 43 c 0,6,7
 37 114 37 114 37 248.5 c 128,-1,8
 37 383 37 383 108 454 c 1,9,10
 167 510 167 510 260.5 510 c 128,-1,11
 354 510 354 510 413 454 c 1,0,1
171 248.5 m 128,-1,13
 171 85 171 85 260.5 85 c 128,-1,14
 350 85 350 85 350 248.5 c 128,-1,15
 350 412 350 412 260.5 412 c 128,-1,12
 171 412 171 412 171 248.5 c 128,-1,13
EndSplineSet
Substitution2: "'ordn' Ordinals lookup 6 subtable" ordmasculine
Substitution2: "'smcp' Lowercase to Small Capitals lookup 2 subtable" o.smcp
AlternateSubs2: "'aalt' Access All Alternates lookup 1 subtable" o.smcp ordmasculine
EndChar

StartChar: p
Encoding: 112 112 20
Width: 534
Flags: HMW
HStem: -216 21G<75 126 75 75> -9 100<280.5 305 265.5 351.5> 404 106<293.5 308.5> 482 20G<75 112 112 129.5>
VStem: 69 128<-164 -135 -135 18 120 352> 363 133<201.5 307.5>
LayerCount: 2
Fore
SplineSet
451 440.5 m 128,-1,1
 496 371 496 371 496 250 c 128,-1,2
 496 129 496 129 439 60 c 128,-1,3
 382 -9 382 -9 300 -9 c 0,4,5
 248 -9 248 -9 197 18 c 1,6,-1
 197 -135 l 2,7,8
 197 -179 197 -179 181 -197.5 c 128,-1,9
 165 -216 165 -216 126 -216 c 2,10,-1
 75 -216 l 1,11,-1
 69 -209 l 1,12,-1
 69 495 l 1,13,-1
 75 502 l 1,14,-1
 112 502 l 2,15,16
 165 502 165 502 186 453 c 1,17,18
 243 510 243 510 324.5 510 c 128,-1,0
 406 510 406 510 451 440.5 c 128,-1,1
288 404 m 0,19,20
 235 404 235 404 197 352 c 1,21,-1
 197 120 l 1,22,23
 243 91 243 91 281 91 c 128,-1,24
 319 91 319 91 341 133.5 c 128,-1,25
 363 176 363 176 363 253 c 128,-1,26
 363 330 363 330 342 367 c 128,-1,27
 321 404 321 404 288 404 c 0,19,20
EndSplineSet
Substitution2: "'smcp' Lowercase to Small Capitals lookup 2 subtable" p.smcp
Substitution2: "'aalt' Access All Alternates lookup 0 subtable" p.smcp
EndChar

StartChar: q
Encoding: 113 113 21
Width: 534
Flags: HMW
HStem: -216 21G<381.5 408 408 458> -209 21G<465 465> -9 106<225 238> 410 100<229.5 263.5 183 268.5> 484 20G
VStem: 38 133<194 300 194 334.5> 337 128<-135 35 35 35 142 354 -209 363 -209 371 -209 371>
LayerCount: 2
Fore
SplineSet
337 -135 m 2,0,-1
 337 35 l 1,1,2
 281 -9 281 -9 215 -9 c 0,3,4
 128 -9 128 -9 83 60 c 128,-1,5
 38 129 38 129 38 250.5 c 128,-1,6
 38 372 38 372 95 441 c 128,-1,7
 152 510 152 510 232 510 c 128,-1,8
 312 510 312 510 367 462 c 1,9,10
 395 498 395 498 449 504 c 1,11,12
 462 494 462 494 475 474 c 128,-1,13
 488 454 488 454 493 437 c 1,14,15
 465 415 465 415 465 354 c 2,16,-1
 465 -209 l 1,17,-1
 458 -216 l 1,18,-1
 408 -216 l 2,19,20
 369 -216 369 -216 353 -197.5 c 128,-1,21
 337 -179 337 -179 337 -135 c 2,0,-1
245 97 m 0,22,23
 297 97 297 97 337 142 c 1,24,-1
 337 371 l 1,25,26
 295 410 295 410 255.5 410 c 128,-1,27
 216 410 216 410 193.5 368 c 128,-1,28
 171 326 171 326 171 249 c 128,-1,29
 171 172 171 172 192 134.5 c 128,-1,30
 213 97 213 97 245 97 c 0,22,23
EndSplineSet
Substitution2: "'smcp' Lowercase to Small Capitals lookup 2 subtable" q.smcp
Substitution2: "'aalt' Access All Alternates lookup 0 subtable" q.smcp
EndChar

StartChar: r
Encoding: 114 114 22
Width: 383
Flags: HMW
HStem: 476 20G
VStem: 77 131<0 319 0 333 0 361>
LayerCount: 2
Fore
SplineSet
40 436 m 1,0,1
 44 454 44 454 56.5 474 c 128,-1,2
 69 494 69 494 82 504 c 1,3,4
 163 494 163 494 193 414 c 1,5,6
 231 503 231 503 320 503 c 0,7,8
 353 503 353 503 380 496 c 1,9,10
 380 426 380 426 348 374 c 1,11,12
 333 379 333 379 302 381 c 1,13,14
 244 381 244 381 208 319 c 1,15,-1
 208 0 l 1,16,17
 178 -5 178 -5 143.5 -5 c 0,18,19
 109 -5 109 -5 77 0 c 1,20,-1
 77 333 l 2,21,22
 77 404 77 404 40 436 c 1,0,1
EndSplineSet
Substitution2: "'smcp' Lowercase to Small Capitals lookup 2 subtable" r.smcp
Substitution2: "'aalt' Access All Alternates lookup 0 subtable" r.smcp
EndChar

StartChar: s
Encoding: 115 115 23
Width: 440
Flags: HMW
HStem: -14 96<181.5 226.5 181.5 273.5> 414 96<209.5 251.5>
VStem: 41 130<358 382 358 402> 277 135<130 142>
LayerCount: 2
Fore
SplineSet
25 35 m 1,0,1
 26 57 26 57 37.5 83.5 c 128,-1,2
 49 110 49 110 64 125 c 1,3,4
 144 82 144 82 203 82 c 0,5,6
 237 82 237 82 256.5 95 c 128,-1,7
 276 108 276 108 277 130 c 1,8,9
 277 166 277 166 223 186 c 2,10,-1
 167 207 l 2,11,12
 41 254 41 254 41 354 c 0,13,14
 41 425 41 425 92.5 467.5 c 128,-1,15
 144 510 144 510 227 510 c 0,16,17
 268 510 268 510 318 498.5 c 128,-1,18
 368 487 368 487 401 471 c 1,19,20
 402 447 402 447 391 419.5 c 128,-1,21
 380 392 380 392 364 379 c 1,22,23
 286 414 286 414 227 414 c 0,24,25
 201 414 201 414 186 401.5 c 128,-1,26
 171 389 171 389 171 369 c 0,27,28
 171 339 171 339 221 320 c 2,29,-1
 282 298 l 1,30,31
 412 249 412 249 412 142 c 0,32,33
 412 71 412 71 358 28.5 c 128,-1,34
 304 -14 304 -14 207 -14 c 0,35,36
 110 -14 110 -14 25 35 c 1,0,1
EndSplineSet
Substitution2: "'smcp' Lowercase to Small Capitals lookup 2 subtable" s.smcp
Substitution2: "'aalt' Access All Alternates lookup 0 subtable" s.smcp
EndChar

StartChar: t
Encoding: 116 116 24
Width: 363
Flags: HMW
HStem: -5 101<168 321> 404 93<12 88> 628 20G<159 209 209 209>
VStem: 88 128<127.5 142 142 404 404 404 496 568 568 597>
LayerCount: 2
Fore
SplineSet
337 497 m 1,0,1
 343 473 343 473 343 450 c 0,2,3
 343 427 343 427 337 403 c 1,4,-1
 216 405 l 1,5,-1
 216 142 l 2,6,7
 216 96 216 96 259 96 c 2,8,-1
 321 96 l 1,9,10
 331 66 331 66 331 39 c 0,11,12
 331 12 331 12 328 4 c 1,13,14
 267 -5 267 -5 208 -5 c 0,15,16
 88 -5 88 -5 88 117 c 2,17,-1
 88 404 l 1,18,-1
 12 403 l 1,19,20
 7 423 7 423 7 450 c 0,21,22
 7 477 7 477 12 497 c 1,23,-1
 88 496 l 1,24,-1
 88 568 l 2,25,26
 88 612 88 612 104 630 c 128,-1,27
 120 648 120 648 159 648 c 2,28,-1
 209 648 l 1,29,-1
 216 642 l 1,30,-1
 216 495 l 1,31,-1
 337 497 l 1,0,1
EndSplineSet
Substitution2: "'smcp' Lowercase to Small Capitals lookup 2 subtable" t.smcp
Substitution2: "'aalt' Access All Alternates lookup 0 subtable" t.smcp
EndChar

StartChar: u
Encoding: 117 117 25
Width: 548
Flags: HMW
HStem: -9 118<227.5 233> 476 20<347 347 478 478>
VStem: 65 131<162 189 189 381 381 399.5> 347 131<155 496>
LayerCount: 2
Fore
SplineSet
65 162 m 2,0,-1
 65 381 l 2,1,2
 65 443 65 443 44 476 c 1,3,4
 77 504 77 504 120.5 504 c 0,5,6
 164 504 164 504 180 483.5 c 128,-1,7
 196 463 196 463 196 422 c 2,8,-1
 196 189 l 2,9,10
 196 146 196 146 207 127.5 c 128,-1,11
 218 109 218 109 248 109 c 0,12,13
 301 109 301 109 347 155 c 1,14,-1
 347 496 l 1,15,16
 369 501 369 501 411.5 501 c 0,17,18
 454 501 454 501 478 496 c 1,19,-1
 478 141 l 2,20,21
 478 82 478 82 506 58 c 1,22,23
 501 40 501 40 488.5 21 c 128,-1,24
 476 2 476 2 462 -8 c 1,25,26
 389 -1 389 -1 361 63 c 1,27,28
 284 -9 284 -9 202 -9 c 0,29,30
 135 -9 135 -9 100 38 c 128,-1,31
 65 85 65 85 65 162 c 2,0,-1
EndSplineSet
Substitution2: "'smcp' Lowercase to Small Capitals lookup 2 subtable" u.smcp
Substitution2: "'aalt' Access All Alternates lookup 0 subtable" u.smcp
EndChar

StartChar: v
Encoding: 118 118 26
Width: 468
Flags: HMW
HStem: -6 108<196 243> 481 20G<385 404.5> 485 20
VStem: 0 464<485 486>
LayerCount: 2
Fore
SplineSet
243 102 m 1,0,-1
 345 496 l 1,1,2
 365 501 365 501 398 501 c 0,3,4
 431 501 431 501 460 491 c 1,5,-1
 464 485 l 1,6,7
 366 144 366 144 318 0 c 1,8,9
 274 -6 274 -6 227.5 -6 c 0,10,11
 181 -6 181 -6 161 7.5 c 128,-1,12
 141 21 141 21 129 61 c 2,13,-1
 0 486 l 1,14,15
 40 505 40 505 74 505 c 0,16,17
 133 505 133 505 147 446 c 1,18,-1
 203 243 l 1,19,20
 214 207 214 207 233 110 c 0,21,22
 235 102 235 102 243 102 c 1,0,-1
EndSplineSet
Substitution2: "'smcp' Lowercase to Small Capitals lookup 2 subtable" v.smcp
Substitution2: "'aalt' Access All Alternates lookup 0 subtable" v.smcp
EndChar

StartChar: w
Encoding: 119 119 27
Width: 740
Flags: HMW
HStem: -5 102<175.5 224 521 524> 379 114<293 373 293 367> 482 20G<648.5 666.5> 485 20G<76 106.5>
VStem: 13 716<483 489>
LayerCount: 2
Fore
SplineSet
113 60 m 2,0,-1
 13 489 l 1,1,2
 52 505 52 505 83.5 505 c 0,3,4
 115 505 115 505 129.5 491.5 c 128,-1,5
 144 478 144 478 149 450 c 2,6,-1
 187 266 l 2,7,8
 207 168 207 168 216 105 c 0,9,10
 218 97 218 97 224 97 c 1,11,-1
 293 493 l 1,12,13
 324 499 324 499 371 499 c 0,14,15
 418 499 418 499 447 493 c 1,16,-1
 516 105 l 2,17,18
 517 97 517 97 524 97 c 1,19,20
 542 201 542 201 555 266 c 1,21,-1
 605 496 l 1,22,23
 626 502 626 502 664.5 502 c 0,24,25
 703 502 703 502 725 491 c 1,26,-1
 729 483 l 1,27,-1
 609 0 l 1,28,29
 576 -5 576 -5 523.5 -5 c 0,30,31
 471 -5 471 -5 452 7 c 128,-1,32
 433 19 433 19 427 58 c 2,33,-1
 405 181 l 2,34,35
 385 296 385 296 373 379 c 1,36,-1
 367 379 l 1,37,38
 360 327 360 327 334 182 c 1,39,-1
 300 0 l 1,40,41
 265 -5 265 -5 213 -5 c 0,42,43
 161 -5 161 -5 141.5 8 c 128,-1,44
 122 21 122 21 113 60 c 2,0,-1
EndSplineSet
Substitution2: "'smcp' Lowercase to Small Capitals lookup 2 subtable" w.smcp
Substitution2: "'aalt' Access All Alternates lookup 0 subtable" w.smcp
EndChar

StartChar: x
Encoding: 120 120 28
Width: 471
Flags: HMW
HStem: 482 20G<370 391.5> 486 20G<95 125.5>
VStem: 8 458<13 21>
LayerCount: 2
Fore
SplineSet
327 496 m 1,0,1
 348 502 348 502 379 502 c 128,-1,2
 410 502 410 502 444 493 c 1,3,-1
 447 483 l 1,4,-1
 306 264 l 1,5,-1
 466 21 l 1,6,7
 422 -8 422 -8 378 -8 c 0,8,9
 334 -8 334 -8 308 31 c 2,10,-1
 226 156 l 1,11,-1
 133 0 l 1,12,13
 114 -6 114 -6 76 -6 c 0,14,15
 38 -6 38 -6 12 5 c 1,16,-1
 8 13 l 1,17,-1
 163 254 l 1,18,-1
 20 476 l 1,19,20
 62 506 62 506 109 506 c 0,21,22
 133 506 133 506 147 496.5 c 128,-1,23
 161 487 161 487 175 465 c 2,24,-1
 244 360 l 1,25,-1
 327 496 l 1,0,1
EndSplineSet
Substitution2: "'smcp' Lowercase to Small Capitals lookup 2 subtable" x.smcp
Substitution2: "'aalt' Access All Alternates lookup 0 subtable" x.smcp
EndChar

StartChar: y
Encoding: 121 121 29
Width: 483
Flags: HMW
HStem: -219 98<98 142 98 184.5> 482 20G<392.5 412.5> 485 20G<79.5 106>
VStem: 3 472
LayerCount: 2
Fore
SplineSet
475 484 m 1,0,-1
 347 14 l 2,1,2
 314 -105 314 -105 263.5 -162 c 128,-1,3
 213 -219 213 -219 112 -219 c 0,4,5
 56 -219 56 -219 3 -200 c 1,6,7
 1 -178 1 -178 9 -150 c 128,-1,8
 17 -122 17 -122 30 -107 c 1,9,10
 74 -121 74 -121 113 -121 c 0,11,12
 190 -121 190 -121 221 -19 c 2,13,-1
 225 -6 l 1,14,15
 187 -5 187 -5 165 8 c 128,-1,16
 143 21 143 21 134 52 c 2,17,-1
 10 486 l 1,18,19
 51 505 51 505 83 505 c 0,20,21
 115 505 115 505 130.5 492.5 c 128,-1,22
 146 480 146 480 155 448 c 2,23,-1
 212 237 l 2,24,25
 218 214 218 214 241 98 c 0,26,27
 242 91 242 91 250 91 c 1,28,-1
 348 496 l 1,29,30
 371 502 371 502 406 502 c 0,31,32
 441 502 441 502 470 492 c 1,33,-1
 475 484 l 1,0,-1
EndSplineSet
Substitution2: "'smcp' Lowercase to Small Capitals lookup 2 subtable" y.smcp
Substitution2: "'aalt' Access All Alternates lookup 0 subtable" y.smcp
EndChar

StartChar: z
Encoding: 122 122 30
Width: 448
Flags: HMW
HStem: 0 98<177 177 266 307 307 325.5> 398 98<50 137 47 392>
VStem: 30 390<59 68.5 41 74>
LayerCount: 2
Fore
SplineSet
49 116 m 2,0,-1
 189 305 l 2,1,2
 204 325 204 325 269 401 c 1,3,-1
 266 405 l 1,4,5
 208 398 208 398 137 398 c 2,6,-1
 47 398 l 1,7,8
 42 420 42 420 42 443.5 c 0,9,10
 42 467 42 467 50 496 c 1,11,-1
 392 496 l 1,12,13
 409 445 409 445 409 422.5 c 0,14,15
 409 400 409 400 395 382 c 2,16,-1
 254 191 l 1,17,18
 210 134 210 134 177 98 c 1,19,-1
 180 93 l 1,20,21
 219 98 219 98 266 98 c 2,22,-1
 307 98 l 2,23,24
 374 98 374 98 407 114 c 1,25,26
 420 82 420 82 420 59 c 0,27,28
 420 0 420 0 345 0 c 2,29,-1
 46 0 l 1,30,31
 30 44 30 44 30 67 c 128,-1,32
 30 90 30 90 49 116 c 2,0,-1
EndSplineSet
Substitution2: "'smcp' Lowercase to Small Capitals lookup 2 subtable" z.smcp
Substitution2: "'aalt' Access All Alternates lookup 0 subtable" z.smcp
EndChar

StartChar: A
Encoding: 65 65 31
Width: 625
Flags: HMW
HStem: 154 108<232 352 266 352 352 356.5 266 377> 557 131<304 310 304 304>
VStem: 14 597<9 10>
LayerCount: 2
Fore
SplineSet
426 155 m 1,0,-1
 377 154 l 1,1,-1
 237 154 l 2,2,3
 204 154 204 154 188 155 c 1,4,-1
 141 -1 l 1,5,6
 120 -6 120 -6 81.5 -6 c 128,-1,7
 43 -6 43 -6 19 3 c 1,8,-1
 14 10 l 1,9,-1
 237 683 l 1,10,11
 274 688 274 688 317 688 c 128,-1,12
 360 688 360 688 392 682 c 1,13,-1
 611 9 l 1,14,15
 582 -8 582 -8 541.5 -8 c 128,-1,16
 501 -8 501 -8 483.5 7 c 128,-1,17
 466 22 466 22 454 64 c 2,18,-1
 426 155 l 1,0,-1
221 261 m 1,19,-1
 266 262 l 1,20,-1
 352 262 l 2,21,22
 356 262 356 262 371 261.5 c 128,-1,23
 386 261 386 261 394 261 c 1,24,-1
 364 363 l 2,25,26
 330 477 330 477 310 557 c 1,27,-1
 304 557 l 1,28,29
 295 514 295 514 260 388 c 1,30,-1
 221 261 l 1,19,-1
EndSplineSet
Substitution2: "'c2sc' Capitals to Small Capitals lookup 3 subtable" a.smcp
Substitution2: "'aalt' Access All Alternates lookup 0 subtable" a.smcp
EndChar

StartChar: B
Encoding: 66 66 32
Width: 610
Flags: HMW
HStem: -5 97<303 365 303 403.5> 309 99<216 303 303 314 216 303> 590 98<293 344>
VStem: 83 133<91 309 91 408 408 591> 403 133<478 521.5> 432 136<177 223.5>
LayerCount: 2
Fore
SplineSet
90 684 m 1,0,1
 244 688 244 688 309 688 c 0,2,3
 418 688 418 688 477 641.5 c 128,-1,4
 536 595 536 595 536 507 c 0,5,6
 536 461 536 461 510.5 423 c 128,-1,7
 485 385 485 385 444 368 c 1,8,9
 496 352 496 352 532 303.5 c 128,-1,10
 568 255 568 255 568 194 c 0,11,12
 568 99 568 99 505 47 c 128,-1,13
 442 -5 442 -5 324 -5 c 0,14,15
 250 -5 250 -5 90 -1 c 1,16,-1
 83 5 l 1,17,-1
 83 678 l 1,18,-1
 90 684 l 1,0,1
314 309 m 2,19,-1
 216 309 l 1,20,-1
 216 91 l 1,21,22
 252 92 252 92 316.5 92 c 0,23,24
 381 92 381 92 406.5 124 c 128,-1,25
 432 156 432 156 432 199.5 c 0,26,27
 432 243 432 243 404.5 276 c 128,-1,28
 377 309 377 309 314 309 c 2,19,-1
216 591 m 1,29,-1
 216 408 l 1,30,-1
 303 408 l 2,31,32
 403 408 403 408 403 500 c 0,33,34
 403 590 403 590 304 590 c 0,35,36
 244 590 244 590 216 591 c 1,29,-1
EndSplineSet
Substitution2: "'c2sc' Capitals to Small Capitals lookup 3 subtable" b.smcp
Substitution2: "'aalt' Access All Alternates lookup 0 subtable" b.smcp
EndChar

StartChar: C
Encoding: 67 67 33
Width: 606
Flags: HMW
HStem: -14 117<286.5 364> 590 108<274.5 371>
VStem: 42 141<261.5 420 261.5 464> 446 129
LayerCount: 2
Fore
SplineSet
446 428 m 1,0,1
 448 497 448 497 419 543.5 c 128,-1,2
 390 590 390 590 322 590 c 0,3,4
 183 590 183 590 183 338 c 0,5,6
 183 224 183 224 222.5 163.5 c 128,-1,7
 262 103 262 103 337.5 103 c 128,-1,8
 413 103 413 103 508 176 c 1,9,10
 529 162 529 162 548 137 c 128,-1,11
 567 112 567 112 572 89 c 1,12,13
 528 45 528 45 457.5 15.5 c 128,-1,14
 387 -14 387 -14 312.5 -14 c 128,-1,15
 238 -14 238 -14 184 16 c 128,-1,16
 130 46 130 46 100 97.5 c 0,17,18
 42 197.066666667 42 197.066666667 42 339 c 0,19,20
 42 517 42 517 122 607.5 c 128,-1,21
 202 698 202 698 319.5 698 c 128,-1,22
 437 698 437 698 506 639 c 128,-1,23
 575 580 575 580 575 496 c 0,24,25
 575 421 575 421 499 421 c 0,26,27
 478 421 478 421 446 428 c 1,0,1
EndSplineSet
Substitution2: "'c2sc' Capitals to Small Capitals lookup 3 subtable" c.smcp
Substitution2: "'aalt' Access All Alternates lookup 0 subtable" c.smcp
EndChar

StartChar: D
Encoding: 68 68 34
Width: 658
Flags: HMW
HStem: -5 106<307 353> 582 106<307 353 284 391.5>
VStem: 83 134<100 583 100 678 100 678> 476 138<287 397>
LayerCount: 2
Fore
SplineSet
591.5 514.5 m 128,-1,1
 614 442 614 442 614 341.5 c 128,-1,2
 614 241 614 241 591.5 168.5 c 128,-1,3
 569 96 569 96 505 45 c 0,4,5
 475 20 475 20 424 7.5 c 128,-1,6
 373 -5 373 -5 318.5 -5 c 128,-1,7
 264 -5 264 -5 90 -1 c 1,8,-1
 83 5 l 1,9,-1
 83 678 l 1,10,-1
 90 684 l 1,11,12
 205 688 205 688 326 688 c 0,13,14
 373 688 373 688 424 675.5 c 128,-1,15
 475 663 475 663 505 638 c 0,16,0
 569 587 569 587 591.5 514.5 c 128,-1,1
473 274.5 m 128,-1,18
 476 305 476 305 476 347.5 c 128,-1,19
 476 390 476 390 470.5 427 c 128,-1,20
 465 464 465 464 450.5 502 c 0,21,22
 419.973684211 582 419.973684211 582 326 582 c 0,23,24
 257 582 257 582 217 583 c 1,25,-1
 217 100 l 1,26,27
 257 101 257 101 310.5 101 c 128,-1,28
 364 101 364 101 392 116 c 128,-1,29
 420 131 420 131 435.5 153.5 c 128,-1,30
 451 176 451 176 460.5 210 c 128,-1,17
 470 244 470 244 473 274.5 c 128,-1,18
EndSplineSet
Substitution2: "'c2sc' Capitals to Small Capitals lookup 3 subtable" d.smcp
Substitution2: "'aalt' Access All Alternates lookup 0 subtable" d.smcp
EndChar

StartChar: E
Encoding: 69 69 35
Width: 570
Flags: HMW
HStem: -2 113<284 440> 289 110<215 449 215 449 280 449> 570 113<214 280 214 214 280 500>
VStem: 82 133<160 171 171 289 398 501>
LayerCount: 2
Fore
SplineSet
215 171 m 1,0,-1
 214 109 l 1,1,2
 256 111 256 111 284 111 c 2,3,-1
 529 111 l 1,4,5
 529 79 529 79 526 62 c 0,6,7
 515 -2 515 -2 440 -2 c 2,8,-1
 159 -2 l 2,9,10
 123 -2 123 -2 102.5 19.5 c 128,-1,11
 82 41 82 41 82 78 c 2,12,-1
 82 676 l 1,13,-1
 89 683 l 1,14,-1
 506 683 l 1,15,16
 511 658 511 658 511 629.5 c 128,-1,17
 511 601 511 601 500 570 c 1,18,-1
 214 570 l 1,19,-1
 215 501 l 1,20,-1
 215 398 l 1,21,22
 240 399 240 399 280 399 c 2,23,-1
 449 399 l 1,24,25
 457 376 457 376 457 344 c 128,-1,26
 457 312 457 312 449 289 c 1,27,-1
 215 289 l 1,28,-1
 215 171 l 1,0,-1
EndSplineSet
Substitution2: "'c2sc' Capitals to Small Capitals lookup 3 subtable" e.smcp
Substitution2: "'aalt' Access All Alternates lookup 0 subtable" e.smcp
EndChar

StartChar: F
Encoding: 70 70 36
Width: 529
Flags: HMW
HStem: 286 111<217 248 217 248 248 445> 569 114<216 300 216 216 300 435>
VStem: 83 134<0 286 397 472>
LayerCount: 2
Fore
SplineSet
217 0 m 1,0,1
 190 -5 190 -5 150.5 -5 c 128,-1,2
 111 -5 111 -5 83 0 c 1,3,-1
 83 677 l 1,4,-1
 90 683 l 1,5,-1
 502 683 l 1,6,7
 508 660 508 660 508 629 c 128,-1,8
 508 598 508 598 490.5 583.5 c 128,-1,9
 473 569 473 569 435 569 c 2,10,-1
 216 569 l 1,11,12
 217 536 217 536 217 472 c 2,13,-1
 217 397 l 1,14,-1
 445 397 l 1,15,16
 452 375 452 375 452 342.5 c 128,-1,17
 452 310 452 310 445 286 c 1,18,-1
 217 286 l 1,19,-1
 217 0 l 1,0,1
EndSplineSet
Substitution2: "'c2sc' Capitals to Small Capitals lookup 3 subtable" f.smcp
Substitution2: "'aalt' Access All Alternates lookup 0 subtable" f.smcp
EndChar

StartChar: G
Encoding: 71 71 37
Width: 649
Flags: HMW
HStem: -14 108<301 379.5 301 388> 261 114<377 534.5 399 534.5> 584 113<303 385>
VStem: 42 138<253.5 425 253.5 461> 465 127<106 195 195 206>
LayerCount: 2
Fore
SplineSet
345 374 m 1,0,-1
 500 375 l 2,1,2
 592 375 592 375 592 290 c 2,3,-1
 592 28 l 1,4,5
 474 -14 474 -14 331 -14 c 128,-1,6
 188 -14 188 -14 115 81.5 c 128,-1,7
 42 177 42 177 42 337 c 0,8,9
 42 427 42 427 68 497.5 c 128,-1,10
 94 568 94 568 138 610.5 c 0,11,12
 227.552941176 697 227.552941176 697 355.276470588 697 c 128,-1,13
 483 697 483 697 590 625 c 1,14,15
 587 596 587 596 568.5 568.5 c 128,-1,16
 550 541 550 541 528 527 c 1,17,18
 448 584 448 584 360.5 584 c 0,19,20
 180 584 180 584 180 339 c 128,-1,21
 180 94 180 94 359 94 c 0,22,23
 414 94 414 94 465 106 c 1,24,-1
 465 195 l 2,25,26
 465 239 465 239 467 261 c 1,27,-1
 399 261 l 2,28,29
 366 261 366 261 350.5 274.5 c 128,-1,30
 335 288 335 288 335 317.5 c 128,-1,31
 335 347 335 347 345 374 c 1,0,-1
EndSplineSet
Substitution2: "'c2sc' Capitals to Small Capitals lookup 3 subtable" g.smcp
Substitution2: "'aalt' Access All Alternates lookup 0 subtable" g.smcp
EndChar

StartChar: H
Encoding: 72 72 38
Width: 681
Flags: HMW
HStem: 296 113<264 411 270 411>
VStem: 83 134<0 223 468 482 482 683> 463 135<0 223 223 237 482 683 0 683>
LayerCount: 2
Fore
SplineSet
464 408 m 1,0,-1
 463 482 l 1,1,-1
 463 683 l 1,2,3
 489 688 489 688 529.5 688 c 128,-1,4
 570 688 570 688 598 683 c 1,5,-1
 598 0 l 1,6,7
 569 -5 569 -5 529.5 -5 c 128,-1,8
 490 -5 490 -5 463 0 c 1,9,-1
 463 223 l 1,10,-1
 464 297 l 1,11,-1
 411 296 l 1,12,-1
 270 296 l 1,13,-1
 216 297 l 1,14,-1
 217 223 l 1,15,-1
 217 0 l 1,16,17
 191 -5 191 -5 150 -5 c 128,-1,18
 109 -5 109 -5 83 0 c 1,19,-1
 83 683 l 1,20,21
 109 688 109 688 150 688 c 128,-1,22
 191 688 191 688 217 683 c 1,23,-1
 217 482 l 1,24,-1
 216 408 l 1,25,-1
 270 409 l 1,26,-1
 411 409 l 1,27,-1
 464 408 l 1,0,-1
EndSplineSet
Substitution2: "'c2sc' Capitals to Small Capitals lookup 3 subtable" h.smcp
Substitution2: "'aalt' Access All Alternates lookup 0 subtable" h.smcp
EndChar

StartChar: I
Encoding: 73 73 39
Width: 306
Flags: HMW
HStem: -5 693<144 162.5>
VStem: 86 134<0 683 0 683>
LayerCount: 2
Fore
SplineSet
86 0 m 1,0,-1
 86 683 l 1,1,2
 111 688 111 688 151.5 688 c 0,3,4
 192 688 192 688 220 683 c 1,5,-1
 220 0 l 1,6,7
 192 -5 192 -5 151.5 -5 c 0,8,9
 111 -5 111 -5 86 0 c 1,0,-1
EndSplineSet
Substitution2: "'c2sc' Capitals to Small Capitals lookup 3 subtable" i.smcp
Substitution2: "'aalt' Access All Alternates lookup 0 subtable" i.smcp
EndChar

StartChar: J
Encoding: 74 74 40
Width: 460
Flags: HMW
HStem: -10 111<143 194.5 139 259.5>
VStem: 254 134<241 256 256 683>
LayerCount: 2
Fore
SplineSet
58 133 m 1,0,1
 110 101 110 101 161 101 c 128,-1,2
 212 101 212 101 233 134.5 c 128,-1,3
 254 168 254 168 254 241 c 2,4,-1
 254 683 l 1,5,6
 280 688 280 688 321 688 c 128,-1,7
 362 688 362 688 388 683 c 1,8,-1
 388 256 l 2,9,10
 388 194 388 194 379 149.5 c 128,-1,11
 370 105 370 105 347 67 c 0,12,13
 300.394736842 -10 300.394736842 -10 169 -10 c 0,14,15
 81 -10 81 -10 10 33 c 1,16,17
 20 90 20 90 58 133 c 1,0,1
EndSplineSet
Substitution2: "'c2sc' Capitals to Small Capitals lookup 3 subtable" j.smcp
Substitution2: "'aalt' Access All Alternates lookup 0 subtable" j.smcp
EndChar

StartChar: K
Encoding: 75 75 41
Width: 609
Flags: HMW
HStem: 297 112<266 268.5 257 299.5> 674 14
VStem: 83 134<0 295 0 408 408 683>
LayerCount: 2
Fore
SplineSet
598 34 m 1,0,1
 570 -8 570 -8 508 -8 c 0,2,3
 473 -8 473 -8 455.5 10 c 128,-1,4
 438 28 438 28 424 71 c 1,5,-1
 378 202 l 2,6,7
 360 254 360 254 336.5 275.5 c 128,-1,8
 313 297 313 297 273 297 c 0,9,10
 263 297 263 297 217 295 c 1,11,-1
 217 0 l 1,12,13
 191 -5 191 -5 150 -5 c 128,-1,14
 109 -5 109 -5 83 0 c 1,15,-1
 83 683 l 1,16,17
 109 688 109 688 150 688 c 128,-1,18
 191 688 191 688 217 683 c 1,19,-1
 217 408 l 1,20,-1
 257 409 l 2,21,22
 273 409 273 409 281 415.5 c 128,-1,23
 289 422 289 422 299 440 c 2,24,-1
 410 638 l 2,25,26
 425 665 425 665 440 676.5 c 128,-1,27
 455 688 455 688 482 688 c 128,-1,28
 509 688 509 688 563 684 c 1,29,-1
 571 674 l 1,30,-1
 435 431 l 2,31,32
 412 390 412 390 386 369 c 1,33,34
 433 359 433 359 458 330.5 c 128,-1,35
 483 302 483 302 502 251 c 1,36,-1
 549 117 l 2,37,38
 549 116 549 116 552.5 107.5 c 128,-1,39
 556 99 556 99 556.5 97.5 c 128,-1,40
 557 96 557 96 560 89 c 128,-1,41
 563 82 563 82 564 80 c 0,42,43
 578 52 578 52 586 45 c 128,-1,44
 594 38 594 38 598 34 c 1,0,1
EndSplineSet
Substitution2: "'c2sc' Capitals to Small Capitals lookup 3 subtable" k.smcp
Substitution2: "'aalt' Access All Alternates lookup 0 subtable" k.smcp
EndChar

StartChar: L
Encoding: 76 76 42
Width: 517
Flags: HMW
HStem: -2 116<308 403>
VStem: 82 135<110 603 110 682 110 682>
LayerCount: 2
Fore
SplineSet
308 114 m 2,0,-1
 494 114 l 1,1,2
 494 84 494 84 490 63 c 0,3,4
 479 -2 479 -2 403 -2 c 2,5,-1
 160 -2 l 2,6,7
 124 -2 124 -2 103 19.5 c 128,-1,8
 82 41 82 41 82 78 c 2,9,-1
 82 682 l 1,10,-1
 89 689 l 1,11,-1
 139 689 l 2,12,13
 179 689 179 689 198 668.5 c 128,-1,14
 217 648 217 648 217 603 c 2,15,-1
 217 110 l 1,16,17
 260 114 260 114 308 114 c 2,0,-1
EndSplineSet
Substitution2: "'c2sc' Capitals to Small Capitals lookup 3 subtable" l.smcp
Substitution2: "'aalt' Access All Alternates lookup 0 subtable" l.smcp
EndChar

StartChar: M
Encoding: 77 77 43
Width: 821
Flags: HMW
HStem: -18 20G<64 64 757 757> 102 132<342 414 407 479> 537 145<117 225 117 218>
VStem: 64 693<2 2>
LayerCount: 2
Fore
SplineSet
64 2 m 1,0,-1
 117 682 l 1,1,2
 158 689 158 689 205.5 689 c 0,3,4
 253 689 253 689 292 682 c 1,5,-1
 369 405 l 1,6,7
 400 281 400 281 407 234 c 1,8,-1
 414 234 l 1,9,10
 421 281 421 281 452 405 c 1,11,-1
 528 682 l 1,12,13
 570 689 570 689 616 689 c 0,14,15
 662 689 662 689 704 682 c 1,16,-1
 757 2 l 1,17,18
 730 -5 730 -5 692.5 -5 c 0,19,20
 655 -5 655 -5 630 -1 c 1,21,-1
 611 320 l 2,22,23
 603 444 603 444 603 537 c 1,24,-1
 596 537 l 1,25,-1
 479 102 l 1,26,27
 446 97 446 97 410.5 97 c 0,28,29
 375 97 375 97 342 102 c 1,30,-1
 225 537 l 1,31,-1
 218 537 l 1,32,33
 216 414 216 414 210 320 c 2,34,-1
 191 -1 l 1,35,36
 166 -5 166 -5 128.5 -5 c 0,37,38
 91 -5 91 -5 64 2 c 1,0,-1
EndSplineSet
Substitution2: "'c2sc' Capitals to Small Capitals lookup 3 subtable" m.smcp
Substitution2: "'aalt' Access All Alternates lookup 0 subtable" m.smcp
EndChar

StartChar: N
Encoding: 78 78 44
Width: 688
Flags: HMW
HStem: -5 694<138.5 598 515.5 598>
VStem: 83 125<0 254 0 681> 481 124<423 606 606 636>
LayerCount: 2
Fore
SplineSet
598 689 m 1,0,-1
 605 682 l 1,1,-1
 605 2 l 1,2,3
 574 -5 574 -5 527 -5 c 0,4,5
 480 -5 480 -5 445 0 c 1,6,-1
 261 387 l 1,7,8
 221 475 221 475 201 527 c 1,9,-1
 197 526 l 1,10,11
 208 385 208 385 208 254 c 2,12,-1
 208 0 l 1,13,14
 180 -5 180 -5 144.5 -5 c 0,15,16
 109 -5 109 -5 83 0 c 1,17,-1
 83 681 l 1,18,19
 112 688 112 688 159 688 c 0,20,21
 206 688 206 688 241 683 c 1,22,-1
 423 296 l 1,23,-1
 488 148 l 1,24,-1
 491 149 l 1,25,26
 481 294 481 294 481 423 c 2,27,-1
 481 606 l 2,28,29
 481 651 481 651 498 670 c 128,-1,30
 515 689 515 689 555 689 c 2,31,-1
 598 689 l 1,0,-1
EndSplineSet
Substitution2: "'c2sc' Capitals to Small Capitals lookup 3 subtable" n.smcp
Substitution2: "'aalt' Access All Alternates lookup 0 subtable" n.smcp
EndChar

StartChar: O
Encoding: 79 79 45
Width: 662
Flags: HMW
HStem: -14 105<288.5 374> 592 105<288.5 374 288.5 394.5>
VStem: 42 141<288.5 395.5> 479 141<288.5 395.5 288.5 398.5>
LayerCount: 2
Fore
SplineSet
331 592 m 128,-1,1
 183 592 183 592 183 341.5 c 128,-1,2
 183 91 183 91 331 91 c 128,-1,3
 479 91 479 91 479 341.5 c 128,-1,0
 479 592 479 592 331 592 c 128,-1,1
149 47 m 1,4,5
 42 139 42 139 42 341.5 c 128,-1,6
 42 544 42 544 149 636 c 1,7,8
 224 697 224 697 332 697 c 128,-1,9
 440 697 440 697 513 636 c 0,10,11
 620 545 620 545 620 341.5 c 128,-1,12
 620 138 620 138 513 47 c 0,13,14
 440 -14 440 -14 332 -14 c 128,-1,15
 224 -14 224 -14 149 47 c 1,4,5
EndSplineSet
Substitution2: "'c2sc' Capitals to Small Capitals lookup 3 subtable" o.smcp
Substitution2: "'aalt' Access All Alternates lookup 0 subtable" o.smcp
EndChar

StartChar: P
Encoding: 80 80 46
Width: 579
Flags: HMW
HStem: 227 104<293.5 309 217 345.5> 583 105<288.5 345.5>
VStem: 83 134<0 227 0 329 329 584> 408 138<430.5 484>
LayerCount: 2
Fore
SplineSet
481.5 629 m 128,-1,1
 546 570 546 570 546 458.5 c 128,-1,2
 546 347 546 347 481 287 c 128,-1,3
 416 227 416 227 309 227 c 2,4,-1
 217 227 l 1,5,-1
 217 0 l 1,6,7
 191 -5 191 -5 150 -5 c 128,-1,8
 109 -5 109 -5 83 0 c 1,9,-1
 83 678 l 1,10,-1
 90 684 l 1,11,12
 250 688 250 688 309 688 c 0,13,0
 417 688 417 688 481.5 629 c 128,-1,1
217 584 m 1,14,-1
 217 329 l 1,15,16
 283 331 283 331 308 331 c 128,-1,17
 333 331 333 331 355 343 c 128,-1,18
 377 355 377 355 388 375 c 0,19,20
 408 411.363636364 408 411.363636364 408 459.681818182 c 128,-1,21
 408 508 408 508 384.5 545.5 c 128,-1,22
 361 583 361 583 304 583 c 128,-1,23
 247 583 247 583 217 584 c 1,14,-1
EndSplineSet
Substitution2: "'c2sc' Capitals to Small Capitals lookup 3 subtable" p.smcp
Substitution2: "'aalt' Access All Alternates lookup 0 subtable" p.smcp
EndChar

StartChar: Q
Encoding: 81 81 47
Width: 662
Flags: HMW
HStem: -137 97<516 623> -14 106<289.5 332 332 336> 592 105<287.5 373 287.5 394>
VStem: 42 139<289 395> 479 139<292.5 394.5 292.5 399>
LayerCount: 2
Fore
SplineSet
444 -103 m 2,0,-1
 336 -14 l 1,1,-1
 332 -14 l 2,2,3
 220 -14 220 -14 149 47 c 0,4,5
 42 138 42 138 42 342 c 128,-1,6
 42 546 42 546 149 636 c 1,7,8
 218 697 218 697 329.5 697 c 0,9,10
 441 697 441 697 512 636 c 0,11,12
 618 546 618 546 618 341 c 0,13,14
 618 157 618 157 534 72 c 1,15,16
 507 42 507 42 473 28 c 1,17,-1
 497 11 l 2,18,19
 568 -40 568 -40 623 -40 c 1,20,21
 622 -85 622 -85 596.5 -111 c 128,-1,22
 571 -137 571 -137 528 -137 c 0,23,24
 485 -137 485 -137 444 -103 c 2,0,-1
181 342 m 128,-1,26
 181 92 181 92 330 92 c 128,-1,27
 479 92 479 92 479 342 c 128,-1,28
 479 592 479 592 330 592 c 128,-1,25
 181 592 181 592 181 342 c 128,-1,26
EndSplineSet
Substitution2: "'c2sc' Capitals to Small Capitals lookup 3 subtable" q.smcp
Substitution2: "'aalt' Access All Alternates lookup 0 subtable" q.smcp
EndChar

StartChar: R
Encoding: 82 82 48
Width: 608
Flags: HMW
HStem: 262 107<216 351.5 216 351.5> 585 103<296 351.5>
VStem: 83 133<0 262 0 366 366 586> 415 138<449.5 505>
LayerCount: 2
Fore
SplineSet
553 477 m 0,0,1
 553 410 553 410 517 361.5 c 128,-1,2
 481 313 481 313 428 294 c 1,3,4
 478 276 478 276 502 206 c 1,5,-1
 539 105 l 2,6,7
 556 56 556 56 586 32 c 1,8,9
 573 14 573 14 548.5 3 c 128,-1,10
 524 -8 524 -8 493 -8 c 0,11,12
 462 -8 462 -8 445 10 c 128,-1,13
 428 28 428 28 412 71 c 2,14,-1
 370 190 l 2,15,16
 357 225 357 225 337 243.5 c 128,-1,17
 317 262 317 262 277 262 c 2,18,-1
 216 262 l 1,19,-1
 216 0 l 1,20,21
 188 -5 188 -5 148.5 -5 c 0,22,23
 109 -5 109 -5 83 0 c 1,24,-1
 83 678 l 1,25,-1
 90 684 l 1,26,27
 250 688 250 688 318 688 c 0,28,29
 426 688 426 688 489.5 634 c 128,-1,30
 553 580 553 580 553 477 c 0,0,1
216 586 m 1,31,-1
 216 366 l 1,32,33
 269 369 269 369 308 369 c 0,34,35
 415 369 415 369 415 477 c 128,-1,36
 415 585 415 585 308 585 c 0,37,38
 247 585 247 585 216 586 c 1,31,-1
EndSplineSet
Substitution2: "'c2sc' Capitals to Small Capitals lookup 3 subtable" r.smcp
Substitution2: "'aalt' Access All Alternates lookup 0 subtable" r.smcp
EndChar

StartChar: S
Encoding: 83 83 49
Width: 556
Flags: HMW
HStem: -14 110<243 312.5 243 354> 588 109<250.5 309.5>
VStem: 47 137<495 532 495 554> 382 141<175 192>
LayerCount: 2
Fore
SplineSet
22 60 m 1,0,1
 25 88 25 88 40.5 116.5 c 128,-1,2
 56 145 56 145 76 162 c 1,3,4
 180 96 180 96 278 96 c 0,5,6
 327 96 327 96 354 118.5 c 128,-1,7
 381 141 381 141 382 175 c 1,8,9
 382 232 382 232 305 266 c 1,10,-1
 187 316 l 1,11,12
 47 377 47 377 47 495 c 0,13,14
 47 583 47 583 113.5 640 c 128,-1,15
 180 697 180 697 290 697 c 0,16,17
 400 697 400 697 506 642 c 1,18,19
 503 581 503 581 459 540 c 1,20,21
 359 588 359 588 283 588 c 0,22,23
 236 588 236 588 210 566 c 128,-1,24
 184 544 184 544 184 512 c 0,25,26
 184 466 184 466 255 436 c 2,27,-1
 373 386 l 2,28,29
 444 356 444 356 483.5 307 c 128,-1,30
 523 258 523 258 523 194 c 0,31,32
 523 101 523 101 457.5 43.5 c 128,-1,33
 392 -14 392 -14 263 -14 c 0,34,35
 134 -14 134 -14 22 60 c 1,0,1
EndSplineSet
Substitution2: "'c2sc' Capitals to Small Capitals lookup 3 subtable" s.smcp
Substitution2: "'aalt' Access All Alternates lookup 0 subtable" s.smcp
EndChar

StartChar: T
Encoding: 84 84 50
Width: 501
Flags: HMW
HStem: 571 112<13 124 13 491 372 379 379 426>
VStem: 184 135<0 498 0 511.5 0 572>
LayerCount: 2
Fore
SplineSet
318 572 m 1,0,-1
 319 498 l 1,1,-1
 319 0 l 1,2,3
 290 -5 290 -5 251.5 -5 c 128,-1,4
 213 -5 213 -5 184 0 c 1,5,-1
 184 498 l 1,6,-1
 185 572 l 1,7,-1
 184 572 l 1,8,-1
 124 571 l 1,9,-1
 13 571 l 1,10,11
 8 596 8 596 8 627 c 128,-1,12
 8 658 8 658 13 683 c 1,13,-1
 491 683 l 1,14,15
 498 658 498 658 498 628.5 c 128,-1,16
 498 599 498 599 481 585 c 128,-1,17
 464 571 464 571 426 571 c 2,18,-1
 379 571 l 1,19,20
 319 572 l 1,21,-1
 318 572 l 1,0,-1
EndSplineSet
Substitution2: "'c2sc' Capitals to Small Capitals lookup 3 subtable" t.smcp
Substitution2: "'aalt' Access All Alternates lookup 0 subtable" t.smcp
EndChar

StartChar: U
Encoding: 85 85 51
Width: 671
Flags: HMW
HStem: -14 107<292 379.5 292 417>
VStem: 74 134<246 603> 463 134<245 246 246 683>
LayerCount: 2
Fore
SplineSet
597 683 m 1,0,-1
 597 246 l 2,1,2
 597 122 597 122 528 54 c 128,-1,3
 459 -14 459 -14 335.5 -14 c 0,4,5
 212 -14 212 -14 143 54 c 128,-1,6
 74 122 74 122 74 246 c 2,7,-1
 74 682 l 1,8,-1
 80 689 l 1,9,-1
 130 689 l 2,10,11
 170 689 170 689 189 668.5 c 128,-1,12
 208 648 208 648 208 603 c 2,13,-1
 208 245 l 2,14,15
 208 93 208 93 335.5 93 c 0,16,17
 463 93 463 93 463 245 c 2,18,-1
 463 683 l 1,19,20
 489 688 489 688 530 688 c 0,21,22
 571 688 571 688 597 683 c 1,0,-1
EndSplineSet
Substitution2: "'c2sc' Capitals to Small Capitals lookup 3 subtable" u.smcp
Substitution2: "'aalt' Access All Alternates lookup 0 subtable" u.smcp
EndChar

StartChar: V
Encoding: 86 86 52
Width: 591
Flags: HMW
HStem: -5 120<258 308>
VStem: 14 565<671 671>
LayerCount: 2
Fore
SplineSet
308 115 m 1,0,-1
 453 683 l 1,1,2
 472 688 472 688 509 688 c 0,3,4
 546 688 546 688 573 679 c 1,5,-1
 579 671 l 1,6,-1
 386 0 l 1,7,8
 346 -5 346 -5 294.5 -5 c 0,9,10
 243 -5 243 -5 221 7.5 c 128,-1,11
 199 20 199 20 189 57 c 2,12,-1
 14 671 l 1,13,14
 59 691 59 691 92 691 c 0,15,16
 125 691 125 691 142 675.5 c 128,-1,17
 159 660 159 660 168 625 c 2,18,-1
 258 303 l 2,19,20
 279 226 279 226 299 126 c 0,21,22
 301 115 301 115 308 115 c 1,0,-1
EndSplineSet
Substitution2: "'c2sc' Capitals to Small Capitals lookup 3 subtable" v.smcp
Substitution2: "'aalt' Access All Alternates lookup 0 subtable" v.smcp
EndChar

StartChar: W
Encoding: 87 87 53
Width: 878
Flags: HMW
HStem: -5 117<209.5 259> 537 132<354 443 354 435>
VStem: 22 832<671 675>
LayerCount: 2
Fore
SplineSet
144 57 m 2,0,-1
 22 675 l 1,1,2
 57 691 57 691 93 691 c 128,-1,3
 129 691 129 691 145 675.5 c 128,-1,4
 161 660 161 660 168 618 c 2,5,-1
 220 320 l 2,6,7
 242 194 242 194 246 154.5 c 128,-1,8
 250 115 250 115 251.5 113.5 c 128,-1,9
 253 112 253 112 259 112 c 1,10,-1
 354 669 l 1,11,12
 392 676 392 676 442 676 c 128,-1,13
 492 676 492 676 527 669 c 1,14,-1
 614 124 l 2,15,16
 615.5 112 615.5 112 624 112 c 1,17,18
 634 197 634 197 657 322 c 2,19,-1
 723 683 l 1,20,21
 748 688 748 688 784 688 c 128,-1,22
 820 688 820 688 847 679 c 1,23,-1
 854 671 l 1,24,-1
 716 1 l 1,25,26
 670 -5 670 -5 617 -5 c 128,-1,27
 564 -5 564 -5 543.5 7 c 128,-1,28
 523 19 523 19 518 57 c 1,29,-1
 477 298 l 2,30,31
 454 437 454 437 443 537 c 1,32,-1
 435 537 l 1,33,34
 422 439 422 439 397 298 c 2,35,-1
 344 1 l 1,36,37
 296 -5 296 -5 245 -5 c 128,-1,38
 194 -5 194 -5 173 7 c 128,-1,39
 152 19 152 19 144 57 c 2,0,-1
EndSplineSet
Substitution2: "'c2sc' Capitals to Small Capitals lookup 3 subtable" w.smcp
Substitution2: "'aalt' Access All Alternates lookup 0 subtable" w.smcp
EndChar

StartChar: X
Encoding: 88 88 54
Width: 602
Flags: HMW
HStem: 642 20G<33 33>
VStem: 13 576<14 21>
LayerCount: 2
Fore
SplineSet
439 683 m 1,0,1
 461 688 461 688 497.5 688 c 0,2,3
 534 688 534 688 565 677 c 1,4,-1
 568 669 l 1,5,-1
 378 359 l 1,6,-1
 589 21 l 1,7,8
 546 -9 546 -9 498 -9 c 0,9,10
 450 -9 450 -9 415 45 c 1,11,-1
 291 244 l 1,12,-1
 145 0 l 1,13,14
 122 -5 122 -5 86 -5 c 0,15,16
 50 -5 50 -5 17 6 c 1,17,-1
 13 14 l 1,18,-1
 223 355 l 1,19,-1
 33 662 l 1,20,21
 76 692 76 692 123.5 692 c 0,22,23
 171 692 171 692 205 639 c 1,24,-1
 310 469 l 1,25,-1
 439 683 l 1,0,1
EndSplineSet
Substitution2: "'c2sc' Capitals to Small Capitals lookup 3 subtable" x.smcp
Substitution2: "'aalt' Access All Alternates lookup 0 subtable" x.smcp
EndChar

StartChar: Y
Encoding: 89 89 55
Width: 523
Flags: HMW
HStem: -5 696<72 272>
VStem: 195 134<0 213 0 217 0 217>
LayerCount: 2
Fore
SplineSet
316 485 m 2,0,-1
 395 683 l 1,1,2
 418 688 418 688 453 688 c 0,3,4
 488 688 488 688 516 679 c 1,5,-1
 521 671 l 1,6,-1
 329 213 l 1,7,-1
 329 0 l 1,8,9
 303 -5 303 -5 262 -5 c 128,-1,10
 221 -5 221 -5 195 0 c 1,11,-1
 195 217 l 1,12,-1
 3 667 l 1,13,14
 45 691 45 691 79 691 c 0,15,16
 113 691 113 691 129 678 c 128,-1,17
 145 665 145 665 157 635 c 2,18,-1
 220 481 l 1,19,20
 246 413 246 413 263 347 c 1,21,-1
 269 347 l 1,22,23
 285 405 285 405 316 485 c 2,0,-1
EndSplineSet
Substitution2: "'c2sc' Capitals to Small Capitals lookup 3 subtable" y.smcp
Substitution2: "'aalt' Access All Alternates lookup 0 subtable" y.smcp
EndChar

StartChar: Z
Encoding: 90 90 56
Width: 571
Flags: HMW
HStem: 0 113<325 404 404 429.5 325 439> 572 111<70 218 66 498>
VStem: 42 487<76 83 48 90.5>
LayerCount: 2
Fore
SplineSet
59 135 m 2,0,-1
 296 476 l 2,1,2
 332 527 332 527 376 577 c 1,3,-1
 373 580 l 1,4,5
 309 572 309 572 218 572 c 2,6,-1
 66 572 l 1,7,8
 61 592 61 592 61 620 c 0,9,10
 61 648 61 648 70 683 c 1,11,-1
 498 683 l 1,12,13
 517 618 517 618 517 595.5 c 0,14,15
 517 573 517 573 501 550 c 2,16,-1
 265 210 l 1,17,18
 226 156 226 156 186 110 c 1,19,-1
 189 107 l 1,20,21
 275 113 275 113 325 113 c 2,22,-1
 404 113 l 2,23,24
 474 113 474 113 519 134 c 1,25,26
 529 106 529 106 529 71.5 c 0,27,28
 529 37 529 37 505 18.5 c 128,-1,29
 481 0 481 0 439 0 c 2,30,-1
 58 0 l 1,31,32
 42 67 42 67 42 88 c 0,33,34
 42 109 42 109 59 135 c 2,0,-1
EndSplineSet
Substitution2: "'c2sc' Capitals to Small Capitals lookup 3 subtable" z.smcp
Substitution2: "'aalt' Access All Alternates lookup 0 subtable" z.smcp
EndChar

StartChar: ampersand
Encoding: 38 38 57
Width: 640
Flags: HMW
HStem: -14 103<247 268> 304 112<267.5 512 323 391 518 530.5 323 545 518 518> 592 105<275 324.5 221.5 332>
VStem: 45 137<156.5 222.5 156.5 226> 74 138<480.5 531 477 568.5> 390 129<135.5 156 156 242 242 243 135.5 250.5>
LayerCount: 2
Fore
SplineSet
518 304 m 1,0,-1
 519 243 l 1,1,-1
 519 156 l 2,2,3
 519 98 519 98 526 0 c 1,4,5
 500 -8 500 -8 465.5 -8 c 128,-1,6
 431 -8 431 -8 405 -1 c 1,7,-1
 396 41 l 1,8,9
 328 -14 328 -14 237.5 -14 c 128,-1,10
 147 -14 147 -14 96 41 c 128,-1,11
 45 96 45 96 45 171.5 c 128,-1,12
 45 247 45 247 82.5 297.5 c 128,-1,13
 120 348 120 348 174 365 c 1,14,15
 129 381 129 381 101.5 422 c 128,-1,16
 74 463 74 463 74 516 c 0,17,18
 74 596 74 596 132 646.5 c 128,-1,19
 190 697 190 697 292.5 697 c 128,-1,20
 395 697 395 697 486 665 c 1,21,22
 488 606 488 606 452 565 c 1,23,24
 371 592 371 592 316 592 c 128,-1,25
 261 592 261 592 236.5 568.5 c 128,-1,26
 212 545 212 545 212 506 c 0,27,28
 212 416 212 416 323 416 c 2,29,-1
 512 416 l 2,30,31
 573 416 573 416 613 433 c 1,32,33
 630 413 630 413 630 372 c 0,34,35
 630 304 630 304 545 304 c 2,36,-1
 518 304 l 1,0,-1
390 242 m 2,37,38
 390 281 390 281 391 304 c 1,39,-1
 312 304 l 2,40,41
 248 304 248 304 215 272.5 c 128,-1,42
 182 241 182 241 182 191 c 128,-1,43
 182 141 182 141 207 115 c 128,-1,44
 232 89 232 89 273 89 c 0,45,46
 341 89 341 89 390 132 c 1,47,-1
 390 242 l 2,37,38
EndSplineSet
Substitution2: "'c2sc' Capitals to Small Capitals lookup 3 subtable" ampersand.smcp
Substitution2: "'aalt' Access All Alternates lookup 0 subtable" ampersand.smcp
EndChar

StartChar: zero
Encoding: 48 48 58
Width: 530
Flags: HMW
HStem: -14 101<251 279 251 303> 561 101<251 279>
VStem: 38 135<272 376.5 272 382.5> 357 135<272 376.5>
LayerCount: 2
Fore
SplineSet
38 324 m 128,-1,1
 38 424 38 424 52.5 488.5 c 128,-1,2
 67 553 67 553 110 600 c 1,3,4
 170 662 170 662 265 662 c 128,-1,5
 360 662 360 662 420 600 c 1,6,7
 463 553 463 553 477.5 488.5 c 128,-1,8
 492 424 492 424 492 324 c 128,-1,9
 492 224 492 224 477.5 159 c 128,-1,10
 463 94 463 94 420 47 c 1,11,12
 359 -14 359 -14 265 -14 c 128,-1,13
 171 -14 171 -14 110 47 c 1,14,15
 67 94 67 94 52.5 159 c 128,-1,0
 38 224 38 224 38 324 c 128,-1,1
173 324 m 128,-1,17
 173 169 173 169 201 124 c 1,18,19
 220 87 220 87 265 87 c 128,-1,20
 310 87 310 87 329 124 c 1,21,22
 357 169 357 169 357 324 c 128,-1,23
 357 479 357 479 329 524 c 1,24,25
 310 561 310 561 265 561 c 128,-1,26
 220 561 220 561 201 524 c 1,27,16
 173 479 173 479 173 324 c 128,-1,17
EndSplineSet
Substitution2: "'c2sc' Capitals to Small Capitals lookup 3 subtable" zero.smcp
Substitution2: "'aalt' Access All Alternates lookup 0 subtable" zero.smcp
EndChar

StartChar: one
Encoding: 49 49 59
Width: 530
Flags: HMW
HStem: 0 108<84 171 171 177.5 421 482 84 171> 628 20G<358 358>
VStem: 230 128<178 355 355 368.5>
LayerCount: 2
Fore
SplineSet
231 107 m 1,0,-1
 230 178 l 1,1,-1
 230 355 l 2,2,3
 230 384 230 384 236 474 c 1,4,5
 180 409 180 409 98 374 c 1,6,7
 53 397 53 397 43 451 c 1,8,9
 184 539 184 539 235 648 c 1,10,11
 263 653 263 653 296 653 c 128,-1,12
 329 653 329 653 358 648 c 1,13,-1
 358 178 l 1,14,-1
 357 107 l 1,15,-1
 421 108 l 1,16,-1
 482 108 l 1,17,18
 488 84 488 84 488 55 c 128,-1,19
 488 26 488 26 482 0 c 1,20,-1
 84 0 l 1,21,22
 78 26 78 26 78 55 c 128,-1,23
 78 84 78 84 84 108 c 1,24,-1
 171 108 l 1,25,-1
 231 107 l 1,0,-1
EndSplineSet
Substitution2: "'sups' Superscript lookup 5 subtable" onesuperior
Substitution2: "'c2sc' Capitals to Small Capitals lookup 3 subtable" one.smcp
AlternateSubs2: "'aalt' Access All Alternates lookup 1 subtable" one.smcp onesuperior
EndChar

StartChar: two
Encoding: 50 50 60
Width: 530
Flags: HMW
HStem: -1 113<322 397> 484 20G 555 107<223 274>
VStem: 331 134<447 495>
LayerCount: 2
Fore
SplineSet
482 112 m 1,0,1
 482 86 482 86 479 62 c 1,2,3
 468 -1 468 -1 397 -1 c 2,4,-1
 93 -1 l 1,5,6
 45 47 45 47 45 80 c 0,7,8
 45 157 45 157 165 264 c 2,9,-1
 268 356 l 2,10,11
 331 411 331 411 331 470 c 0,12,13
 331 508 331 508 308.5 531.5 c 128,-1,14
 286 555 286 555 249 555 c 128,-1,15
 212 555 212 555 185.5 529 c 128,-1,16
 159 503 159 503 146 463 c 1,17,18
 119 464 119 464 91.5 475 c 128,-1,19
 64 486 64 486 52 504 c 1,20,21
 73 572 73 572 129 617 c 128,-1,22
 185 662 185 662 270 662 c 0,23,24
 355 662 355 662 410 608.5 c 128,-1,25
 465 555 465 555 465 467 c 0,26,27
 465 405 465 405 434 360 c 128,-1,28
 403 315 403 315 343 263 c 2,29,-1
 269 200 l 2,30,31
 195 137 195 137 179 103 c 1,32,33
 257 112 257 112 322 112 c 2,34,-1
 482 112 l 1,0,1
EndSplineSet
Substitution2: "'sups' Superscript lookup 5 subtable" twosuperior
Substitution2: "'c2sc' Capitals to Small Capitals lookup 3 subtable" two.smcp
AlternateSubs2: "'aalt' Access All Alternates lookup 1 subtable" two.smcp twosuperior
EndChar

StartChar: three
Encoding: 51 51 61
Width: 530
Flags: HMW
HStem: -14 106<206 266 206 309.5> 308 83 537 111<76 204 73 431>
VStem: 349 134<170 239>
LayerCount: 2
Fore
SplineSet
432 513 m 2,0,-1
 342 419 l 2,1,2
 324 401 324 401 309 391 c 1,3,4
 386 384 386 384 434.5 335.5 c 128,-1,5
 483 287 483 287 483 194 c 0,6,7
 483 101 483 101 414.5 43.5 c 128,-1,8
 346 -14 346 -14 249 -14 c 0,9,10
 122 -14 122 -14 42 55 c 1,11,12
 52 105 52 105 98 141 c 1,13,14
 163 92 163 92 223.5 92 c 0,15,16
 284 92 284 92 316.5 122.5 c 128,-1,17
 349 153 349 153 349 203.5 c 0,18,19
 349 254 349 254 321 281 c 128,-1,20
 293 308 293 308 254.5 308 c 0,21,22
 216 308 216 308 188 294 c 1,23,24
 171 301 171 301 157 321 c 128,-1,25
 143 341 143 341 138 364 c 1,26,-1
 246 479 l 1,27,28
 293 526 293 526 314 542 c 1,29,-1
 310 548 l 1,30,31
 274 537 274 537 204 537 c 2,32,-1
 73 537 l 1,33,34
 65 560 65 560 65 591 c 0,35,36
 65 622 65 622 76 648 c 1,37,-1
 431 648 l 1,38,39
 458 599 458 599 458 569.5 c 0,40,41
 458 540 458 540 432 513 c 2,0,-1
EndSplineSet
Substitution2: "'sups' Superscript lookup 5 subtable" threesuperior
Substitution2: "'c2sc' Capitals to Small Capitals lookup 3 subtable" three.smcp
AlternateSubs2: "'aalt' Access All Alternates lookup 1 subtable" three.smcp threesuperior
EndChar

StartChar: four
Encoding: 52 52 62
Width: 530
Flags: HMW
HStem: 124 110<58 281>
VStem: 281 127<0 63 0 74 286 297 297 314 314 345.5>
LayerCount: 2
Fore
SplineSet
407 126 m 1,0,-1
 408 63 l 1,1,-1
 408 0 l 1,2,3
 379 -5 379 -5 343.5 -5 c 128,-1,4
 308 -5 308 -5 281 0 c 1,5,-1
 281 63 l 1,6,-1
 282 126 l 1,7,-1
 218 124 l 1,8,-1
 58 124 l 1,9,10
 29 171 29 171 29 198 c 128,-1,11
 29 225 29 225 48 269 c 2,12,-1
 213 655 l 1,13,14
 241 661 241 661 279.5 653 c 128,-1,15
 318 645 318 645 333 629 c 1,16,-1
 243 418 l 1,17,18
 192 290 192 290 153 232 c 1,19,-1
 156 228 l 1,20,21
 214 234 214 234 280 234 c 2,22,-1
 281 234 l 1,23,-1
 281 314 l 2,24,25
 281 362 281 362 304.5 389.5 c 128,-1,26
 328 417 328 417 370 417 c 2,27,-1
 402 417 l 1,28,-1
 408 411 l 1,29,-1
 408 297 l 1,30,-1
 407 234 l 1,31,-1
 459 235 l 1,32,-1
 498 235 l 1,33,34
 502 214 502 214 502 185 c 128,-1,35
 502 156 502 156 493 126 c 1,36,-1
 407 126 l 1,0,-1
EndSplineSet
Substitution2: "'c2sc' Capitals to Small Capitals lookup 3 subtable" four.smcp
Substitution2: "'aalt' Access All Alternates lookup 0 subtable" four.smcp
EndChar

StartChar: five
Encoding: 53 53 63
Width: 530
Flags: HMW
HStem: -14 106<205 260.5 205 300> 331 101<257.5 261> 538 110<208 230 208 208 230 398>
VStem: 78 129 344 135<174 258>
LayerCount: 2
Fore
SplineSet
208 538 m 1,0,-1
 207 500 l 1,1,-1
 203 442 l 1,2,-1
 200 421 l 1,3,4
 235 432 235 432 270 432 c 0,5,6
 367 432 367 432 423 375 c 128,-1,7
 479 318 479 318 479 222 c 0,8,9
 479 108 479 108 408.5 47 c 128,-1,10
 338 -14 338 -14 240 -14 c 0,11,12
 121 -14 121 -14 46 53 c 1,13,14
 50 73 50 73 66 99 c 128,-1,15
 82 125 82 125 100 139 c 1,16,17
 167 92 167 92 223 92 c 128,-1,18
 279 92 279 92 311.5 124 c 128,-1,19
 344 156 344 156 344 215.5 c 128,-1,20
 344 275 344 275 312 303 c 128,-1,21
 280 331 280 331 230.5 331 c 128,-1,22
 181 331 181 331 135 294 c 1,23,24
 118 298 118 298 99 311 c 128,-1,25
 80 324 80 324 70 339 c 1,26,-1
 86 641 l 1,27,-1
 94 648 l 1,28,-1
 445 648 l 1,29,30
 454 624 454 624 454 594 c 0,31,32
 454 538 454 538 398 538 c 2,33,-1
 208 538 l 1,0,-1
EndSplineSet
Substitution2: "'c2sc' Capitals to Small Capitals lookup 3 subtable" five.smcp
Substitution2: "'aalt' Access All Alternates lookup 0 subtable" five.smcp
EndChar

StartChar: six
Encoding: 54 54 64
Width: 530
Flags: HMW
HStem: -14 98<258.5 303 258.5 332.5> 328 106<283.5 301.5> 559 103<269 336.5>
VStem: 41 136<240.5 272 272 285 240.5 427.5> 361 131<171.5 252.5>
LayerCount: 2
Fore
SplineSet
429 48.5 m 128,-1,1
 366 -14 366 -14 266 -14 c 128,-1,2
 166 -14 166 -14 108 56 c 1,3,4
 97 71 97 71 93.5 75.5 c 128,-1,5
 90 80 90 80 77.5 105.5 c 128,-1,6
 65 131 65 131 59 155.5 c 0,7,8
 41 229 41 229 41 323 c 0,9,10
 41 481 41 481 110.5 571.5 c 128,-1,11
 180 662 180 662 306 662 c 0,12,13
 398 662 398 662 461 629 c 1,14,15
 456 568 456 568 417 538 c 1,16,17
 367 559 367 559 316 559 c 0,18,19
 186 559 186 559 177 386 c 1,20,21
 237 434 237 434 316 434 c 128,-1,22
 395 434 395 434 443.5 380 c 128,-1,23
 492 326 492 326 492 218.5 c 128,-1,0
 492 111 492 111 429 48.5 c 128,-1,1
177 272 m 2,24,25
 177 84 177 84 273 84 c 0,26,27
 317 84 317 84 339 117.5 c 128,-1,28
 361 151 361 151 361 208 c 0,29,30
 361 328 361 328 276 328 c 0,31,32
 225 328 225 328 177 285 c 1,33,-1
 177 272 l 2,24,25
EndSplineSet
Substitution2: "'c2sc' Capitals to Small Capitals lookup 3 subtable" six.smcp
Substitution2: "'aalt' Access All Alternates lookup 0 subtable" six.smcp
EndChar

StartChar: seven
Encoding: 55 55 65
Width: 530
Flags: HMW
HStem: 537 111<64 219 58 467> 548 100<364 364>
VStem: 143 133
LayerCount: 2
Fore
SplineSet
64 648 m 1,0,-1
 467 648 l 1,1,2
 491 596 491 596 491 570 c 0,3,4
 491 544 491 544 472 517 c 2,5,-1
 436 465 l 2,6,7
 366 365 366 365 328 265 c 128,-1,8
 290 165 290 165 278 41 c 1,9,-1
 275 0 l 1,10,11
 254 -5 254 -5 210 -5 c 0,12,13
 166 -5 166 -5 141 0 c 1,14,-1
 145 45 l 2,15,16
 166 276 166 276 296 456 c 1,17,-1
 308 472 l 1,18,19
 338 515 338 515 368 543 c 1,20,-1
 364 548 l 1,21,22
 321 537 321 537 219 537 c 2,23,-1
 58 537 l 1,24,25
 52 556 52 556 52 588 c 0,26,27
 52 620 52 620 64 648 c 1,0,-1
EndSplineSet
Substitution2: "'c2sc' Capitals to Small Capitals lookup 3 subtable" seven.smcp
Substitution2: "'aalt' Access All Alternates lookup 0 subtable" seven.smcp
EndChar

StartChar: eight
Encoding: 56 56 66
Width: 530
Flags: HMW
HStem: -14 92<235.5 293 235.5 324> 568 94<240 289>
VStem: 35 132<144 194.5 144 201.5> 51 129<465 512 465 537.5> 350 127<466.5 510.5> 361 134<171 199.5>
LayerCount: 2
Fore
SplineSet
35 164 m 0,0,1
 35 217 35 217 66.5 261.5 c 128,-1,2
 98 306 98 306 147 334 c 1,3,4
 51 392 51 392 51 488 c 0,5,6
 51 562 51 562 112 612 c 128,-1,7
 173 662 173 662 266.5 662 c 0,8,9
 360 662 360 662 418.5 614.5 c 128,-1,10
 477 567 477 567 477 491 c 0,11,12
 477 402 477 402 382 349 c 1,13,14
 495 286 495 286 495 171 c 1,15,16
 494 86 494 86 427 36 c 128,-1,17
 360 -14 360 -14 258.5 -14 c 0,18,19
 157 -14 157 -14 96 33.5 c 128,-1,20
 35 81 35 81 35 164 c 0,0,1
236 294 m 1,21,-1
 235 294 l 1,22,23
 167 246 167 246 167 173 c 0,24,25
 167 130 167 130 194 104 c 128,-1,26
 221 78 221 78 264 78 c 128,-1,27
 307 78 307 78 334 104.5 c 128,-1,28
 361 131 361 131 361 172 c 0,29,30
 361 250 361 250 258 286 c 1,31,-1
 236 294 l 1,21,-1
180 489 m 0,32,33
 180 424 180 424 279 393 c 1,34,-1
 292 388 l 1,35,36
 350 426 350 426 350 486 c 0,37,38
 350 523 350 523 326 545.5 c 128,-1,39
 302 568 302 568 265 568 c 0,40,41
 228 568 228 568 204 545.5 c 128,-1,42
 180 523 180 523 180 489 c 0,32,33
EndSplineSet
Substitution2: "'c2sc' Capitals to Small Capitals lookup 3 subtable" eight.smcp
Substitution2: "'aalt' Access All Alternates lookup 0 subtable" eight.smcp
EndChar

StartChar: nine
Encoding: 57 57 67
Width: 530
Flags: HMW
HStem: -14 103<193.5 261 193.5 309> 214 106<228.5 246> 564 98<227 271.5>
VStem: 38 131<395.5 476.5 395.5 503.5> 353 136<362 376 376 407.5>
LayerCount: 2
Fore
SplineSet
101 599.5 m 128,-1,1
 164 662 164 662 264 662 c 128,-1,2
 364 662 364 662 422 592 c 1,3,4
 433 577 433 577 436.5 572.5 c 128,-1,5
 440 568 440 568 452.5 542.5 c 128,-1,6
 465 517 465 517 471 492.5 c 0,7,8
 489 419 489 419 489 325 c 0,9,10
 489 167 489 167 419.5 76.5 c 128,-1,11
 350 -14 350 -14 224 -14 c 0,12,13
 132 -14 132 -14 69 19 c 1,14,15
 74 80 74 80 113 110 c 1,16,17
 163 89 163 89 214 89 c 0,18,19
 281 89 281 89 315 135.5 c 128,-1,20
 349 182 349 182 352 262 c 1,21,22
 294 214 294 214 214.5 214 c 128,-1,23
 135 214 135 214 86.5 268 c 128,-1,24
 38 322 38 322 38 429.5 c 128,-1,0
 38 537 38 537 101 599.5 c 128,-1,1
254 320 m 0,25,26
 306 320 306 320 353 362 c 1,27,-1
 353 376 l 2,28,29
 353 490 353 490 319 532 c 0,30,31
 294 564 294 564 253.5 564 c 128,-1,32
 213 564 213 564 191 530.5 c 128,-1,33
 169 497 169 497 169 440 c 0,34,35
 169 320 169 320 254 320 c 0,25,26
EndSplineSet
Substitution2: "'c2sc' Capitals to Small Capitals lookup 3 subtable" nine.smcp
Substitution2: "'aalt' Access All Alternates lookup 0 subtable" nine.smcp
EndChar

StartChar: period
Encoding: 46 46 68
Width: 275
Flags: HMW
HStem: 6 111<67 67 208 208>
VStem: 57 151
LayerCount: 2
Fore
SplineSet
67 6 m 1,0,1
 57 27 57 27 57 61.5 c 128,-1,2
 57 96 57 96 67 117 c 1,3,4
 97 133 97 133 137.5 133 c 128,-1,5
 178 133 178 133 208 117 c 1,6,7
 218 96 218 96 218 61.5 c 128,-1,8
 218 27 218 27 208 6 c 1,9,10
 182 -10 182 -10 138 -10 c 128,-1,11
 94 -10 94 -10 67 6 c 1,0,1
EndSplineSet
EndChar

StartChar: periodcentered
Encoding: 183 183 69
Width: 318
Flags: HMW
HStem: 230 111<92 92 225 225>
VStem: 83 142
LayerCount: 2
Fore
SplineSet
92 230 m 1,0,1
 83 249 83 249 83 285.5 c 128,-1,2
 83 322 83 322 92 341 c 1,3,4
 120 357 120 357 158.5 357 c 128,-1,5
 197 357 197 357 225 341 c 1,6,7
 234 318 234 318 234 285 c 128,-1,8
 234 252 234 252 225 230 c 1,9,10
 199 214 199 214 158.5 214 c 128,-1,11
 118 214 118 214 92 230 c 1,0,1
EndSplineSet
EndChar

StartChar: bullet
Encoding: 8226 8226 70
Width: 455
Flags: HMW
HStem: 177 186<118 118 340 340>
VStem: 102 238
LayerCount: 2
Fore
SplineSet
118 177 m 1,0,1
 102 213 102 213 102 270 c 128,-1,2
 102 327 102 327 118 363 c 1,3,4
 167 390 167 390 229 390 c 128,-1,5
 291 390 291 390 340 363 c 1,6,7
 355 329 355 329 355 270 c 128,-1,8
 355 211 355 211 340 177 c 1,9,10
 299 150 299 150 230 150 c 128,-1,11
 161 150 161 150 118 177 c 1,0,1
EndSplineSet
EndChar

StartChar: comma
Encoding: 44 44 71
Width: 283
Flags: HMW
HStem: -8 124
VStem: 74 149
LayerCount: 2
Fore
SplineSet
211 116 m 1,0,1
 223 87 223 87 223 43 c 0,2,3
 223 -27 223 -27 180.5 -86.5 c 128,-1,4
 138 -146 138 -146 60 -171 c 1,5,6
 43 -163 43 -163 34 -145 c 128,-1,7
 25 -127 25 -127 27 -109 c 1,8,9
 63 -95 63 -95 87.5 -68.5 c 128,-1,10
 112 -42 112 -42 116 -8 c 1,11,12
 86 -4 86 -4 74 7 c 1,13,14
 63 25 63 25 63 62 c 0,15,16
 63 99 63 99 74 116 c 1,17,18
 101 132 101 132 145 132 c 0,19,20
 189 132 189 132 211 116 c 1,0,1
EndSplineSet
EndChar

StartChar: colon
Encoding: 58 58 72
Width: 282
Flags: HMW
HStem: 6 111<70 70 211 211> 325 111<70 70 211 211>
VStem: 60 151
LayerCount: 2
Fore
SplineSet
70 6 m 1,0,1
 60 27 60 27 60 61.5 c 128,-1,2
 60 96 60 96 70 117 c 1,3,4
 100 133 100 133 140.5 133 c 128,-1,5
 181 133 181 133 211 117 c 1,6,7
 221 96 221 96 221 61.5 c 128,-1,8
 221 27 221 27 211 6 c 1,9,10
 185 -10 185 -10 141 -10 c 128,-1,11
 97 -10 97 -10 70 6 c 1,0,1
70 325 m 1,12,13
 60 346 60 346 60 380.5 c 128,-1,14
 60 415 60 415 70 436 c 1,15,16
 100 452 100 452 140.5 452 c 128,-1,17
 181 452 181 452 211 436 c 1,18,19
 221 415 221 415 221 380.5 c 128,-1,20
 221 346 221 346 211 325 c 1,21,22
 185 309 185 309 141 309 c 128,-1,23
 97 309 97 309 70 325 c 1,12,13
EndSplineSet
EndChar

StartChar: semicolon
Encoding: 59 59 73
Width: 286
Flags: HMW
HStem: -8 124 325 111<72 72 213 213>
VStem: 62 151 73 149
LayerCount: 2
Fore
SplineSet
210 116 m 1,0,1
 222 87 222 87 222 43 c 0,2,3
 222 -27 222 -27 179.5 -86.5 c 128,-1,4
 137 -146 137 -146 59 -171 c 1,5,6
 42 -163 42 -163 33 -145 c 128,-1,7
 24 -127 24 -127 26 -109 c 1,8,9
 62 -95 62 -95 86.5 -68.5 c 128,-1,10
 111 -42 111 -42 115 -8 c 1,11,12
 85 -4 85 -4 73 7 c 1,13,14
 62 25 62 25 62 62 c 128,-1,15
 62 99 62 99 73 116 c 1,16,17
 100 132 100 132 144 132 c 128,-1,18
 188 132 188 132 210 116 c 1,0,1
72 325 m 1,19,20
 62 346 62 346 62 380.5 c 128,-1,21
 62 415 62 415 72 436 c 1,22,23
 102 452 102 452 142.5 452 c 128,-1,24
 183 452 183 452 213 436 c 1,25,26
 223 415 223 415 223 380.5 c 128,-1,27
 223 346 223 346 213 325 c 1,28,29
 187 309 187 309 143 309 c 128,-1,30
 99 309 99 309 72 325 c 1,19,20
EndSplineSet
EndChar

StartChar: exclam
Encoding: 33 33 74
Width: 298
Flags: HMW
HStem: 4 121 681 10<189 226>
VStem: 80 132<4 4 110 110>
LayerCount: 2
Fore
SplineSet
96 202 m 1,0,-1
 79 654 l 1,1,2
 129 691 129 691 218 691 c 1,3,-1
 226 681 l 1,4,-1
 196 202 l 1,5,6
 176 196 176 196 145.5 196 c 128,-1,7
 115 196 115 196 96 202 c 1,0,-1
80 110 m 1,8,9
 108 125 108 125 146.5 125 c 128,-1,10
 185 125 185 125 212 110 c 1,11,12
 222 92 222 92 222 57 c 128,-1,13
 222 22 222 22 212 4 c 1,14,15
 187 -10 187 -10 146.5 -10 c 128,-1,16
 106 -10 106 -10 80 4 c 1,17,18
 71 21 71 21 71 57.5 c 128,-1,19
 71 94 71 94 80 110 c 1,8,9
EndSplineSet
EndChar

StartChar: exclamdown
Encoding: 161 161 75
Width: 298
Flags: HMW
HStem: -195 9<72 109> 371 121
VStem: 87 131<386 386 492 492>
LayerCount: 2
Fore
SplineSet
202 294 m 1,0,-1
 219 -159 l 1,1,2
 169 -195 169 -195 80 -195 c 1,3,-1
 72 -186 l 1,4,-1
 102 294 l 1,5,6
 122 300 122 300 152.5 300 c 128,-1,7
 183 300 183 300 202 294 c 1,0,-1
218 386 m 1,8,9
 194 371 194 371 152.5 371 c 128,-1,10
 111 371 111 371 87 386 c 1,11,12
 77 400 77 400 77 438 c 128,-1,13
 77 476 77 476 87 492 c 1,14,15
 112 506 112 506 152.5 506 c 128,-1,16
 193 506 193 506 218 492 c 1,17,18
 228 474 228 474 228 438.5 c 128,-1,19
 228 403 228 403 218 386 c 1,8,9
EndSplineSet
EndChar

StartChar: question
Encoding: 63 63 76
Width: 409
Flags: HMW
HStem: 2 121 584 113<167 203.5>
VStem: 86 131<2 2 108 108> 97 107 263 138<481 530>
LayerCount: 2
Fore
SplineSet
6 643 m 1,0,1
 102 697 102 697 199.5 697 c 128,-1,2
 297 697 297 697 349 649 c 128,-1,3
 401 601 401 601 401 521 c 0,4,5
 401 395 401 395 271 324 c 1,6,-1
 209 291 l 1,7,-1
 200 203 l 1,8,9
 179 196 179 196 151 196 c 128,-1,10
 123 196 123 196 101 203 c 1,11,-1
 94 352 l 1,12,-1
 104 365 l 1,13,-1
 156 390 l 2,14,15
 263 441 263 441 263 507 c 0,16,17
 263 542 263 542 240 563 c 128,-1,18
 217 584 217 584 171 584 c 128,-1,19
 125 584 125 584 53 548 c 1,20,21
 35 562 35 562 21 590 c 128,-1,22
 7 618 7 618 6 643 c 1,0,1
86 108 m 1,23,24
 110 123 110 123 151.5 123 c 128,-1,25
 193 123 193 123 217 108 c 1,26,27
 227 92 227 92 227 55 c 128,-1,28
 227 18 227 18 217 2 c 1,29,30
 192 -12 192 -12 151.5 -12 c 128,-1,31
 111 -12 111 -12 86 2 c 1,32,33
 76 20 76 20 76 55 c 128,-1,34
 76 90 76 90 86 108 c 1,23,24
EndSplineSet
EndChar

StartChar: questiondown
Encoding: 191 191 77
Width: 409
Flags: HMW
HStem: -203 113<210.5 246.5> 371 121
VStem: 13 137<-36 12.5 -36 21.5> 197 131<386 386 492 492> 209 107
LayerCount: 2
Fore
SplineSet
408 -149 m 1,0,1
 312 -203 312 -203 214.5 -203 c 128,-1,2
 117 -203 117 -203 65 -155 c 128,-1,3
 13 -107 13 -107 13 -27 c 0,4,5
 13 99 13 99 143 169 c 1,6,-1
 205 203 l 1,7,-1
 214 291 l 1,8,9
 235 298 235 298 263 298 c 128,-1,10
 291 298 291 298 313 291 c 1,11,-1
 320 142 l 1,12,-1
 309 129 l 1,13,-1
 257 104 l 1,14,15
 206 78 206 78 178 50.5 c 128,-1,16
 150 23 150 23 150 -12.5 c 128,-1,17
 150 -48 150 -48 173.5 -69 c 128,-1,18
 197 -90 197 -90 245 -90 c 128,-1,19
 293 -90 293 -90 360 -54 c 1,20,21
 378 -68 378 -68 392.5 -96 c 128,-1,22
 407 -124 407 -124 408 -149 c 1,0,1
328 386 m 1,23,24
 302 371 302 371 260.5 371 c 128,-1,25
 219 371 219 371 197 386 c 1,26,27
 186 402 186 402 186 438.5 c 128,-1,28
 186 475 186 475 197 492 c 1,29,30
 220 506 220 506 261 506 c 128,-1,31
 302 506 302 506 328 492 c 1,32,33
 337 475 337 475 337 438 c 128,-1,34
 337 401 337 401 328 386 c 1,23,24
EndSplineSet
EndChar

StartChar: quoteleft
Encoding: 8216 8216 78
Width: 249
Flags: HMW
HStem: 511 123
VStem: 40 150
LayerCount: 2
Fore
SplineSet
52 511 m 1,0,1
 40 544 40 544 40 584 c 0,2,3
 40 652 40 652 79 704.5 c 128,-1,4
 118 757 118 757 193 780 c 1,5,6
 210 772 210 772 218 754.5 c 128,-1,7
 226 737 226 737 224 719 c 1,8,9
 149 688 149 688 146 634 c 1,10,11
 182 627 182 627 190 620 c 1,12,13
 201 602 201 602 201 566.5 c 0,14,15
 201 531 201 531 190 511 c 1,16,17
 163 495 163 495 119.5 495 c 0,18,19
 76 495 76 495 52 511 c 1,0,1
EndSplineSet
EndChar

StartChar: quoteright
Encoding: 8217 8217 79
Width: 249
Flags: HMW
HStem: 536 20G 641 123
VStem: 59 149
LayerCount: 2
Fore
SplineSet
196 764 m 1,0,1
 208 733 208 733 208 691 c 0,2,3
 208 623 208 623 169 570 c 128,-1,4
 130 517 130 517 55 494 c 1,5,6
 39 502 39 502 30.5 519.5 c 128,-1,7
 22 537 22 537 24 556 c 1,8,9
 54 567 54 567 78 589.5 c 128,-1,10
 102 612 102 612 103 641 c 1,11,12
 70 645 70 645 59 654 c 1,13,14
 48 674 48 674 48 710.5 c 0,15,16
 48 747 48 747 59 764 c 1,17,18
 89 780 89 780 130 780 c 0,19,20
 171 780 171 780 196 764 c 1,0,1
EndSplineSet
EndChar

StartChar: quotedblleft
Encoding: 8220 8220 80
Width: 464
Flags: HMW
HStem: 511 123
VStem: 38 150 253 150
LayerCount: 2
Fore
SplineSet
50 511 m 1,0,1
 38 544 38 544 38 584 c 0,2,3
 38 652 38 652 77 704.5 c 128,-1,4
 116 757 116 757 191 780 c 1,5,6
 208 772 208 772 216 754.5 c 128,-1,7
 224 737 224 737 222 719 c 1,8,9
 147 688 147 688 144 634 c 1,10,11
 180 627 180 627 188 620 c 1,12,13
 199 602 199 602 199 566.5 c 0,14,15
 199 531 199 531 188 511 c 1,16,17
 161 495 161 495 117.5 495 c 0,18,19
 74 495 74 495 50 511 c 1,0,1
265 511 m 1,20,21
 253 544 253 544 253 584 c 0,22,23
 253 652 253 652 292 704.5 c 128,-1,24
 331 757 331 757 406 780 c 1,25,26
 423 772 423 772 431 754.5 c 128,-1,27
 439 737 439 737 437 719 c 1,28,29
 362 688 362 688 359 634 c 1,30,31
 395 627 395 627 403 620 c 1,32,33
 414 602 414 602 414 566.5 c 0,34,35
 414 531 414 531 403 511 c 1,36,37
 376 495 376 495 332.5 495 c 0,38,39
 289 495 289 495 265 511 c 1,20,21
EndSplineSet
EndChar

StartChar: quotedblright
Encoding: 8221 8221 81
Width: 464
Flags: HMW
HStem: 536 20G 641 123
VStem: 62 149 278 149
LayerCount: 2
Fore
SplineSet
199 764 m 1,0,1
 211 733 211 733 211 691 c 0,2,3
 211 623 211 623 172 570 c 128,-1,4
 133 517 133 517 58 494 c 1,5,6
 42 502 42 502 33.5 519.5 c 128,-1,7
 25 537 25 537 27 556 c 1,8,9
 57 567 57 567 81 589.5 c 128,-1,10
 105 612 105 612 106 641 c 1,11,12
 73 645 73 645 62 654 c 1,13,14
 51 674 51 674 51 710.5 c 0,15,16
 51 747 51 747 62 764 c 1,17,18
 92 780 92 780 133 780 c 0,19,20
 174 780 174 780 199 764 c 1,0,1
415 764 m 1,21,22
 427 733 427 733 427 691 c 0,23,24
 427 623 427 623 388 570 c 128,-1,25
 349 517 349 517 274 494 c 1,26,27
 258 502 258 502 249.5 519.5 c 128,-1,28
 241 537 241 537 243 556 c 1,29,30
 273 567 273 567 297 589.5 c 128,-1,31
 321 612 321 612 322 641 c 1,32,33
 289 645 289 645 278 654 c 1,34,35
 267 674 267 674 267 710.5 c 0,36,37
 267 747 267 747 278 764 c 1,38,39
 308 780 308 780 349 780 c 0,40,41
 390 780 390 780 415 764 c 1,21,22
EndSplineSet
EndChar

StartChar: quotesingle
Encoding: 39 39 82
Width: 227
Flags: HMW
HStem: 493 272 493 287
VStem: 42 134<701.5 720.5>
LayerCount: 2
Fore
SplineSet
42 721.25 m 128,-1,1
 42 739.5 42 739.5 48 765 c 1,2,3
 74 780 74 780 109.5 780 c 128,-1,4
 145 780 145 780 169 765 c 1,5,6
 176 735 176 735 176 719 c 128,-1,7
 176 703 176 703 170 672 c 0,8,9
 151.010989011 573.89010989 151.010989011 573.89010989 142 500 c 1,10,11
 131 493 131 493 109 493 c 128,-1,12
 87 493 87 493 76 500 c 1,13,14
 67.5463917526 571.010309278 67.5463917526 571.010309278 54.7731958763 637.005154639 c 128,-1,0
 42 703 42 703 42 721.25 c 128,-1,1
EndSplineSet
EndChar

StartChar: quotesinglbase
Encoding: 8218 8218 83
Width: 249
Flags: HMW
HStem: -9 123
VStem: 60 149
LayerCount: 2
Fore
SplineSet
197 114 m 1,0,1
 209 85 209 85 209 41 c 0,2,3
 209 -27 209 -27 170 -79.5 c 128,-1,4
 131 -132 131 -132 56 -156 c 1,5,6
 40 -148 40 -148 31.5 -130.5 c 128,-1,7
 23 -113 23 -113 25 -94 c 1,8,9
 55 -83 55 -83 78.5 -60.5 c 128,-1,10
 102 -38 102 -38 103 -9 c 1,11,12
 71 -4 71 -4 60 4 c 1,13,14
 49 24 49 24 49 60.5 c 0,15,16
 49 97 49 97 60 114 c 1,17,18
 90 130 90 130 131 130 c 0,19,20
 172 130 172 130 197 114 c 1,0,1
EndSplineSet
EndChar

StartChar: quotedbl
Encoding: 34 34 84
Width: 421
Flags: HMW
HStem: 493 272 493 287
VStem: 44 134<701.5 720.5> 244 134<701.5 720.5>
LayerCount: 2
Fore
SplineSet
244 721.25 m 128,-1,1
 244 739.5 244 739.5 250 765 c 1,2,3
 275 780 275 780 311 780 c 128,-1,4
 347 780 347 780 371 765 c 1,5,6
 378 735 378 735 378 719 c 128,-1,7
 378 703 378 703 372 672 c 0,8,9
 353.010989011 573.89010989 353.010989011 573.89010989 344 500 c 1,10,11
 333 493 333 493 311 493 c 128,-1,12
 289 493 289 493 278 500 c 1,13,14
 269.546391753 571.010309278 269.546391753 571.010309278 256.773195876 637.005154639 c 128,-1,0
 244 703 244 703 244 721.25 c 128,-1,1
44 721.25 m 128,-1,16
 44 739.5 44 739.5 50 765 c 1,17,18
 75 780 75 780 111 780 c 128,-1,19
 147 780 147 780 171 765 c 1,20,21
 178 735 178 735 178 719 c 128,-1,22
 178 703 178 703 172 672 c 0,23,24
 153.010989011 573.89010989 153.010989011 573.89010989 144 500 c 1,25,26
 133 493 133 493 111 493 c 128,-1,27
 89 493 89 493 78 500 c 1,28,29
 69.5463917526 571.010309278 69.5463917526 571.010309278 56.7731958763 637.005154639 c 128,-1,15
 44 703 44 703 44 721.25 c 128,-1,16
EndSplineSet
EndChar

StartChar: quotedblbase
Encoding: 8222 8222 85
Width: 465
Flags: HMW
HStem: -9 123
VStem: 60 149 275 149
LayerCount: 2
Fore
SplineSet
197 114 m 1,0,1
 209 85 209 85 209 41 c 0,2,3
 209 -27 209 -27 170 -79.5 c 128,-1,4
 131 -132 131 -132 56 -156 c 1,5,6
 40 -148 40 -148 31.5 -130.5 c 128,-1,7
 23 -113 23 -113 25 -94 c 1,8,9
 55 -83 55 -83 78.5 -60.5 c 128,-1,10
 102 -38 102 -38 103 -9 c 1,11,12
 71 -4 71 -4 60 4 c 1,13,14
 49 24 49 24 49 60.5 c 0,15,16
 49 97 49 97 60 114 c 1,17,18
 90 130 90 130 131 130 c 0,19,20
 172 130 172 130 197 114 c 1,0,1
412 114 m 1,21,22
 424 85 424 85 424 41 c 0,23,24
 424 -27 424 -27 385 -79.5 c 128,-1,25
 346 -132 346 -132 271 -156 c 1,26,27
 255 -148 255 -148 246.5 -130.5 c 128,-1,28
 238 -113 238 -113 240 -94 c 1,29,30
 270 -83 270 -83 293.5 -60.5 c 128,-1,31
 317 -38 317 -38 318 -9 c 1,32,33
 286 -4 286 -4 275 4 c 1,34,35
 264 24 264 24 264 60.5 c 0,36,37
 264 97 264 97 275 114 c 1,38,39
 305 130 305 130 346 130 c 0,40,41
 387 130 387 130 412 114 c 1,21,22
EndSplineSet
EndChar

StartChar: guilsinglleft
Encoding: 8249 8249 86
Width: 341
Flags: HMW
HStem: 31 450<232 234>
VStem: 27 280
LayerCount: 2
Fore
SplineSet
303 413 m 1,0,-1
 172 257 l 1,1,-1
 307 98 l 1,2,3
 300 77 300 77 278 57 c 128,-1,4
 256 37 256 37 234 31 c 1,5,-1
 34 216 l 1,6,7
 27 232 27 232 27 255 c 128,-1,8
 27 278 27 278 34 294 c 1,9,-1
 232 481 l 1,10,11
 253 475 253 475 274.5 454.5 c 128,-1,12
 296 434 296 434 303 413 c 1,0,-1
EndSplineSet
EndChar

StartChar: guilsinglright
Encoding: 8250 8250 87
Width: 341
Flags: HMW
HStem: 31 450<106 109>
VStem: 33 280
LayerCount: 2
Fore
SplineSet
38 99 m 1,0,-1
 168 255 l 1,1,-1
 33 414 l 1,2,3
 40 435 40 435 62 455 c 128,-1,4
 84 475 84 475 106 481 c 1,5,-1
 307 295 l 1,6,7
 313 280 313 280 313 257 c 128,-1,8
 313 234 313 234 307 218 c 1,9,-1
 109 31 l 1,10,11
 87 37 87 37 66 57.5 c 128,-1,12
 45 78 45 78 38 99 c 1,0,-1
EndSplineSet
EndChar

StartChar: guillemotleft
Encoding: 171 171 88
Width: 589
Flags: HMW
HStem: 31 450<232 234 232 482>
VStem: 27 280 275 280
LayerCount: 2
Fore
SplineSet
551 413 m 1,0,-1
 420 257 l 1,1,-1
 555 98 l 1,2,3
 548 77 548 77 526 57 c 128,-1,4
 504 37 504 37 482 31 c 1,5,-1
 282 216 l 1,6,7
 275 232 275 232 275 255 c 128,-1,8
 275 278 275 278 282 294 c 1,9,-1
 480 481 l 1,10,11
 501 475 501 475 522.5 454.5 c 128,-1,12
 544 434 544 434 551 413 c 1,0,-1
303 413 m 1,13,-1
 172 257 l 1,14,-1
 307 98 l 1,15,16
 300 77 300 77 278 57 c 128,-1,17
 256 37 256 37 234 31 c 1,18,-1
 34 216 l 1,19,20
 27 232 27 232 27 255 c 128,-1,21
 27 278 27 278 34 294 c 1,22,-1
 232 481 l 1,23,24
 253 475 253 475 274.5 454.5 c 128,-1,25
 296 434 296 434 303 413 c 1,13,-1
EndSplineSet
EndChar

StartChar: guillemotright
Encoding: 187 187 89
Width: 589
Flags: HMW
HStem: 31 450<106 109 106 357>
VStem: 33 280 281 280
LayerCount: 2
Fore
SplineSet
38 99 m 1,0,-1
 168 255 l 1,1,-1
 33 414 l 1,2,3
 40 435 40 435 62 455 c 128,-1,4
 84 475 84 475 106 481 c 1,5,-1
 307 295 l 1,6,7
 313 280 313 280 313 257 c 128,-1,8
 313 234 313 234 307 218 c 1,9,-1
 109 31 l 1,10,11
 87 37 87 37 66 57.5 c 128,-1,12
 45 78 45 78 38 99 c 1,0,-1
286 99 m 1,13,-1
 416 255 l 1,14,-1
 281 414 l 1,15,16
 288 435 288 435 310 455 c 128,-1,17
 332 475 332 475 354 481 c 1,18,-1
 555 295 l 1,19,20
 561 280 561 280 561 257 c 128,-1,21
 561 234 561 234 555 218 c 1,22,-1
 357 31 l 1,23,24
 335 37 335 37 314 57.5 c 128,-1,25
 293 78 293 78 286 99 c 1,13,-1
EndSplineSet
EndChar

StartChar: onesuperior
Encoding: 185 185 90
Width: 420
Flags: HMW
HStem: 329 95<77 178 285 367 77 178>
VStem: 178 107<424 544 544 552>
LayerCount: 2
Fore
SplineSet
46 624 m 1,0,1
 100 657 100 657 130.5 689 c 128,-1,2
 161 721 161 721 182 767 c 1,3,4
 206 772 206 772 232.5 772 c 0,5,6
 259 772 259 772 285 767 c 1,7,-1
 285 424 l 1,8,-1
 367 424 l 1,9,10
 372 405 372 405 372 376.5 c 0,11,12
 372 348 372 348 367 329 c 1,13,-1
 77 329 l 1,14,15
 73 350 73 350 73 377 c 0,16,17
 73 404 73 404 77 424 c 1,18,-1
 178 424 l 1,19,-1
 178 544 l 2,20,21
 178 561 178 561 182 619 c 1,22,23
 156 585 156 585 95 557 c 1,24,25
 56 576 56 576 46 624 c 1,0,1
EndSplineSet
EndChar

StartChar: twosuperior
Encoding: 178 178 91
Width: 420
Flags: HMW
HStem: 327 98<259 296> 643 20G 677 98<176 203>
VStem: 234 116<621.5 645.5>
LayerCount: 2
Fore
SplineSet
362 425 m 1,0,1
 362 404 362 404 360 378 c 1,2,3
 351 327 351 327 296 327 c 2,4,-1
 82 327 l 1,5,6
 46 373 46 373 46 394 c 0,7,8
 46 447 46 447 117 504 c 1,9,-1
 199 572 l 2,10,11
 234 601 234 601 234 633 c 0,12,13
 234 652 234 652 221.5 664.5 c 128,-1,14
 209 677 209 677 190 677 c 0,15,16
 151 677 151 677 134 626 c 1,17,18
 113 627 113 627 87 638 c 128,-1,19
 61 649 61 649 52 663 c 1,20,21
 64 711 64 711 104 743 c 128,-1,22
 144 775 144 775 205.5 775 c 0,23,24
 267 775 267 775 308.5 736.5 c 128,-1,25
 350 698 350 698 350 646.5 c 0,26,27
 350 595 350 595 329.5 562 c 128,-1,28
 309 529 309 529 268 498 c 2,29,-1
 212 455 l 2,30,31
 164 419 164 419 161 415 c 1,32,33
 212 425 212 425 259 425 c 2,34,-1
 362 425 l 1,0,1
EndSplineSet
EndChar

StartChar: threesuperior
Encoding: 179 179 92
Width: 420
Flags: HMW
HStem: 324 88<161 195.5 158.5 234> 529 65 677 91<69 139 66 319>
VStem: 243 114<452 486.5>
LayerCount: 2
Fore
SplineSet
318 659 m 1,0,-1
 266 613 l 2,1,2
 259 606 259 606 239 594 c 1,3,4
 290 591 290 591 323.5 555.5 c 128,-1,5
 357 520 357 520 357 460.5 c 0,6,7
 357 401 357 401 308 362.5 c 128,-1,8
 259 324 259 324 192 324 c 0,9,10
 102 324 102 324 44 370 c 1,11,12
 52 412 52 412 88 443 c 1,13,14
 135 412 135 412 170.5 412 c 0,15,16
 206 412 206 412 224.5 427.5 c 128,-1,17
 243 443 243 443 243 469.5 c 0,18,19
 243 496 243 496 227.5 512.5 c 128,-1,20
 212 529 212 529 190.5 529 c 0,21,22
 169 529 169 529 150 522 c 1,23,24
 137 527 137 527 123.5 545 c 128,-1,25
 110 563 110 563 106 580 c 1,26,-1
 178 647 l 2,27,28
 196 664 196 664 221 679 c 1,29,-1
 218 683 l 1,30,31
 191 677 191 677 139 677 c 2,32,-1
 66 677 l 1,33,34
 60 696 60 696 60 723 c 0,35,36
 60 750 60 750 69 768 c 1,37,-1
 319 768 l 1,38,39
 341 729 341 729 341 703.5 c 0,40,41
 341 678 341 678 318 659 c 1,0,-1
EndSplineSet
EndChar

StartChar: onequarter
Encoding: 188 188 93
Width: 1002
Flags: HMW
HStem: -20 20G<283 283 283 410> 245 95<61 162 269 351 61 162>
VStem: 162 107<340 460 460 468> 283 504
LayerCount: 2
Fore
SplineSet
30 540 m 1,0,1
 84 573 84 573 114.5 605 c 128,-1,2
 145 637 145 637 166 683 c 1,3,4
 190 688 190 688 216.5 688 c 128,-1,5
 243 688 243 688 269 683 c 1,6,-1
 269 340 l 1,7,-1
 351 340 l 1,8,9
 356 321 356 321 356 292.5 c 128,-1,10
 356 264 356 264 351 245 c 1,11,-1
 61 245 l 1,12,13
 57 266 57 266 57 293 c 128,-1,14
 57 320 57 320 61 340 c 1,15,-1
 162 340 l 1,16,-1
 162 460 l 2,17,18
 162 477 162 477 166 535 c 1,19,20
 140 501 140 501 79 473 c 1,21,22
 40 492 40 492 30 540 c 1,0,1
283 0 m 1,23,-1
 661 683 l 1,24,25
 687 689 687 689 728.5 689 c 128,-1,26
 770 689 770 689 787 683 c 1,27,-1
 410 0 l 1,28,29
 383 -6 383 -6 342 -6 c 128,-1,30
 301 -6 301 -6 283 0 c 1,23,-1
937 79 m 1,31,-1
 906 80 l 1,32,-1
 906 6 l 1,33,34
 886 1 886 1 855 1 c 128,-1,35
 824 1 824 1 801 6 c 1,36,-1
 801 35 l 1,37,-1
 802 80 l 1,38,39
 753 78 l 1,40,-1
 642 78 l 1,41,42
 618 117 618 117 618 138 c 128,-1,43
 618 159 618 159 633 192 c 2,44,-1
 748 447 l 1,45,46
 773 450 773 450 804.5 443.5 c 128,-1,47
 836 437 836 437 852 424 c 1,48,-1
 789 286 l 1,49,50
 754 204 754 204 725 168 c 1,51,-1
 727 166 l 1,52,53
 767 170 767 170 801 170 c 1,54,-1
 801 212 l 2,55,56
 801 249 801 249 821 270 c 128,-1,57
 841 291 841 291 876 291 c 2,58,-1
 903 291 l 1,59,-1
 907 287 l 1,60,-1
 907 233 l 1,61,-1
 906 170 l 1,62,-1
 962 170 l 1,63,64
 966 154 966 154 966 130 c 128,-1,65
 966 106 966 106 958 79 c 1,66,-1
 937 79 l 1,31,-1
EndSplineSet
Ligature2: "'frac' Diagonal Fractions lookup 4 subtable" one fraction four
Ligature2: "'frac' Diagonal Fractions lookup 4 subtable" one slash four
EndChar

StartChar: onehalf
Encoding: 189 189 94
Width: 1002
Flags: HMW
HStem: -20 20G<270 270 270 397> 3 98<854 891> 245 95<61 162 269 351 61 162> 319 20G 353 98<771 798>
VStem: 162 107<340 460 460 468> 270 504 829 116<297.5 321.5>
LayerCount: 2
Fore
SplineSet
270 0 m 1,0,-1
 648 683 l 1,1,2
 674 689 674 689 715.5 689 c 128,-1,3
 757 689 757 689 774 683 c 1,4,-1
 397 0 l 1,5,6
 370 -6 370 -6 329 -6 c 128,-1,7
 288 -6 288 -6 270 0 c 1,0,-1
30 540 m 1,8,9
 84 573 84 573 114.5 605 c 128,-1,10
 145 637 145 637 166 683 c 1,11,12
 190 688 190 688 216.5 688 c 0,13,14
 243 688 243 688 269 683 c 1,15,-1
 269 340 l 1,16,-1
 351 340 l 1,17,18
 356 321 356 321 356 292.5 c 0,19,20
 356 264 356 264 351 245 c 1,21,-1
 61 245 l 1,22,23
 57 266 57 266 57 293 c 0,24,25
 57 320 57 320 61 340 c 1,26,-1
 162 340 l 1,27,-1
 162 460 l 2,28,29
 162 477 162 477 166 535 c 1,30,31
 140 501 140 501 79 473 c 1,32,33
 40 492 40 492 30 540 c 1,8,9
957 101 m 1,34,35
 957 80 957 80 955 54 c 1,36,37
 946 3 946 3 891 3 c 2,38,-1
 677 3 l 1,39,40
 641 49 641 49 641 70 c 0,41,42
 641 123 641 123 712 180 c 1,43,-1
 794 248 l 2,44,45
 829 277 829 277 829 309 c 0,46,47
 829 328 829 328 816.5 340.5 c 128,-1,48
 804 353 804 353 785 353 c 0,49,50
 746 353 746 353 729 302 c 1,51,52
 708 303 708 303 682 314 c 128,-1,53
 656 325 656 325 647 339 c 1,54,55
 659 387 659 387 699 419 c 128,-1,56
 739 451 739 451 800.5 451 c 0,57,58
 862 451 862 451 903.5 412.5 c 128,-1,59
 945 374 945 374 945 322.5 c 0,60,61
 945 271 945 271 924.5 238 c 128,-1,62
 904 205 904 205 863 174 c 2,63,-1
 807 131 l 2,64,65
 759 95 759 95 756 91 c 1,66,67
 807 101 807 101 854 101 c 2,68,-1
 957 101 l 1,34,35
EndSplineSet
Ligature2: "'frac' Diagonal Fractions lookup 4 subtable" one fraction two
Ligature2: "'frac' Diagonal Fractions lookup 4 subtable" one slash two
EndChar

StartChar: threequarters
Encoding: 190 190 95
Width: 1002
Flags: HMW
HStem: -20 20G<261 261 261 388> 241 88<163 197.5 160.5 236> 446 65 594 91<71 141 68 321>
VStem: 245 114<369 403.5> 261 504
LayerCount: 2
Fore
SplineSet
261 0 m 1,0,-1
 639 683 l 1,1,2
 665 689 665 689 706.5 689 c 128,-1,3
 748 689 748 689 765 683 c 1,4,-1
 388 0 l 1,5,6
 361 -6 361 -6 320 -6 c 128,-1,7
 279 -6 279 -6 261 0 c 1,0,-1
320 576 m 1,8,-1
 268 530 l 2,9,10
 261 523 261 523 241 511 c 1,11,12
 292 508 292 508 325.5 472.5 c 128,-1,13
 359 437 359 437 359 377.5 c 128,-1,14
 359 318 359 318 310 279.5 c 128,-1,15
 261 241 261 241 194 241 c 0,16,17
 104 241 104 241 46 287 c 1,18,19
 54 329 54 329 90 360 c 1,20,21
 137 329 137 329 172.5 329 c 128,-1,22
 208 329 208 329 226.5 344.5 c 128,-1,23
 245 360 245 360 245 386.5 c 128,-1,24
 245 413 245 413 229.5 429.5 c 128,-1,25
 214 446 214 446 192.5 446 c 128,-1,26
 171 446 171 446 152 439 c 1,27,28
 139 444 139 444 125.5 462 c 128,-1,29
 112 480 112 480 108 497 c 1,30,-1
 180 564 l 2,31,32
 198 581 198 581 223 596 c 1,33,-1
 220 600 l 1,34,35
 193 594 193 594 141 594 c 2,36,-1
 68 594 l 1,37,38
 62 613 62 613 62 640 c 128,-1,39
 62 667 62 667 71 685 c 1,40,-1
 321 685 l 1,41,42
 343 646 343 646 343 620.5 c 128,-1,43
 343 595 343 595 320 576 c 1,8,-1
924 79 m 1,44,-1
 893 80 l 1,45,-1
 893 6 l 1,46,47
 873 1 873 1 842 1 c 128,-1,48
 811 1 811 1 788 6 c 1,49,-1
 788 35 l 1,50,-1
 789 80 l 1,51,-1
 740 78 l 1,52,-1
 629 78 l 1,53,54
 605 117 605 117 605 138 c 128,-1,55
 605 159 605 159 620 192 c 2,56,-1
 735 447 l 1,57,58
 760 450 760 450 791.5 443.5 c 128,-1,59
 823 437 823 437 839 424 c 1,60,-1
 776 286 l 1,61,62
 741 204 741 204 712 168 c 1,63,-1
 714 166 l 1,64,65
 754 170 754 170 788 170 c 1,66,-1
 788 212 l 2,67,68
 788 249 788 249 808 270 c 128,-1,69
 828 291 828 291 863 291 c 2,70,-1
 890 291 l 1,71,-1
 894 287 l 1,72,-1
 894 233 l 1,73,-1
 893 170 l 1,74,-1
 949 170 l 1,75,76
 953 154 953 154 953 130 c 128,-1,77
 953 106 953 106 945 79 c 1,78,-1
 924 79 l 1,44,-1
EndSplineSet
Ligature2: "'frac' Diagonal Fractions lookup 4 subtable" three fraction four
Ligature2: "'frac' Diagonal Fractions lookup 4 subtable" three slash four
EndChar

StartChar: ordfeminine
Encoding: 170 170 96
Width: 441
Flags: HMW
HStem: 281 82<178 186.5> 463 72<185.5 205 152 212.5> 612 85<206.5 221>
VStem: 39 107<396 425 396 447.5> 261 113<394 405 405 461 461 461 532 558 558 561>
LayerCount: 2
Fore
SplineSet
196 535 m 1,0,-1
 261 532 l 1,1,-1
 261 558 l 2,2,3
 261 585 261 585 245.5 598.5 c 128,-1,4
 230 612 230 612 207 612 c 0,5,6
 159 612 159 612 86 587 c 1,7,8
 60 615 60 615 58 660 c 1,9,10
 146 697 146 697 234 697 c 0,11,12
 295 697 295 697 334.5 663 c 128,-1,13
 374 629 374 629 374 561 c 2,14,-1
 374 405 l 2,15,16
 374 359 374 359 400 343 c 1,17,18
 398 327 398 327 385.5 310 c 128,-1,19
 373 293 373 293 358 286 c 1,20,21
 307 289 307 289 280 330 c 1,22,23
 223 281 223 281 164.5 281 c 128,-1,24
 106 281 106 281 72.5 316.5 c 128,-1,25
 39 352 39 352 39 401 c 0,26,27
 39 468 39 468 82.5 501.5 c 128,-1,28
 126 535 126 535 196 535 c 1,0,-1
192 363 m 0,29,30
 227 363 227 363 261 394 c 1,31,-1
 261 461 l 1,32,33
 221 463 221 463 198.5 463 c 128,-1,34
 176 463 176 463 161 448.5 c 128,-1,35
 146 434 146 434 146 411.5 c 128,-1,36
 146 389 146 389 159 376 c 128,-1,37
 172 363 172 363 192 363 c 0,29,30
EndSplineSet
EndChar

StartChar: ordmasculine
Encoding: 186 186 97
Width: 435
Flags: HMW
HStem: 281 84<193 241> 613 84<193 241 193 243.5>
VStem: 38 110<457.5 520.5> 287 110<457.5 520.5 457.5 524>
LayerCount: 2
Fore
SplineSet
338 653 m 1,0,1
 397 594 397 594 397 488.5 c 128,-1,2
 397 383 397 383 338 324 c 0,3,4
 294 281 294 281 217.5 281 c 128,-1,5
 141 281 141 281 97 324 c 0,6,7
 38 383 38 383 38 488.5 c 128,-1,8
 38 594 38 594 97 653 c 1,9,10
 143 697 143 697 217.5 697 c 128,-1,11
 292 697 292 697 338 653 c 1,0,1
148 489 m 128,-1,13
 148 365 148 365 217.5 365 c 128,-1,14
 287 365 287 365 287 489 c 128,-1,15
 287 613 287 613 217.5 613 c 128,-1,12
 148 613 148 613 148 489 c 128,-1,13
EndSplineSet
EndChar

StartChar: degree
Encoding: 176 176 98
Width: 339
Flags: HMW
HStem: 365 84<151.5 187.5 151.5 214> 589 84<151.5 187.5>
VStem: 16 94<498 540 498 564> 228 95<498 540>
LayerCount: 2
Fore
SplineSet
16 519 m 128,-1,1
 16 586 16 586 59.5 629.5 c 128,-1,2
 103 673 103 673 169.5 673 c 0,3,4
 236 673 236 673 279.5 629.5 c 128,-1,5
 323 586 323 586 323 519 c 128,-1,6
 323 452 323 452 279.5 408.5 c 128,-1,7
 236 365 236 365 169.5 365 c 0,8,9
 103 365 103 365 59.5 408.5 c 128,-1,0
 16 452 16 452 16 519 c 128,-1,1
110 519 m 128,-1,11
 110 487 110 487 126 468 c 128,-1,12
 142 449 142 449 169 449 c 0,13,14
 196 449 196 449 212 468 c 128,-1,15
 228 487 228 487 228 519 c 128,-1,16
 228 551 228 551 212 570 c 128,-1,17
 196 589 196 589 169 589 c 0,18,19
 142 589 142 589 126 570 c 128,-1,10
 110 551 110 551 110 519 c 128,-1,11
EndSplineSet
EndChar

StartChar: less
Encoding: 60 60 99
Width: 530
Flags: HMW
HStem: 46 499<414 414>
VStem: 46 139
LayerCount: 2
Fore
SplineSet
52 346 m 1,0,-1
 414 545 l 1,1,2
 438 531 438 531 455.5 503 c 128,-1,3
 473 475 473 475 474 444 c 1,4,-1
 265 335 l 1,5,6
 235 318 235 318 185 300 c 1,7,-1
 185 292 l 1,8,9
 231 275 231 275 265 258 c 2,10,-1
 474 149 l 1,11,12
 471 118 471 118 454 88.5 c 128,-1,13
 437 59 437 59 414 46 c 1,14,-1
 52 245 l 1,15,16
 39 302 39 302 52 346 c 1,0,-1
EndSplineSet
EndChar

StartChar: greater
Encoding: 62 62 100
Width: 530
Flags: HMW
HStem: 527 20G<116 116>
VStem: 345 139
LayerCount: 2
Fore
SplineSet
478 246 m 1,0,-1
 115 47 l 1,1,2
 91 62 91 62 74 90 c 128,-1,3
 57 118 57 118 56 149 c 1,4,-1
 265 258 l 2,5,6
 307 279 307 279 345 293 c 1,7,-1
 345 300 l 1,8,9
 307 314 307 314 265 335 c 2,10,-1
 56 444 l 1,11,12
 58 475 58 475 75.5 504 c 128,-1,13
 93 533 93 533 116 547 c 1,14,-1
 478 347 l 1,15,16
 491 292 491 292 478 246 c 1,0,-1
EndSplineSet
EndChar

StartChar: plus
Encoding: 43 43 101
Width: 530
Flags: HMW
HStem: 243 107<54 150 54 150 380 476>
VStem: 208 114<82 186 82 195.5 409 512>
LayerCount: 2
Fore
SplineSet
209 349 m 1,0,-1
 208 409 l 1,1,-1
 208 512 l 1,2,3
 232 517 232 517 265 517 c 128,-1,4
 298 517 298 517 322 512 c 1,5,-1
 322 409 l 1,6,-1
 321 349 l 1,7,-1
 380 350 l 1,8,-1
 476 350 l 1,9,10
 481 318 481 318 481 294 c 128,-1,11
 481 270 481 270 476 243 c 1,12,-1
 380 243 l 1,13,-1
 321 244 l 1,14,-1
 322 186 l 1,15,-1
 322 82 l 1,16,17
 298 77 298 77 265 77 c 128,-1,18
 232 77 232 77 208 82 c 1,19,-1
 208 186 l 1,20,-1
 209 244 l 1,21,-1
 150 243 l 1,22,-1
 54 243 l 1,23,24
 49 263 49 263 49 296 c 128,-1,25
 49 329 49 329 54 350 c 1,26,-1
 150 350 l 1,27,-1
 209 349 l 1,0,-1
EndSplineSet
EndChar

StartChar: plusminus
Encoding: 177 177 102
Width: 530
Flags: HMW
HStem: 0 102<65 465 65 465> 306 99<65 153 65 153 377 465>
VStem: 209 112<166 247 166 256.5 465 545>
LayerCount: 2
Fore
SplineSet
210 404 m 1,0,-1
 209 465 l 1,1,-1
 209 545 l 1,2,3
 233 550 233 550 265.5 550 c 128,-1,4
 298 550 298 550 321 545 c 1,5,-1
 321 465 l 1,6,7
 320 404 l 1,8,-1
 377 405 l 1,9,-1
 465 405 l 1,10,11
 470 381 470 381 470 355.5 c 128,-1,12
 470 330 470 330 465 306 c 1,13,-1
 377 306 l 1,14,-1
 320 307 l 1,15,-1
 321 247 l 1,16,-1
 321 166 l 1,17,18
 298 161 298 161 265.5 161 c 128,-1,19
 233 161 233 161 209 166 c 1,20,-1
 209 247 l 1,21,-1
 210 307 l 1,22,-1
 153 306 l 1,23,-1
 65 306 l 1,24,25
 60 330 60 330 60 355.5 c 128,-1,26
 60 381 60 381 65 405 c 1,27,-1
 153 405 l 1,28,-1
 210 404 l 1,0,-1
465 0 m 1,29,-1
 65 0 l 1,30,31
 60 24 60 24 60 51 c 128,-1,32
 60 78 60 78 65 102 c 1,33,-1
 465 102 l 1,34,35
 470 78 470 78 470 51 c 128,-1,36
 470 24 470 24 465 0 c 1,29,-1
EndSplineSet
EndChar

StartChar: hyphen
Encoding: 45 45 103
Width: 364
Flags: HMW
HStem: 214 108<49 314 49 314>
VStem: 49 265<214 214 214 322>
LayerCount: 2
Fore
SplineSet
314 214 m 1,0,-1
 49 214 l 1,1,2
 43 236 43 236 43 268 c 128,-1,3
 43 300 43 300 49 322 c 1,4,-1
 314 322 l 1,5,6
 320 300 320 300 320 268 c 128,-1,7
 320 236 320 236 314 214 c 1,0,-1
EndSplineSet
EndChar

StartChar: equal
Encoding: 61 61 104
Width: 530
Flags: HMW
HStem: 138 108<54 476 54 476> 349 108<54 476 54 476>
VStem: 49 432<185 199 396 410>
LayerCount: 2
Fore
SplineSet
476 138 m 1,0,-1
 54 138 l 1,1,2
 49 160 49 160 49 192 c 128,-1,3
 49 224 49 224 54 246 c 1,4,-1
 476 246 l 1,5,6
 481 223 481 223 481 191.5 c 0,7,8
 481 160 481 160 476 138 c 1,0,-1
476 349 m 1,9,-1
 54 349 l 1,10,11
 49 371 49 371 49 402.5 c 0,12,13
 49 434 49 434 54 457 c 1,14,-1
 476 457 l 1,15,16
 481 434 481 434 481 403 c 128,-1,17
 481 372 481 372 476 349 c 1,9,-1
EndSplineSet
EndChar

StartChar: multiply
Encoding: 215 215 105
Width: 530
Flags: HMW
HStem: 477 20G<142 142 387 387>
VStem: 64 401<174 174 174 419>
LayerCount: 2
Fore
SplineSet
265 220 m 1,0,1
 250.75 205.75 250.75 205.75 239.375 194.375 c 128,-1,2
 228 183 228 183 142 96 c 1,3,4
 116 108 116 108 95.5 129.5 c 128,-1,5
 75 151 75 151 64 174 c 1,6,-1
 150 260 l 1,7,-1
 188 296 l 1,8,9
 181 303 181 303 167.5 316 c 128,-1,10
 154 329 154 329 150 333 c 2,11,-1
 64 419 l 1,12,13
 89.8088235294 474.919117647 89.8088235294 474.919117647 142 497 c 1,14,-1
 228 411 l 1,15,16
 252 385 252 385 265 373 c 1,17,18
 269 377 269 377 281.5 390 c 128,-1,19
 294 403 294 403 301 410 c 2,20,-1
 387 497 l 1,21,22
 440.368421053 470.315789474 440.368421053 470.315789474 465 419 c 1,23,-1
 341 296 l 1,24,-1
 379 260 l 1,25,-1
 465 174 l 1,26,27
 453 148 453 148 433.5 127.5 c 128,-1,28
 414 107 414 107 387 96 c 1,29,-1
 301 183 l 2,30,31
 293 190 293 190 265 220 c 1,0,1
EndSplineSet
EndChar

StartChar: divide
Encoding: 247 247 106
Width: 530
Flags: HMW
HStem: 70 95<205 205 324 324> 243 108<54 476 54 476> 427 95<205 205 324 324>
VStem: 195 129
LayerCount: 2
Fore
SplineSet
205 427 m 1,0,1
 195 449 195 449 195 475.5 c 128,-1,2
 195 502 195 502 205 522 c 1,3,4
 229 536 229 536 266 536 c 128,-1,5
 303 536 303 536 324 522 c 1,6,7
 334 505 334 505 334 475.5 c 128,-1,8
 334 446 334 446 324 427 c 1,9,10
 304 414 304 414 264.5 414 c 128,-1,11
 225 414 225 414 205 427 c 1,0,1
205 70 m 1,12,13
 195 90 195 90 195 117.5 c 128,-1,14
 195 145 195 145 205 165 c 1,15,16
 228 178 228 178 266 178 c 128,-1,17
 304 178 304 178 324 165 c 1,18,19
 334 148 334 148 334 117.5 c 128,-1,20
 334 87 334 87 324 70 c 1,21,22
 304 57 304 57 264.5 57 c 128,-1,23
 225 57 225 57 205 70 c 1,12,13
476 243 m 1,24,-1
 54 243 l 1,25,26
 49 264 49 264 49 296 c 128,-1,27
 49 328 49 328 54 351 c 1,28,-1
 476 351 l 1,29,30
 481 328 481 328 481 296 c 128,-1,31
 481 264 481 264 476 243 c 1,24,-1
EndSplineSet
EndChar

StartChar: logicalnot
Encoding: 172 172 107
Width: 530
Flags: HMW
HStem: 248 108<49 304 49 469>
VStem: 361 115<120 194 194 203>
LayerCount: 2
Fore
SplineSet
362 249 m 1,0,-1
 304 248 l 1,1,-1
 49 248 l 1,2,3
 44 269 44 269 44 301 c 128,-1,4
 44 333 44 333 49 356 c 1,5,-1
 469 356 l 1,6,-1
 476 349 l 1,7,-1
 476 120 l 1,8,9
 455 115 455 115 421.5 115 c 128,-1,10
 388 115 388 115 361 120 c 1,11,-1
 361 194 l 1,12,-1
 362 249 l 1,0,-1
EndSplineSet
EndChar

StartChar: mu
Encoding: 956 956 108
Width: 553
Flags: HMW
HStem: -219 21G<111 153.5> -9 111<247.5 279.5> 476 20G<68 68 197 197 351 351 482 482>
VStem: 68 129<180 496 180 496 180 496> 351 131<148 496>
LayerCount: 2
Fore
SplineSet
482 496 m 1,0,-1
 482 142 l 2,1,2
 482 80 482 80 510 58 c 1,3,4
 505 41 505 41 492.5 21.5 c 128,-1,5
 480 2 480 2 466 -8 c 1,6,7
 400 -2 400 -2 369 54 c 1,8,9
 328 -9 328 -9 254 -9 c 0,10,11
 219 -9 219 -9 189 10 c 1,12,-1
 189 -130 l 2,13,14
 189 -175 189 -175 176.5 -197 c 128,-1,15
 164 -219 164 -219 123 -219 c 0,16,17
 82 -219 82 -219 47 -192 c 1,18,19
 68 -160 68 -160 68 -96 c 2,20,-1
 68 496 l 1,21,22
 90 501 90 501 131.5 501 c 0,23,24
 173 501 173 501 197 496 c 1,25,-1
 197 180 l 1,26,27
 199 143 199 143 217.5 122.5 c 128,-1,28
 236 102 236 102 270 102 c 0,29,30
 316 102 316 102 351 148 c 1,31,-1
 351 496 l 1,32,33
 374 501 374 501 416 501 c 128,-1,34
 458 501 458 501 482 496 c 1,0,-1
EndSplineSet
EndChar

StartChar: percent
Encoding: 37 37 109
Width: 950
Flags: HMW
HStem: -20 20G<223 223 223 349> -13 83<716 762> 273 83<188 234.5> 327 83<716 762 716 763.5> 613 83<188 234.5 188 235.5>
VStem: 46 108<453.5 516> 268 108<453.5 516 453.5 519.5> 574 108<167.5 230> 796 108<167.5 230 167.5 233.5>
LayerCount: 2
Fore
SplineSet
853 366 m 0,0,1
 904 315 904 315 904 198 c 128,-1,2
 904 81 904 81 853 31 c 1,3,4
 812 -13 812 -13 739.5 -13 c 128,-1,5
 667 -13 667 -13 624 31 c 0,6,7
 574 81 574 81 574 198 c 128,-1,8
 574 315 574 315 621 362.5 c 128,-1,9
 668 410 668 410 739 410 c 128,-1,10
 810 410 810 410 853 366 c 0,0,1
685.5 263.5 m 128,-1,12
 682 238 682 238 682 188 c 128,-1,13
 682 138 682 138 693.5 104 c 128,-1,14
 705 70 705 70 739 70 c 128,-1,15
 773 70 773 70 784.5 104 c 128,-1,16
 796 138 796 138 796 188 c 128,-1,17
 796 238 796 238 792.5 263.5 c 128,-1,18
 789 289 789 289 775.5 308 c 128,-1,19
 762 327 762 327 739 327 c 128,-1,20
 716 327 716 327 702.5 308 c 128,-1,11
 689 289 689 289 685.5 263.5 c 128,-1,12
325 652 m 1,21,22
 376 602 376 602 376 484.5 c 128,-1,23
 376 367 376 367 325 317 c 1,24,25
 284 273 284 273 212 273 c 128,-1,26
 140 273 140 273 93 320 c 128,-1,27
 46 367 46 367 46 484 c 128,-1,28
 46 601 46 601 93 648.5 c 128,-1,29
 140 696 140 696 211 696 c 128,-1,30
 282 696 282 696 325 652 c 1,21,22
157.5 549.5 m 128,-1,32
 154 524 154 524 154 474 c 128,-1,33
 154 424 154 424 165.5 390 c 128,-1,34
 177 356 177 356 211 356 c 128,-1,35
 245 356 245 356 256.5 390 c 128,-1,36
 268 424 268 424 268 474 c 128,-1,37
 268 524 268 524 264.5 549.5 c 128,-1,38
 261 575 261 575 247.5 594 c 128,-1,39
 234 613 234 613 211 613 c 128,-1,40
 188 613 188 613 174.5 594 c 128,-1,31
 161 575 161 575 157.5 549.5 c 128,-1,32
223 0 m 1,41,-1
 600 683 l 1,42,43
 627 689 627 689 668 689 c 128,-1,44
 709 689 709 689 727 683 c 1,45,-1
 349 0 l 1,46,47
 323 -6 323 -6 281.5 -6 c 128,-1,48
 240 -6 240 -6 223 0 c 1,41,-1
EndSplineSet
Ligature2: "'frac' Diagonal Fractions lookup 4 subtable" zero fraction zero
Ligature2: "'frac' Diagonal Fractions lookup 4 subtable" zero slash zero
EndChar

StartChar: numbersign
Encoding: 35 35 110
Width: 683
Flags: HMW
HStem: 3 10 143 105<28 126 28 149 265 364 28 242 502 607> 410 105<79 186 79 209 325 424 79 302 562 658> 645 9
VStem: 21 645
LayerCount: 2
Fore
SplineSet
447 515 m 1,0,-1
 477 645 l 1,1,2
 499 654 499 654 536 654 c 128,-1,3
 573 654 573 654 592 645 c 1,4,-1
 562 515 l 1,5,-1
 658 515 l 1,6,7
 666 492 666 492 666 462 c 128,-1,8
 666 432 666 432 658 410 c 1,9,-1
 539 410 l 1,10,-1
 502 248 l 1,11,-1
 607 248 l 1,12,13
 626 195 626 195 607 143 c 1,14,-1
 479 143 l 1,15,-1
 450 13 l 1,16,17
 429 3 429 3 391.5 3 c 128,-1,18
 354 3 354 3 335 13 c 1,19,-1
 364 143 l 1,20,-1
 242 143 l 1,21,-1
 213 13 l 1,22,23
 192 3 192 3 154.5 3 c 128,-1,24
 117 3 117 3 97 13 c 1,25,-1
 126 143 l 1,26,-1
 28 143 l 1,27,28
 20 165 20 165 20 195 c 128,-1,29
 20 225 20 225 28 248 c 1,30,-1
 149 248 l 1,31,-1
 186 410 l 1,32,-1
 79 410 l 1,33,34
 60 462 60 462 79 515 c 1,35,-1
 209 515 l 1,36,-1
 239 645 l 1,37,38
 261 654 261 654 298 654 c 128,-1,39
 335 654 335 654 355 645 c 1,40,-1
 325 515 l 1,41,-1
 447 515 l 1,0,-1
302 410 m 1,42,-1
 265 248 l 1,43,-1
 387 248 l 1,44,-1
 424 410 l 1,45,-1
 302 410 l 1,42,-1
EndSplineSet
EndChar

StartChar: asterisk
Encoding: 42 42 111
Width: 513
Flags: HMW
HStem: 505 57 541 20G 730 8
VStem: 203 106
LayerCount: 2
Fore
SplineSet
40 534 m 1,0,1
 38 555 38 555 49 588.5 c 128,-1,2
 60 622 60 622 74 637 c 1,3,-1
 130 617 l 2,4,5
 167 603 167 603 226 561 c 1,6,7
 205 637 205 637 204 670 c 2,8,-1
 202 730 l 1,9,10
 221 738 221 738 256 738 c 128,-1,11
 291 738 291 738 310 730 c 1,12,-1
 308 670 l 1,13,14
 306 641 306 641 286 562 c 1,15,16
 340 600 340 600 382 615 c 2,17,-1
 439 636 l 1,18,19
 452 621 452 621 463 588 c 128,-1,20
 474 555 474 555 473 534 c 1,21,-1
 414 517 l 2,22,23
 381 507 381 507 305 505 c 1,24,25
 364 456 364 456 385 430 c 2,26,-1
 422 383 l 1,27,28
 412 366 412 366 384 345 c 128,-1,29
 356 324 356 324 335 319 c 1,30,-1
 302 369 l 2,31,32
 284 396 284 396 256 468 c 1,33,34
 233 404 233 404 210 370 c 2,35,-1
 177 320 l 1,36,37
 157 324 157 324 128.5 344.5 c 128,-1,38
 100 365 100 365 89 383 c 1,39,-1
 126 430 l 2,40,41
 147 458 147 458 207 505 c 1,42,43
 135 507 135 507 98 518 c 2,44,-1
 40 534 l 1,0,1
EndSplineSet
EndChar

StartChar: endash
Encoding: 8211 8211 112
Width: 544
Flags: HMW
HStem: 214 102<64 480 64 480>
VStem: 58 428<258 272>
LayerCount: 2
Fore
SplineSet
480 214 m 1,0,-1
 64 214 l 1,1,2
 58 236 58 236 58 266 c 0,3,4
 58 296 58 296 64 316 c 1,5,-1
 480 316 l 1,6,7
 486 296 486 296 486 266 c 0,8,9
 486 236 486 236 480 214 c 1,0,-1
EndSplineSet
EndChar

StartChar: emdash
Encoding: 8212 8212 113
Width: 807
Flags: HMW
HStem: 214 102<76 731 76 731>
VStem: 71 666<258 272>
LayerCount: 2
Fore
SplineSet
731 214 m 1,0,-1
 76 214 l 1,1,2
 71 236 71 236 71 265.5 c 0,3,4
 71 295 71 295 76 316 c 1,5,-1
 731 316 l 1,6,7
 737 296 737 296 737 266 c 0,8,9
 737 236 737 236 731 214 c 1,0,-1
EndSplineSet
EndChar

StartChar: slash
Encoding: 47 47 114
Width: 437
Flags: HMW
HStem: -115 880<116 319>
VStem: 4 427
LayerCount: 2
Fore
SplineSet
4 -73 m 1,0,-1
 319 765 l 1,1,2
 385 758 385 758 431 722 c 1,3,-1
 116 -115 l 1,4,5
 51 -110 51 -110 4 -73 c 1,0,-1
EndSplineSet
EndChar

StartChar: backslash
Encoding: 92 92 115
Width: 437
Flags: HMW
HStem: -115 880<118 321>
VStem: 6 427
LayerCount: 2
Fore
SplineSet
321 -115 m 1,0,-1
 6 722 l 1,1,2
 52 758 52 758 118 765 c 1,3,-1
 433 -73 l 1,4,5
 388 -108 388 -108 321 -115 c 1,0,-1
EndSplineSet
EndChar

StartChar: bar
Encoding: 124 124 116
Width: 263
Flags: HMW
HStem: -147 926<124.5 140.5>
VStem: 70 122<-141 774 -141 774>
LayerCount: 2
Fore
SplineSet
70 -141 m 1,0,-1
 70 774 l 1,1,2
 94 779 94 779 131 779 c 0,3,4
 168 779 168 779 192 774 c 1,5,-1
 192 -141 l 1,6,7
 169 -147 169 -147 131 -147 c 0,8,9
 93 -147 93 -147 70 -141 c 1,0,-1
EndSplineSet
EndChar

StartChar: brokenbar
Encoding: 166 166 117
Width: 257
Flags: HMW
HStem: -147 926<121.5 137.5>
VStem: 68 121<-141 246 -141 246 387 774>
LayerCount: 2
Fore
SplineSet
68 -141 m 1,0,-1
 68 246 l 1,1,2
 92 251 92 251 128 251 c 0,3,4
 164 251 164 251 189 246 c 1,5,-1
 189 -141 l 1,6,7
 165 -147 165 -147 128 -147 c 0,8,9
 91 -147 91 -147 68 -141 c 1,0,-1
68 387 m 1,10,-1
 68 774 l 1,11,12
 92 779 92 779 128 779 c 0,13,14
 164 779 164 779 189 774 c 1,15,-1
 189 387 l 1,16,17
 165 381 165 381 128 381 c 0,18,19
 91 381 91 381 68 387 c 1,10,-1
EndSplineSet
EndChar

StartChar: paragraph
Encoding: 182 182 118
Width: 712
Flags: HMW
HStem: -158 100<174 203 172 233.5> 570 113<648 656 656 689>
VStem: 281 132<62 87 87 243 243 243> 476 133<-131 571 -131 676 -131 676>
LayerCount: 2
Fore
SplineSet
281 62 m 2,0,-1
 281 243 l 1,1,-1
 266 243 l 2,2,3
 163 243 163 243 98.5 301 c 128,-1,4
 34 359 34 359 34 469 c 128,-1,5
 34 579 34 579 98.5 633.5 c 128,-1,6
 163 688 163 688 272 688 c 0,7,8
 306 688 306 688 406 684 c 1,9,-1
 413 677 l 1,10,-1
 413 87 l 2,11,12
 413 21 413 21 403.5 -22.5 c 128,-1,13
 394 -66 394 -66 365 -98 c 0,14,15
 311 -158 311 -158 201 -158 c 0,16,17
 124 -158 124 -158 62 -133 c 1,18,19
 61 -113 61 -113 69.5 -84 c 128,-1,20
 78 -55 78 -55 91 -37 c 1,21,22
 150 -58 150 -58 193 -58 c 128,-1,23
 236 -58 236 -58 258.5 -32 c 128,-1,24
 281 -6 281 -6 281 62 c 2,0,-1
656 570 m 1,25,-1
 609 571 l 1,26,-1
 609 -131 l 1,27,28
 583 -137 583 -137 541.5 -137 c 128,-1,29
 500 -137 500 -137 476 -131 c 1,30,-1
 476 676 l 1,31,-1
 482 683 l 1,32,-1
 689 683 l 1,33,34
 696 664 696 664 696 626.5 c 128,-1,35
 696 589 696 589 689 570 c 1,36,-1
 656 570 l 1,25,-1
EndSplineSet
EndChar

StartChar: braceleft
Encoding: 123 123 119
Width: 373
Flags: HMW
HStem: -175 1002<338 338>
VStem: 37 136 127 132<6 7 7 169 482 484 484 646>
LayerCount: 2
Fore
SplineSet
44 369 m 1,0,1
 80 377 80 377 103.5 409 c 128,-1,2
 127 441 127 441 127 482 c 2,3,-1
 127 647 l 2,4,5
 127 719 127 719 168.5 763 c 128,-1,6
 210 807 210 807 279 818 c 2,7,-1
 338 827 l 1,8,9
 351 813 351 813 359 785.5 c 128,-1,10
 367 758 367 758 362 741 c 1,11,-1
 307 723 l 2,12,13
 259 708 259 708 259 646 c 2,14,-1
 259 484 l 2,15,16
 259 434 259 434 235.5 391 c 128,-1,17
 212 348 212 348 173 331 c 1,18,-1
 173 323 l 1,19,20
 212 305 212 305 235.5 262 c 128,-1,21
 259 219 259 219 259 169 c 2,22,-1
 259 7 l 2,23,24
 259 -55 259 -55 307 -70 c 2,25,-1
 362 -88 l 1,26,27
 367 -105 367 -105 359 -132.5 c 128,-1,28
 351 -160 351 -160 338 -175 c 1,29,-1
 279 -165 l 2,30,31
 210 -154 210 -154 168.5 -110.5 c 128,-1,32
 127 -67 127 -67 127 6 c 2,33,-1
 127 171 l 2,34,35
 127 212 127 212 103.5 244 c 128,-1,36
 80 276 80 276 44 284 c 1,37,38
 37 300 37 300 37 326.5 c 128,-1,39
 37 353 37 353 44 369 c 1,0,1
EndSplineSet
EndChar

StartChar: braceright
Encoding: 125 125 120
Width: 373
Flags: HMW
HStem: -175 1002<35 35>
VStem: 115 132<7 169 169 171 484 646 646 647>
LayerCount: 2
Fore
SplineSet
330 369 m 1,0,1
 336 353 336 353 336 326.5 c 128,-1,2
 336 300 336 300 330 284 c 1,3,4
 294 276 294 276 270.5 244 c 128,-1,5
 247 212 247 212 247 171 c 2,6,-1
 247 6 l 2,7,8
 247 -67 247 -67 205 -110.5 c 128,-1,9
 163 -154 163 -154 94 -165 c 2,10,-1
 35 -175 l 1,11,12
 22 -160 22 -160 14.5 -132.5 c 128,-1,13
 7 -105 7 -105 11 -88 c 1,14,-1
 66 -70 l 2,15,16
 115 -54 115 -54 115 7 c 2,17,-1
 115 169 l 2,18,19
 115 219 115 219 138.5 262 c 128,-1,20
 162 305 162 305 201 323 c 1,21,-1
 201 331 l 1,22,23
 162 348 162 348 138.5 391 c 128,-1,24
 115 434 115 434 115 484 c 2,25,-1
 115 646 l 2,26,27
 115 707 115 707 66 723 c 2,28,-1
 11 741 l 1,29,30
 7 758 7 758 14.5 785.5 c 128,-1,31
 22 813 22 813 35 827 c 1,32,-1
 94 818 l 2,33,34
 163 807 163 807 205 763 c 128,-1,35
 247 719 247 719 247 647 c 2,36,-1
 247 482 l 2,37,38
 247 440 247 440 270.5 408.5 c 128,-1,39
 294 377 294 377 330 369 c 1,0,1
EndSplineSet
EndChar

StartChar: parenleft
Encoding: 40 40 121
Width: 354
Flags: HMW
HStem: -189 1025<260 260>
VStem: 60 138<248.5 398 248.5 411.5>
LayerCount: 2
Fore
SplineSet
233 557 m 128,-1,1
 198 440 198 440 198 323.5 c 128,-1,2
 198 207 198 207 233 90 c 128,-1,3
 268 -27 268 -27 336 -120 c 1,4,5
 313 -171 313 -171 260 -189 c 1,6,7
 165 -98 165 -98 112.5 43 c 128,-1,8
 60 184 60 184 60 323 c 128,-1,9
 60 462 60 462 112.5 603.5 c 128,-1,10
 165 745 165 745 260 836 c 1,11,12
 313 818 313 818 336 767 c 1,13,0
 268 674 268 674 233 557 c 128,-1,1
EndSplineSet
EndChar

StartChar: parenright
Encoding: 41 41 122
Width: 354
Flags: HMW
HStem: -189 1025<94 94>
VStem: 156 138<248.5 398>
LayerCount: 2
Fore
SplineSet
121 90 m 128,-1,1
 156 207 156 207 156 323.5 c 128,-1,2
 156 440 156 440 121 557 c 128,-1,3
 86 674 86 674 18 767 c 1,4,5
 41 818 41 818 94 836 c 1,6,7
 189 745 189 745 241.5 603.5 c 128,-1,8
 294 462 294 462 294 323 c 128,-1,9
 294 184 294 184 241.5 43 c 128,-1,10
 189 -98 189 -98 94 -189 c 1,11,12
 41 -171 41 -171 18 -120 c 1,13,0
 86 -27 86 -27 121 90 c 128,-1,1
EndSplineSet
EndChar

StartChar: bracketleft
Encoding: 91 91 123
Width: 370
Flags: HMW
HStem: -153 96 721 96
VStem: 99 128<-55 720 -55 815 -55 815>
LayerCount: 2
Fore
SplineSet
334 -149 m 1,0,-1
 107 -157 l 1,1,-1
 99 -150 l 1,2,-1
 99 815 l 1,3,-1
 107 822 l 1,4,-1
 334 814 l 1,5,6
 338 801 338 801 338 773 c 0,7,8
 338 745 338 745 328 723 c 1,9,-1
 227 720 l 1,10,-1
 227 -55 l 1,11,-1
 328 -58 l 1,12,13
 338 -80 338 -80 338 -108 c 0,14,15
 338 -136 338 -136 334 -149 c 1,0,-1
EndSplineSet
EndChar

StartChar: bracketright
Encoding: 93 93 124
Width: 370
Flags: HMW
HStem: -153 96 721 96
VStem: 143 128<-55 720 720 720>
LayerCount: 2
Fore
SplineSet
263 -157 m 1,0,-1
 37 -149 l 1,1,2
 32 -136 32 -136 32 -111 c 0,3,4
 32 -86 32 -86 42 -58 c 1,5,-1
 143 -55 l 1,6,-1
 143 720 l 1,7,-1
 42 723 l 1,8,9
 32 750 32 750 32 776 c 0,10,11
 32 802 32 802 37 814 c 1,12,-1
 263 822 l 1,13,-1
 271 815 l 1,14,-1
 271 -150 l 1,15,-1
 263 -157 l 1,0,-1
EndSplineSet
EndChar

StartChar: currency
Encoding: 164 164 125
Width: 583
Flags: HMW
HStem: 116 97<268.5 311.5> 455 97<268.5 312 268.5 323.5>
VStem: 65 130<311.5 356.5> 387 129<311 356 311 367>
LayerCount: 2
Fore
SplineSet
97 215 m 1,0,1
 65 265 65 265 65 333.5 c 128,-1,2
 65 402 65 402 97 452 c 1,3,-1
 27 529 l 1,4,5
 48 568 48 568 95 597 c 1,6,-1
 174 525 l 1,7,8
 226 552 226 552 290 552 c 128,-1,9
 354 552 354 552 406 525 c 1,10,-1
 488 599 l 1,11,12
 530 573 530 573 556 531 c 1,13,-1
 485 451 l 1,14,15
 516 400 516 400 516 333.5 c 128,-1,16
 516 267 516 267 483 215 c 1,17,-1
 554 137 l 1,18,19
 530 96 530 96 486 69 c 1,20,-1
 405 142 l 1,21,22
 355 116 355 116 290.5 116 c 128,-1,23
 226 116 226 116 176 142 c 1,24,-1
 95 70 l 1,25,26
 53 94 53 94 27 138 c 1,27,-1
 97 215 l 1,0,1
219.5 421 m 128,-1,29
 195 387 195 387 195 334.5 c 128,-1,30
 195 282 195 282 219.5 247.5 c 128,-1,31
 244 213 244 213 291 213 c 128,-1,32
 338 213 338 213 362.5 247 c 128,-1,33
 387 281 387 281 387 334 c 128,-1,34
 387 387 387 387 362.5 421 c 128,-1,35
 338 455 338 455 291 455 c 128,-1,28
 244 455 244 455 219.5 421 c 128,-1,29
EndSplineSet
Substitution2: "'c2sc' Capitals to Small Capitals lookup 3 subtable" currency.smcp
Substitution2: "'aalt' Access All Alternates lookup 0 subtable" currency.smcp
EndChar

StartChar: dollar
Encoding: 36 36 126
Width: 505
Flags: HMW
HStem: -40 179<198 278.5 222.5 296> 504 185<202 277>
VStem: 198 98<-40 35 -40 37 -40 37> 202 98<609 689 609 689 609 689> 335 138<175 205>
LayerCount: 2
Fore
SplineSet
27 96 m 1,0,1
 28 122 28 122 43 152 c 128,-1,2
 58 182 58 182 77 194 c 1,3,4
 181 139 181 139 256 139 c 0,5,6
 291 139 291 139 313 153 c 128,-1,7
 335 167 335 167 335 192 c 0,8,9
 335 235 335 235 277 255 c 2,10,-1
 180 290 l 1,11,12
 51 339 51 339 51 444 c 0,13,14
 51 507 51 507 92.5 551.5 c 128,-1,15
 134 596 134 596 202 608 c 1,16,-1
 202 689 l 1,17,18
 218 693 218 693 250.5 693 c 0,19,20
 283 693 283 693 300 689 c 1,21,-1
 300 609 l 1,22,23
 378 602 378 602 457 566 c 1,24,25
 457 538 457 538 444 509.5 c 128,-1,26
 431 481 431 481 411 464 c 1,27,28
 319 504 319 504 255 504 c 0,29,30
 223 504 223 504 204.5 490.5 c 128,-1,31
 186 477 186 477 186 455.5 c 0,32,33
 186 434 186 434 199.5 423.5 c 128,-1,34
 213 413 213 413 243 402 c 2,35,-1
 337 367 l 2,36,37
 473 317 473 317 473 200 c 0,38,39
 473 134 473 134 424.5 89.5 c 128,-1,40
 376 45 376 45 296 35 c 1,41,-1
 296 -40 l 1,42,43
 283 -43 283 -43 246.5 -43 c 0,44,45
 210 -43 210 -43 198 -40 c 1,46,-1
 198 37 l 1,47,48
 93 51 93 51 27 96 c 1,0,1
EndSplineSet
Substitution2: "'c2sc' Capitals to Small Capitals lookup 3 subtable" dollar.smcp
Substitution2: "'aalt' Access All Alternates lookup 0 subtable" dollar.smcp
EndChar

StartChar: cent
Encoding: 162 162 127
Width: 465
Flags: HMW
HStem: -32 200<195 287 236.5 292> 489 192<198 274.5>
VStem: 195 97<-32 66 -32 67 -32 67>
LayerCount: 2
Fore
SplineSet
195 -32 m 1,0,-1
 195 67 l 1,1,2
 109 84 109 84 71 155.5 c 128,-1,3
 33 227 33 227 33 331.5 c 0,4,5
 33 436 33 436 79 500.5 c 128,-1,6
 125 565 125 565 198 582 c 1,7,-1
 198 681 l 1,8,9
 213 686 213 686 246 686 c 128,-1,10
 279 686 279 686 295 681 c 1,11,-1
 295 584 l 1,12,13
 359 572 359 572 397 529.5 c 128,-1,14
 435 487 435 487 435 435 c 0,15,16
 435 362 435 362 365 362 c 0,17,18
 340 362 340 362 317 368 c 1,19,20
 319 489 319 489 243.5 489 c 0,21,22
 168 489 168 489 168 328.5 c 0,23,24
 168 168 168 168 267 168 c 0,25,26
 319 168 319 168 380 214 c 1,27,28
 396 203 396 203 411.5 182 c 128,-1,29
 427 161 427 161 431 142 c 1,30,31
 381 84 381 84 292 66 c 1,32,-1
 292 -32 l 1,33,34
 279 -35 279 -35 243 -35 c 128,-1,35
 207 -35 207 -35 195 -32 c 1,0,-1
EndSplineSet
Substitution2: "'c2sc' Capitals to Small Capitals lookup 3 subtable" cent.smcp
Substitution2: "'aalt' Access All Alternates lookup 0 subtable" cent.smcp
EndChar

StartChar: sterling
Encoding: 163 163 128
Width: 534
Flags: HMW
HStem: -1 109<350 412> 261 95<52 61 52 127 52 61 380 407> 554 108<264.5 311.5>
VStem: 71 129<456.5 497 450 522> 127 118<261 261>
LayerCount: 2
Fore
SplineSet
231 355 m 1,0,-1
 407 356 l 1,1,2
 414 337 414 337 414 308.5 c 128,-1,3
 414 280 414 280 407 261 c 1,4,5
 299 261 299 261 245 262 c 1,6,7
 241 177 241 177 187 105 c 1,8,-1
 190 102 l 1,9,10
 280 108 280 108 350 108 c 2,11,-1
 502 108 l 1,12,13
 502 80 502 80 500 64 c 0,14,15
 488 -1 488 -1 412 -1 c 2,16,-1
 66 -1 l 1,17,18
 51 67 51 67 51 88.5 c 128,-1,19
 51 110 51 110 67 131 c 1,20,-1
 82 153 l 2,21,22
 123 213 123 213 127 261 c 1,23,-1
 52 261 l 1,24,25
 45 280 45 280 45 308 c 128,-1,26
 45 336 45 336 52 356 c 1,27,28
 61 356 61 356 79.5 355.5 c 128,-1,29
 98 355 98 355 108 355 c 1,30,31
 106 360 106 360 96 383 c 128,-1,32
 86 406 86 406 82.5 416 c 0,33,34
 71 448.857142857 71 448.857142857 71 480 c 0,35,36
 71 551 71 551 126 606.5 c 128,-1,37
 181 662 181 662 281 662 c 0,38,39
 344 662 344 662 398.5 639 c 128,-1,40
 453 616 453 616 487 584 c 1,41,42
 483 559 483 559 463.5 535 c 128,-1,43
 444 511 444 511 419 503 c 1,44,45
 354 554 354 554 290 554 c 0,46,47
 250 554 250 554 225 531.5 c 128,-1,48
 200 509 200 509 200 470 c 0,49,50
 200 435.666666667 200 435.666666667 215 397.333333333 c 128,-1,51
 230 359 230 359 231 355 c 1,0,-1
EndSplineSet
Substitution2: "'c2sc' Capitals to Small Capitals lookup 3 subtable" sterling.smcp
Substitution2: "'aalt' Access All Alternates lookup 0 subtable" sterling.smcp
EndChar

StartChar: Euro
Encoding: 8364 8364 129
Width: 563
Flags: HMW
HStem: -14 107<315 368> 203 84<18 90 18 99 18 90 231 413 231 231> 359 84<18 90 18 99 230 413> 555 107<314.5 368.5 256.5 370>
VStem: 90 130<287 323 287 359>
LayerCount: 2
Fore
SplineSet
493 498 m 1,0,1
 419 555 419 555 346 555 c 0,2,3
 255 555 255 555 230 443 c 1,4,-1
 413 443 l 1,5,6
 418 422 418 422 418 400.5 c 128,-1,7
 418 379 418 379 413 359 c 1,8,-1
 220 359 l 1,9,-1
 220 287 l 1,10,-1
 413 287 l 1,11,12
 418 266 418 266 418 244.5 c 128,-1,13
 418 223 418 223 413 203 c 1,14,-1
 231 203 l 1,15,16
 255 93 255 93 346 93 c 0,17,18
 418 93 418 93 493 149 c 1,19,20
 540 122 540 122 549 70 c 1,21,22
 450 -14 450 -14 328 -14 c 0,23,24
 138 -14 138 -14 99 203 c 1,25,-1
 18 203 l 1,26,27
 13 223 13 223 13 244.5 c 128,-1,28
 13 266 13 266 18 287 c 1,29,-1
 90 287 l 1,30,31
 89 299 89 299 89 323 c 128,-1,32
 89 347 89 347 90 359 c 1,33,-1
 18 359 l 1,34,35
 13 379 13 379 13 400.5 c 128,-1,36
 13 422 13 422 18 443 c 1,37,-1
 99 443 l 1,38,39
 138 662 138 662 328 662 c 0,40,41
 449 662 449 662 549 577 c 1,42,43
 545 555 545 555 529.5 532.5 c 128,-1,44
 514 510 514 510 493 498 c 1,0,1
EndSplineSet
Substitution2: "'c2sc' Capitals to Small Capitals lookup 3 subtable" Euro.smcp
Substitution2: "'aalt' Access All Alternates lookup 0 subtable" Euro.smcp
EndChar

StartChar: yen
Encoding: 165 165 130
Width: 533
Flags: HMW
HStem: 160 84<53 194 53 200 53 194 334 477> 316 84<53 125 53 162 53 125 406 477> 635 20
VStem: 200 129<0 160 0 160>
LayerCount: 2
Fore
SplineSet
477 160 m 1,0,-1
 329 160 l 1,1,-1
 329 0 l 1,2,3
 302 -5 302 -5 264 -5 c 0,4,5
 226 -5 226 -5 200 0 c 1,6,-1
 200 160 l 1,7,-1
 53 160 l 1,8,9
 47 179 47 179 47 200.5 c 0,10,11
 47 222 47 222 53 244 c 1,12,-1
 194 244 l 1,13,-1
 162 316 l 1,14,-1
 53 316 l 1,15,16
 47 335 47 335 47 356.5 c 0,17,18
 47 378 47 378 53 400 c 1,19,-1
 125 400 l 1,20,-1
 20 635 l 1,21,22
 66 658 66 658 97 658 c 0,23,24
 128 658 128 658 141.5 647.5 c 128,-1,25
 155 637 155 637 165 612 c 2,26,-1
 224 469 l 2,27,28
 240 429 240 429 267 343 c 1,29,-1
 272 343 l 1,30,31
 295 420 295 420 319 471 c 1,32,-1
 395 649 l 1,33,34
 417 655 417 655 449.5 655 c 0,35,36
 482 655 482 655 511 647 c 1,37,-1
 516 640 l 1,38,-1
 406 400 l 1,39,-1
 477 400 l 1,40,41
 483 373 483 373 483 356.5 c 0,42,43
 483 340 483 340 477 316 c 1,44,-1
 367 316 l 1,45,-1
 334 244 l 1,46,-1
 477 244 l 1,47,48
 483 217 483 217 483 200.5 c 0,49,50
 483 184 483 184 477 160 c 1,0,-1
EndSplineSet
Substitution2: "'c2sc' Capitals to Small Capitals lookup 3 subtable" yen.smcp
Substitution2: "'aalt' Access All Alternates lookup 0 subtable" yen.smcp
EndChar

StartChar: at
Encoding: 64 64 131
Width: 965
Flags: HMW
HStem: -196 100<375.5 494.5> 1 99<452 473> 5 96<703 737.5 703 767.5> 391 93<464.5 508.5> 585 97<401 590>
VStem: 44 131<116.5 328 116.5 356> 286 125<189.5 275.5 189.5 300.5> 557 122<145 151 151 161 139.5 368> 800 128<223 385.5>
LayerCount: 2
Fore
SplineSet
680 412 m 1,0,-1
 679 161 l 2,1,2
 679 101 679 101 715.5 101 c 128,-1,3
 752 101 752 101 776 147.5 c 128,-1,4
 800 194 800 194 800 297 c 0,5,6
 800 429 800 429 718 507 c 128,-1,7
 636 585 636 585 494.5 585 c 128,-1,8
 353 585 353 585 264 483.5 c 128,-1,9
 175 382 175 382 175 224.5 c 128,-1,10
 175 67 175 67 252 -14.5 c 128,-1,11
 329 -96 329 -96 463 -96 c 0,12,13
 569 -96 569 -96 663 -58 c 1,14,15
 696 -94 696 -94 696 -148 c 1,16,17
 581 -196 581 -196 454 -196 c 0,18,19
 268 -196 268 -196 156 -89 c 128,-1,20
 44 18 44 18 44 220.5 c 128,-1,21
 44 423 44 423 172.5 552.5 c 128,-1,22
 301 682 301 682 494.5 682 c 128,-1,23
 688 682 688 682 808 577 c 128,-1,24
 928 472 928 472 928 293 c 0,25,26
 928 154 928 154 864.5 79.5 c 128,-1,27
 801 5 801 5 715 5 c 128,-1,28
 629 5 629 5 585 64 c 1,29,30
 520 1 520 1 445 1 c 128,-1,31
 370 1 370 1 328 62.5 c 128,-1,32
 286 124 286 124 286 232.5 c 128,-1,33
 286 341 286 341 341.5 412.5 c 128,-1,34
 397 484 397 484 496 484 c 0,35,36
 549 484 549 484 599 463 c 128,-1,37
 649 442 649 442 680 412 c 1,0,-1
476 100 m 0,38,39
 517 100 517 100 557 145 c 1,40,-1
 557 368 l 1,41,42
 532 391 532 391 496 391 c 0,43,44
 411 391 411 391 411 232 c 0,45,46
 411 100 411 100 476 100 c 0,38,39
EndSplineSet
EndChar

StartChar: copyright
Encoding: 169 169 132
Width: 795
Flags: HMW
HStem: -21 89<321 473 321 499> 146 81<388 424> 461 77<374.5 419.5> 615 89<321 473>
VStem: 36 102<265.5 416.5 265.5 443> 225 105<304 381 304 412.5> 454 95 658 102<265.5 416.5>
LayerCount: 2
Fore
SplineSet
36 341 m 128,-1,1
 36 494 36 494 140 599 c 128,-1,2
 244 704 244 704 397 704 c 128,-1,3
 550 704 550 704 655 599 c 128,-1,4
 760 494 760 494 760 341 c 128,-1,5
 760 188 760 188 655 83.5 c 128,-1,6
 550 -21 550 -21 397 -21 c 128,-1,7
 244 -21 244 -21 140 83.5 c 128,-1,0
 36 188 36 188 36 341 c 128,-1,1
138 341 m 128,-1,9
 138 226 138 226 211.5 147 c 128,-1,10
 285 68 285 68 397.5 68 c 0,11,12
 510 68 510 68 584 147 c 128,-1,13
 658 226 658 226 658 341 c 128,-1,14
 658 456 658 456 584 535.5 c 128,-1,15
 510 615 510 615 397.5 615 c 0,16,17
 285 615 285 615 211.5 535.5 c 128,-1,8
 138 456 138 456 138 341 c 128,-1,9
454 372 m 1,18,19
 456 409 456 409 442 435 c 128,-1,20
 428 461 428 461 396 461 c 0,21,22
 330 461 330 461 330 344 c 0,23,24
 330 227 330 227 415 227 c 0,25,26
 453 227 453 227 504 263 c 1,27,28
 517 255 517 255 528.5 237.5 c 128,-1,29
 540 220 540 220 543 204 c 1,30,31
 519 179 519 179 478 162.5 c 128,-1,32
 437 146 437 146 398 146 c 0,33,34
 309 146 309 146 267 201.5 c 128,-1,35
 225 257 225 257 225 348.5 c 0,36,37
 225 440 225 440 277 489 c 128,-1,38
 329 538 329 538 397.5 538 c 0,39,40
 466 538 466 538 507.5 503 c 128,-1,41
 549 468 549 468 549 420 c 0,42,43
 549 366 549 366 493 366 c 0,44,45
 469 366 469 366 454 372 c 1,18,19
EndSplineSet
EndChar

StartChar: registered
Encoding: 174 174 133
Width: 597
Flags: HMW
HStem: 207 73<244 352 244 373.5> 443 54<267 308 267 308> 554 53<267 340.5 289.5 299> 671 73<244 352>
VStem: 31 79<421 529 421 550> 197 70<355 443 355 496 496 554> 331 73<518 533.5> 487 80<421 529>
LayerCount: 2
Fore
SplineSet
31 475 m 128,-1,1
 31 588 31 588 108.5 666 c 128,-1,2
 186 744 186 744 298.5 744 c 128,-1,3
 411 744 411 744 489 666 c 128,-1,4
 567 588 567 588 567 475 c 128,-1,5
 567 362 567 362 489 284.5 c 128,-1,6
 411 207 411 207 298.5 207 c 128,-1,7
 186 207 186 207 108.5 284.5 c 128,-1,0
 31 362 31 362 31 475 c 128,-1,1
110 475 m 128,-1,9
 110 393 110 393 164 336.5 c 128,-1,10
 218 280 218 280 298 280 c 128,-1,11
 378 280 378 280 432.5 336.5 c 128,-1,12
 487 393 487 393 487 475 c 128,-1,13
 487 557 487 557 432.5 614 c 128,-1,14
 378 671 378 671 298 671 c 128,-1,15
 218 671 218 671 164 614 c 128,-1,8
 110 557 110 557 110 475 c 128,-1,9
200 604 m 1,16,-1
 305 607 l 1,17,18
 355 607 355 607 379.5 586.5 c 128,-1,19
 404 566 404 566 404 535.5 c 128,-1,20
 404 505 404 505 389.5 488 c 128,-1,21
 375 471 375 471 354 466 c 1,22,23
 372 457 372 457 387 428 c 2,24,-1
 399 404 l 2,25,26
 410 382 410 382 422 375 c 1,27,28
 404 350 404 350 376 350 c 128,-1,29
 348 350 348 350 332 380 c 2,30,-1
 309 425 l 2,31,32
 300 443 300 443 281 443 c 2,33,-1
 267 443 l 1,34,-1
 267 355 l 1,35,36
 254 350 254 350 232.5 350 c 128,-1,37
 211 350 211 350 197 355 c 1,38,-1
 197 602 l 1,39,-1
 200 604 l 1,16,-1
267 554 m 1,40,-1
 267 496 l 1,41,42
 278 497 278 497 295 497 c 0,43,44
 331 497 331 497 331 525.5 c 128,-1,45
 331 554 331 554 299 554 c 2,46,-1
 267 554 l 1,40,-1
EndSplineSet
EndChar

StartChar: asciicircum
Encoding: 94 94 134
Width: 530
Flags: HMW
HStem: 548 106
VStem: 36 458<306 306>
LayerCount: 2
Fore
SplineSet
335 648 m 1,0,-1
 494 306 l 1,1,2
 471 300 471 300 432 299.5 c 128,-1,3
 393 299 393 299 368 306 c 1,4,-1
 304 452 l 2,5,6
 303 453 303 453 269 548 c 1,7,-1
 261 548 l 1,8,9
 227 455 227 455 226 452 c 2,10,-1
 162 306 l 1,11,12
 137 299 137 299 98 299.5 c 128,-1,13
 59 300 59 300 36 306 c 1,14,-1
 195 648 l 1,15,16
 218 654 218 654 265 654 c 128,-1,17
 312 654 312 654 335 648 c 1,0,-1
EndSplineSet
EndChar

StartChar: underscore
Encoding: 95 95 135
Width: 548
Flags: HMW
HStem: -166 99<-1 549 -1 549>
VStem: -6 560<-123 -111.5>
LayerCount: 2
Fore
SplineSet
549 -166 m 1,0,-1
 -1 -166 l 1,1,2
 -6 -146 -6 -146 -6 -117 c 128,-1,3
 -6 -88 -6 -88 -1 -67 c 1,4,-1
 549 -67 l 1,5,6
 554 -88 554 -88 554 -117 c 128,-1,7
 554 -146 554 -146 549 -166 c 1,0,-1
EndSplineSet
EndChar

StartChar: section
Encoding: 167 167 136
Width: 493
Flags: HMW
HStem: -113 97<211 255.5 211 295> 600 97<238 276.5> 641 20G
VStem: 29 126<279 307> 64 130<542 568 542 586.5> 301 130<16 42> 339 126<277.5 306>
LayerCount: 2
Fore
SplineSet
465 308 m 0,0,1
 465 221 465 221 363 160 c 1,2,3
 431 114 431 114 431 44 c 128,-1,4
 431 -26 431 -26 377 -69.5 c 128,-1,5
 323 -113 323 -113 229 -113 c 128,-1,6
 135 -113 135 -113 64 -71 c 1,7,8
 62 -48 62 -48 74 -20.5 c 128,-1,9
 86 7 86 7 102 19 c 1,10,11
 179 -16 179 -16 236 -16 c 0,12,13
 265 -16 265 -16 283 -3.5 c 128,-1,14
 301 9 301 9 301 30 c 0,15,16
 301 63 301 63 250 83 c 1,17,-1
 192 107 l 2,18,19
 114 139 114 139 71.5 177.5 c 128,-1,20
 29 216 29 216 29 277 c 0,21,22
 29 364 29 364 130 425 c 1,23,24
 64 471 64 471 64 540 c 128,-1,25
 64 609 64 609 117 653 c 128,-1,26
 170 697 170 697 254 697 c 128,-1,27
 338 697 338 697 414 661 c 1,28,29
 416 638 416 638 404.5 610.5 c 128,-1,30
 393 583 393 583 377 570 c 1,31,32
 306 600 306 600 267.5 600 c 0,33,34
 194 600 194 600 194 554 c 0,35,36
 194 522 194 522 245 502 c 2,37,-1
 302 479 l 2,38,39
 380 447 380 447 422.5 408.5 c 128,-1,40
 465 370 465 370 465 308 c 0,0,1
240 374 m 2,41,-1
 217 383 l 1,42,43
 155 351 155 351 155 300 c 0,44,45
 155 271 155 271 180 250.5 c 128,-1,46
 205 230 205 230 255 211 c 2,47,-1
 278 202 l 1,48,49
 339 234 339 234 339 285 c 0,50,51
 339 314 339 314 313.5 334.5 c 128,-1,52
 288 355 288 355 240 374 c 2,41,-1
EndSplineSet
EndChar

StartChar: acute
Encoding: 180 180 137
Width: 398
Flags: HMW
HStem: 539 216<168 263>
VStem: 113 234<591 675>
LayerCount: 2
Fore
SplineSet
113 591 m 1,0,-1
 263 755 l 1,1,2
 289 747 289 747 313.5 724 c 128,-1,3
 338 701 338 701 347 675 c 1,4,-1
 168 539 l 1,5,6
 128 552 128 552 113 591 c 1,0,-1
EndSplineSet
EndChar

StartChar: grave
Encoding: 96 96 138
Width: 398
Flags: HMW
HStem: 539 216<142 236>
VStem: 58 233<591 675>
LayerCount: 2
Fore
SplineSet
142 755 m 1,0,-1
 291 591 l 1,1,2
 284 573 284 573 268.5 558.5 c 128,-1,3
 253 544 253 544 236 539 c 1,4,-1
 58 675 l 1,5,6
 66 700 66 700 91 723 c 128,-1,7
 116 746 116 746 142 755 c 1,0,-1
EndSplineSet
EndChar

StartChar: tilde
Encoding: 732 732 139
Width: 398
Flags: HMW
HStem: 555 102<268 279.5 268 288.5> 605 102<118.5 130.5>
VStem: 16 366<607 655>
LayerCount: 2
Fore
SplineSet
205 572 m 1,0,-1
 156 596 l 1,1,2
 140 605 140 605 123 605 c 0,3,4
 106 605 106 605 88 581 c 2,5,-1
 78 567 l 1,6,7
 59 568 59 568 41 579 c 128,-1,8
 23 590 23 590 16 607 c 1,9,-1
 25 627 l 1,10,11
 40 664 40 664 68.5 685.5 c 128,-1,12
 97 707 97 707 131 707 c 0,13,14
 165 707 165 707 193 691 c 1,15,-1
 242 666 l 2,16,17
 260 657 260 657 276 657 c 0,18,19
 292 657 292 657 310 682 c 2,20,-1
 320 695 l 1,21,22
 338 695 338 695 356.5 683.5 c 128,-1,23
 375 672 375 672 382 655 c 1,24,-1
 373 636 l 1,25,26
 357 598 357 598 328.5 576.5 c 128,-1,27
 300 555 300 555 267.5 555 c 0,28,29
 235 555 235 555 205 572 c 1,0,-1
EndSplineSet
EndChar

StartChar: asciitilde
Encoding: 126 126 140
Width: 610
Flags: HMW
HStem: 202 120<410.5 429 410.5 440.5> 270 121<181 199.5>
VStem: 35 540<267 326>
LayerCount: 2
Fore
SplineSet
289 371 m 2,0,-1
 370 334 l 1,1,2
 399 322 399 322 418 322 c 0,3,4
 450 322 450 322 475 352 c 1,5,-1
 497 376 l 1,6,7
 519 374 519 374 542.5 360.5 c 128,-1,8
 566 347 566 347 575 326 c 1,9,-1
 558 297 l 2,10,11
 503 202 503 202 408 202 c 0,12,13
 367 202 367 202 321 222 c 2,14,-1
 240 259 l 1,15,16
 213 270 213 270 186 270 c 0,17,18
 159 270 159 270 135 241 c 1,19,-1
 113 217 l 1,20,21
 91 219 91 219 67.5 232.5 c 128,-1,22
 44 246 44 246 35 267 c 1,23,-1
 52 296 l 2,24,25
 107 391 107 391 202 391 c 0,26,27
 243 391 243 391 289 371 c 2,0,-1
EndSplineSet
EndChar

StartChar: dieresis
Encoding: 168 168 141
Width: 398
Flags: HMW
HStem: 573 90<45 45 159 159 239 239 353 353>
VStem: 37 122 231 122
LayerCount: 2
Fore
SplineSet
231 618 m 128,-1,1
 231 643 231 643 239 663 c 1,2,3
 262 677 262 677 296 677 c 128,-1,4
 330 677 330 677 353 663 c 1,5,6
 361 643 361 643 361 617.5 c 0,7,8
 361 592 361 592 353 573 c 1,9,10
 331 559 331 559 296 559 c 128,-1,11
 261 559 261 559 239 573 c 1,12,0
 231 593 231 593 231 618 c 128,-1,1
37 618 m 128,-1,14
 37 643 37 643 45 663 c 1,15,16
 68 677 68 677 102 677 c 128,-1,17
 136 677 136 677 159 663 c 1,18,19
 167 643 167 643 167 617.5 c 0,20,21
 167 592 167 592 159 573 c 1,22,23
 137 559 137 559 102 559 c 128,-1,24
 67 559 67 559 45 573 c 1,25,13
 37 593 37 593 37 618 c 128,-1,14
EndSplineSet
EndChar

StartChar: cedilla
Encoding: 184 184 142
Width: 398
Flags: HMW
HStem: -228 21G<174 228> -228 69<174 192.5 170 228> -92 58 -92 92<178 193.5>
VStem: 219 101<-135.5 -116.5>
LayerCount: 2
Fore
SplineSet
140 -76 m 1,0,1
 149 -37 149 -37 166 0 c 1,2,-1
 239 0 l 1,3,4
 228 -19 228 -19 223 -34 c 1,5,6
 267 -37 267 -37 293.5 -61.5 c 128,-1,7
 320 -86 320 -86 320 -127.5 c 0,8,9
 320 -169 320 -169 283.5 -198.5 c 128,-1,10
 247 -228 247 -228 193.5 -228 c 0,11,12
 140 -228 140 -228 107 -206 c 1,13,14
 109 -170 109 -170 131 -146 c 1,15,16
 151 -159 151 -159 179 -159 c 0,17,18
 219 -159 219 -159 219 -126 c 0,19,20
 219 -111 219 -111 209 -101.5 c 128,-1,21
 199 -92 199 -92 185.5 -92 c 0,22,23
 172 -92 172 -92 160 -96 c 1,24,25
 145 -88 145 -88 140 -76 c 1,0,1
EndSplineSet
EndChar

StartChar: circumflex
Encoding: 710 710 143
Width: 398
Flags: HMW
HStem: 543 193
VStem: 45 308<594 604>
LayerCount: 2
Fore
SplineSet
295 549 m 1,0,-1
 202 638 l 1,1,-1
 104 543 l 1,2,3
 66 557 66 557 45 594 c 1,4,-1
 150 729 l 1,5,6
 198 745 198 745 259 729 c 1,7,-1
 353 604 l 1,8,9
 345 585 345 585 328 569.5 c 128,-1,10
 311 554 311 554 295 549 c 1,0,-1
EndSplineSet
EndChar

StartChar: macron
Encoding: 175 175 144
Width: 398
Flags: HMW
HStem: 573 98<52 347 52 347>
VStem: 52 295<573 573 573 671>
LayerCount: 2
Fore
SplineSet
347 573 m 1,0,-1
 52 573 l 1,1,2
 46 593 46 593 46 621 c 0,3,4
 46 649 46 649 52 671 c 1,5,-1
 347 671 l 1,6,7
 352 648 352 648 352 621 c 0,8,9
 352 594 352 594 347 573 c 1,0,-1
EndSplineSet
EndChar

StartChar: ae
Encoding: 230 230 145
Width: 768
Flags: HMW
HStem: -14 99<203 224> 206 92<445 607 445 719 445 607> 219 86<217 243 178.5 253> 405 103<233.5 266> 416 94<500.5 556.5>
VStem: 36 129<127.5 167 127.5 194.5> 315 130<206 330 206 355.5> 607 123<298 309 309 338>
LayerCount: 2
Fore
SplineSet
719 206 m 1,0,-1
 445 206 l 1,1,2
 448 149 448 149 470.5 118.5 c 128,-1,3
 493 88 493 88 550 88 c 0,4,5
 607 88 607 88 679 123 c 1,6,7
 709 94 709 94 717 43 c 1,8,9
 638 -14 638 -14 527.5 -14 c 0,10,11
 417 -14 417 -14 361 62 c 1,12,13
 287 -14 287 -14 186 -14 c 0,14,15
 115 -14 115 -14 75.5 31.5 c 128,-1,16
 36 77 36 77 36 136 c 0,17,18
 36 219 36 219 91.5 262 c 128,-1,19
 147 305 147 305 231 305 c 0,20,21
 276 305 276 305 315 301 c 1,22,-1
 315 330 l 2,23,24
 315 405 315 405 242 405 c 0,25,26
 185 405 185 405 89 370 c 1,27,28
 61 401 61 401 55 463 c 1,29,30
 162 508 162 508 265 508 c 0,31,32
 348 508 348 508 392 455 c 1,33,34
 449 510 449 510 535.5 510 c 0,35,36
 622 510 622 510 676 450.5 c 128,-1,37
 730 391 730 391 730 298 c 0,38,39
 730 249 730 249 719 206 c 1,0,-1
221 85 m 0,40,41
 279 85 279 85 327 139 c 1,42,43
 316 180 316 180 315 216 c 1,44,45
 277 219 277 219 241 219 c 0,46,47
 205 219 205 219 185 199 c 128,-1,48
 165 179 165 179 165 148.5 c 0,49,50
 165 118 165 118 180 101.5 c 128,-1,51
 195 85 195 85 221 85 c 0,40,41
527 416 m 0,52,53
 451 416 451 416 445 298 c 1,54,-1
 607 298 l 1,55,-1
 607 309 l 2,56,57
 607 357 607 357 588 386.5 c 128,-1,58
 569 416 569 416 527 416 c 0,52,53
EndSplineSet
Substitution2: "'smcp' Lowercase to Small Capitals lookup 2 subtable" ae.smcp
Substitution2: "'aalt' Access All Alternates lookup 0 subtable" ae.smcp
EndChar

StartChar: aacute
Encoding: 225 225 147
Width: 510
Flags: HMW
HStem: -14 99<203 218.5> 219 86<217 242.5 178.5 253> 405 103<241 265.5> 539 216<218 313>
VStem: 36 129<127.5 167 127.5 194.5> 163 234<591 675> 315 130<129 134 134 216 216 216 302 329 329 339>
LayerCount: 2
Fore
SplineSet
473 60 m 1,0,1
 468 42 468 42 455 22 c 128,-1,2
 442 2 442 2 429 -8 c 1,3,4
 364 -1 364 -1 334 49 c 1,5,6
 269 -14 269 -14 192 -14 c 0,7,8
 115 -14 115 -14 75.5 31.5 c 128,-1,9
 36 77 36 77 36 136 c 0,10,11
 36 219 36 219 91.5 262 c 128,-1,12
 147 305 147 305 231 305 c 0,13,14
 285 305 285 305 315 302 c 1,15,-1
 315 329 l 2,16,17
 315 405 315 405 241 405 c 0,18,19
 190 405 190 405 89 370 c 1,20,21
 61 401 61 401 55 463 c 1,22,23
 162 508 162 508 274 508 c 0,24,25
 349 508 349 508 397 466 c 128,-1,26
 445 424 445 424 445 339 c 2,27,-1
 445 134 l 2,28,29
 445 81 445 81 473 60 c 1,0,1
221 85 m 0,30,31
 271 85 271 85 315 129 c 1,32,-1
 315 216 l 1,33,34
 277 219 277 219 241 219 c 0,35,36
 205 219 205 219 185 199 c 128,-1,37
 165 179 165 179 165 148.5 c 0,38,39
 165 118 165 118 180 101.5 c 128,-1,40
 195 85 195 85 221 85 c 0,30,31
163 591 m 1,41,-1
 313 755 l 1,42,43
 339 747 339 747 363.5 724 c 128,-1,44
 388 701 388 701 397 675 c 1,45,-1
 218 539 l 1,46,47
 178 552 178 552 163 591 c 1,41,-1
EndSplineSet
Substitution2: "'smcp' Lowercase to Small Capitals lookup 2 subtable" aacute.smcp
Substitution2: "'aalt' Access All Alternates lookup 0 subtable" aacute.smcp
EndChar

StartChar: adieresis
Encoding: 228 228 149
Width: 510
Flags: HMW
HStem: -14 99<203 218.5> 219 86<217 242.5 178.5 253> 405 103<241 265.5> 573 90<93 93 207 207 287 287 401 401>
VStem: 36 129<127.5 167 127.5 194.5> 85 122 279 122 315 130<129 134 134 216 216 216 302 329 329 339>
LayerCount: 2
Fore
SplineSet
473 60 m 1,0,1
 468 42 468 42 455 22 c 128,-1,2
 442 2 442 2 429 -8 c 1,3,4
 364 -1 364 -1 334 49 c 1,5,6
 269 -14 269 -14 192 -14 c 0,7,8
 115 -14 115 -14 75.5 31.5 c 128,-1,9
 36 77 36 77 36 136 c 0,10,11
 36 219 36 219 91.5 262 c 128,-1,12
 147 305 147 305 231 305 c 0,13,14
 285 305 285 305 315 302 c 1,15,-1
 315 329 l 2,16,17
 315 405 315 405 241 405 c 0,18,19
 190 405 190 405 89 370 c 1,20,21
 61 401 61 401 55 463 c 1,22,23
 162 508 162 508 274 508 c 0,24,25
 349 508 349 508 397 466 c 128,-1,26
 445 424 445 424 445 339 c 2,27,-1
 445 134 l 2,28,29
 445 81 445 81 473 60 c 1,0,1
221 85 m 0,30,31
 271 85 271 85 315 129 c 1,32,-1
 315 216 l 1,33,34
 277 219 277 219 241 219 c 0,35,36
 205 219 205 219 185 199 c 128,-1,37
 165 179 165 179 165 148.5 c 0,38,39
 165 118 165 118 180 101.5 c 128,-1,40
 195 85 195 85 221 85 c 0,30,31
279 618 m 128,-1,42
 279 643 279 643 287 663 c 1,43,44
 310 677 310 677 344 677 c 128,-1,45
 378 677 378 677 401 663 c 1,46,47
 409 643 409 643 409 617.5 c 0,48,49
 409 592 409 592 401 573 c 1,50,51
 379 559 379 559 344 559 c 128,-1,52
 309 559 309 559 287 573 c 1,53,41
 279 593 279 593 279 618 c 128,-1,42
85 618 m 128,-1,55
 85 643 85 643 93 663 c 1,56,57
 116 677 116 677 150 677 c 128,-1,58
 184 677 184 677 207 663 c 1,59,60
 215 643 215 643 215 617.5 c 0,61,62
 215 592 215 592 207 573 c 1,63,64
 185 559 185 559 150 559 c 128,-1,65
 115 559 115 559 93 573 c 1,66,54
 85 593 85 593 85 618 c 128,-1,55
EndSplineSet
Substitution2: "'smcp' Lowercase to Small Capitals lookup 2 subtable" adieresis.smcp
Substitution2: "'aalt' Access All Alternates lookup 0 subtable" adieresis.smcp
EndChar

StartChar: aring
Encoding: 229 229 151
Width: 510
Flags: HMW
HStem: -14 99<203 218.5> 219 86<217 242.5 178.5 253> 405 103<241 265.5> 541 69<232 262 232 286.5> 715 68<232 262>
VStem: 36 129<127.5 167 127.5 194.5> 116 81<647 677 647 695.5> 297 81<647 677> 315 130<129 134 134 216 216 216 302 329 329 339>
LayerCount: 2
Fore
SplineSet
473 60 m 1,0,1
 468 42 468 42 455 22 c 128,-1,2
 442 2 442 2 429 -8 c 1,3,4
 364 -1 364 -1 334 49 c 1,5,6
 269 -14 269 -14 192 -14 c 0,7,8
 115 -14 115 -14 75.5 31.5 c 128,-1,9
 36 77 36 77 36 136 c 0,10,11
 36 219 36 219 91.5 262 c 128,-1,12
 147 305 147 305 231 305 c 0,13,14
 285 305 285 305 315 302 c 1,15,-1
 315 329 l 2,16,17
 315 405 315 405 241 405 c 0,18,19
 190 405 190 405 89 370 c 1,20,21
 61 401 61 401 55 463 c 1,22,23
 162 508 162 508 274 508 c 0,24,25
 349 508 349 508 397 466 c 128,-1,26
 445 424 445 424 445 339 c 2,27,-1
 445 134 l 2,28,29
 445 81 445 81 473 60 c 1,0,1
221 85 m 0,30,31
 271 85 271 85 315 129 c 1,32,-1
 315 216 l 1,33,34
 277 219 277 219 241 219 c 0,35,36
 205 219 205 219 185 199 c 128,-1,37
 165 179 165 179 165 148.5 c 0,38,39
 165 118 165 118 180 101.5 c 128,-1,40
 195 85 195 85 221 85 c 0,30,31
116 662 m 128,-1,42
 116 713 116 713 152.5 748 c 128,-1,43
 189 783 189 783 247 783 c 128,-1,44
 305 783 305 783 341.5 748 c 128,-1,45
 378 713 378 713 378 662 c 128,-1,46
 378 611 378 611 341.5 576 c 128,-1,47
 305 541 305 541 247 541 c 128,-1,48
 189 541 189 541 152.5 576 c 128,-1,41
 116 611 116 611 116 662 c 128,-1,42
197 662 m 128,-1,50
 197 639 197 639 211 624.5 c 128,-1,51
 225 610 225 610 247 610 c 128,-1,52
 269 610 269 610 283 624.5 c 128,-1,53
 297 639 297 639 297 662 c 128,-1,54
 297 685 297 685 283 700 c 128,-1,55
 269 715 269 715 247 715 c 128,-1,56
 225 715 225 715 211 700 c 128,-1,49
 197 685 197 685 197 662 c 128,-1,50
EndSplineSet
Substitution2: "'smcp' Lowercase to Small Capitals lookup 2 subtable" aring.smcp
Substitution2: "'aalt' Access All Alternates lookup 0 subtable" aring.smcp
EndChar

StartChar: ccedilla
Encoding: 231 231 152
Width: 473
Flags: HMW
HStem: -228 21G<224 278> -228 69<224 242.5 220 278> -92 58 412 98<223.5 282>
VStem: 37 134<189.5 302.5 189.5 341> 269 101<-135.5 -116.5> 324 118
LayerCount: 2
Fore
SplineSet
190 -76 m 1,0,1
 201 -35 201 -35 211 -11 c 1,2,3
 125 2 125 2 81 71.5 c 128,-1,4
 37 141 37 141 37 246 c 0,5,6
 37 379 37 379 100.5 444.5 c 128,-1,7
 164 510 164 510 251.5 510 c 0,8,9
 339 510 339 510 390.5 464 c 128,-1,10
 442 418 442 418 442 352 c 0,11,12
 442 320 442 320 425 302.5 c 128,-1,13
 408 285 408 285 376 285 c 0,14,15
 344 285 344 285 324 290 c 1,16,17
 325 350 325 350 309.5 381 c 128,-1,18
 294 412 294 412 251 412 c 0,19,20
 171 412 171 412 171 246 c 0,21,22
 171 163 171 163 195.5 126.5 c 128,-1,23
 220 90 220 90 271.5 90 c 0,24,25
 323 90 323 90 386 136 c 1,26,27
 402 126 402 126 417.5 103.5 c 128,-1,28
 433 81 433 81 437 61 c 1,29,30
 376 0 376 0 283 -12 c 1,31,32
 276 -25 276 -25 273 -34 c 1,33,34
 317 -37 317 -37 343.5 -61.5 c 128,-1,35
 370 -86 370 -86 370 -127.5 c 0,36,37
 370 -169 370 -169 333.5 -198.5 c 128,-1,38
 297 -228 297 -228 243 -228 c 0,39,40
 189 -228 189 -228 158 -206 c 1,41,42
 160 -171 160 -171 181 -146 c 1,43,44
 203 -159 203 -159 229 -159 c 0,45,46
 269 -159 269 -159 269 -126 c 0,47,48
 269 -111 269 -111 259 -101.5 c 128,-1,49
 249 -92 249 -92 236.5 -92 c 0,50,51
 224 -92 224 -92 210 -96 c 1,52,53
 197 -89 197 -89 190 -76 c 1,0,1
EndSplineSet
Substitution2: "'smcp' Lowercase to Small Capitals lookup 2 subtable" ccedilla.smcp
Substitution2: "'aalt' Access All Alternates lookup 0 subtable" ccedilla.smcp
EndChar

StartChar: eacute
Encoding: 233 233 154
Width: 498
Flags: HMW
HStem: -14 102<234 287> 206 92<170 335 169 446 170 170> 416 94<226 282.5> 539 216<225 320>
VStem: 37 132<298 298 298 321> 170 234<591 675> 335 122<298 310 310 339>
LayerCount: 2
Fore
SplineSet
446 206 m 1,0,-1
 170 206 l 1,1,2
 173 150 173 150 196 119 c 128,-1,3
 219 88 219 88 275.5 88 c 128,-1,4
 332 88 332 88 407 122 c 1,5,6
 436 93 436 93 444 43 c 1,7,8
 365 -14 365 -14 252 -14 c 0,9,10
 115.102941176 -14 115.102941176 -14 64.5 97 c 0,11,12
 37 157.322580645 37 157.322580645 37 246 c 0,13,14
 37 365 37 365 91.5 437.5 c 128,-1,15
 146 510 146 510 247.5 510 c 128,-1,16
 349 510 349 510 403 450.5 c 128,-1,17
 457 391 457 391 457 298 c 0,18,19
 457 249 457 249 446 206 c 1,0,-1
253 416 m 0,20,21
 175 416 175 416 169 298 c 1,22,-1
 335 298 l 1,23,-1
 335 310 l 2,24,25
 335 357 335 357 315 386.5 c 128,-1,26
 295 416 295 416 253 416 c 0,20,21
170 591 m 1,27,-1
 320 755 l 1,28,29
 346 747 346 747 370.5 724 c 128,-1,30
 395 701 395 701 404 675 c 1,31,-1
 225 539 l 1,32,33
 185 552 185 552 170 591 c 1,27,-1
EndSplineSet
Substitution2: "'smcp' Lowercase to Small Capitals lookup 2 subtable" eacute.smcp
Substitution2: "'aalt' Access All Alternates lookup 0 subtable" eacute.smcp
EndChar

StartChar: edieresis
Encoding: 235 235 156
Width: 498
Flags: HMW
HStem: -14 102<234 287> 206 92<170 335 169 446 170 170> 416 94<226 282.5> 573 90<101 101 215 215 295 295 409 409>
VStem: 37 132<298 298 298 321> 93 122 287 122 335 122<298 310 310 339>
LayerCount: 2
Fore
SplineSet
446 206 m 1,0,-1
 170 206 l 1,1,2
 173 150 173 150 196 119 c 128,-1,3
 219 88 219 88 275.5 88 c 128,-1,4
 332 88 332 88 407 122 c 1,5,6
 436 93 436 93 444 43 c 1,7,8
 365 -14 365 -14 252 -14 c 0,9,10
 115.102941176 -14 115.102941176 -14 64.5 97 c 0,11,12
 37 157.322580645 37 157.322580645 37 246 c 0,13,14
 37 365 37 365 91.5 437.5 c 128,-1,15
 146 510 146 510 247.5 510 c 128,-1,16
 349 510 349 510 403 450.5 c 128,-1,17
 457 391 457 391 457 298 c 0,18,19
 457 249 457 249 446 206 c 1,0,-1
253 416 m 0,20,21
 175 416 175 416 169 298 c 1,22,-1
 335 298 l 1,23,-1
 335 310 l 2,24,25
 335 357 335 357 315 386.5 c 128,-1,26
 295 416 295 416 253 416 c 0,20,21
287 618 m 128,-1,28
 287 643 287 643 295 663 c 1,29,30
 318 677 318 677 352 677 c 128,-1,31
 386 677 386 677 409 663 c 1,32,33
 417 643 417 643 417 617.5 c 128,-1,34
 417 592 417 592 409 573 c 1,35,36
 387 559 387 559 352 559 c 128,-1,37
 317 559 317 559 295 573 c 1,38,27
 287 593 287 593 287 618 c 128,-1,28
93 618 m 128,-1,40
 93 643 93 643 101 663 c 1,41,42
 124 677 124 677 158 677 c 128,-1,43
 192 677 192 677 215 663 c 1,44,45
 223 643 223 643 223 617.5 c 128,-1,46
 223 592 223 592 215 573 c 1,47,48
 193 559 193 559 158 559 c 128,-1,49
 123 559 123 559 101 573 c 1,50,39
 93 593 93 593 93 618 c 128,-1,40
EndSplineSet
Substitution2: "'smcp' Lowercase to Small Capitals lookup 2 subtable" edieresis.smcp
Substitution2: "'aalt' Access All Alternates lookup 0 subtable" edieresis.smcp
EndChar

StartChar: hbar
Encoding: 295 295 157
Width: 546
Flags: HMW
HStem: 388 117<316.5 318.5> 563 84
VStem: 72 127<0 340 444 564 646 655> 350 131<97.5 116 116 307 307 334>
LayerCount: 2
Fore
SplineSet
199 655 m 2,0,-1
 199 646 l 1,1,-1
 351 648 l 1,2,3
 356 627 356 627 356 604.5 c 0,4,5
 356 582 356 582 351 563 c 1,6,-1
 199 564 l 1,7,-1
 199 444 l 1,8,9
 269 505 269 505 340.5 505 c 0,10,11
 412 505 412 505 446.5 458 c 128,-1,12
 481 411 481 411 481 334 c 2,13,-1
 481 116 l 2,14,15
 481 52 481 52 502 21 c 1,16,17
 469 -7 469 -7 425.5 -7 c 0,18,19
 382 -7 382 -7 366 13 c 128,-1,20
 350 33 350 33 350 74 c 2,21,-1
 350 307 l 2,22,23
 350 351 350 351 339 369.5 c 128,-1,24
 328 388 328 388 298 388 c 0,25,26
 246 388 246 388 199 340 c 1,27,-1
 199 0 l 1,28,29
 169 -5 169 -5 136.5 -5 c 0,30,31
 104 -5 104 -5 72 0 c 1,32,-1
 72 564 l 1,33,-1
 -1 563 l 1,34,35
 -7 586 -7 586 -7 604 c 0,36,37
 -7 622 -7 622 -1 648 c 1,38,-1
 72 646 l 1,39,-1
 72 729 l 1,40,-1
 78 736 l 1,41,-1
 129 736 l 2,42,43
 168 736 168 736 183.5 717.5 c 128,-1,44
 199 699 199 699 199 655 c 2,0,-1
EndSplineSet
Substitution2: "'smcp' Lowercase to Small Capitals lookup 2 subtable" hbar.smcp
Substitution2: "'aalt' Access All Alternates lookup 0 subtable" hbar.smcp
EndChar

StartChar: dotlessi
Encoding: 305 305 158
Width: 285
Flags: HMW
HStem: 403 97<29 122 29 122> 475 20G
VStem: 87 131<0 348 348 365>
LayerCount: 2
Fore
SplineSet
218 395 m 2,0,-1
 218 0 l 1,1,2
 188 -5 188 -5 153.5 -5 c 0,3,4
 119 -5 119 -5 87 0 c 1,5,-1
 87 348 l 2,6,7
 87 403 87 403 42 403 c 2,8,-1
 29 403 l 1,9,10
 23 426 23 426 23 449 c 0,11,12
 23 472 23 472 29 495 c 1,13,14
 76 500 76 500 105 500 c 2,15,-1
 122 500 l 2,16,17
 166 500 166 500 192 472 c 128,-1,18
 218 444 218 444 218 395 c 2,0,-1
EndSplineSet
EndChar

StartChar: itilde
Encoding: 297 297 159
Width: 279
Flags: HMW
HStem: 403 97<24 117 24 117> 475 20G 555 102<196 207.5 196 216.5>
VStem: -56 366<607 655> 82 131<0 348 348 365>
LayerCount: 2
Fore
SplineSet
213 395 m 2,0,-1
 213 0 l 1,1,2
 183 -5 183 -5 148.5 -5 c 0,3,4
 114 -5 114 -5 82 0 c 1,5,-1
 82 348 l 2,6,7
 82 403 82 403 37 403 c 2,8,-1
 24 403 l 1,9,10
 18 426 18 426 18 449 c 0,11,12
 18 472 18 472 24 495 c 1,13,14
 71 500 71 500 100 500 c 2,15,-1
 117 500 l 2,16,17
 161 500 161 500 187 472 c 128,-1,18
 213 444 213 444 213 395 c 2,0,-1
133 572 m 1,19,-1
 84 596 l 1,20,21
 68 605 68 605 51 605 c 0,22,23
 34 605 34 605 16 581 c 2,24,-1
 6 567 l 1,25,26
 -13 568 -13 568 -31 579 c 128,-1,27
 -49 590 -49 590 -56 607 c 1,28,-1
 -47 627 l 1,29,30
 -32 664 -32 664 -3.5 685.5 c 128,-1,31
 25 707 25 707 59 707 c 0,32,33
 93 707 93 707 121 691 c 1,34,-1
 170 666 l 2,35,36
 188 657 188 657 204 657 c 0,37,38
 220 657 220 657 238 682 c 2,39,-1
 248 695 l 1,40,41
 266 695 266 695 284.5 683.5 c 128,-1,42
 303 672 303 672 310 655 c 1,43,-1
 301 636 l 1,44,45
 285 598 285 598 256.5 576.5 c 128,-1,46
 228 555 228 555 195.5 555 c 0,47,48
 163 555 163 555 133 572 c 1,19,-1
EndSplineSet
Substitution2: "'smcp' Lowercase to Small Capitals lookup 2 subtable" itilde.smcp
Substitution2: "'aalt' Access All Alternates lookup 0 subtable" itilde.smcp
EndChar

StartChar: ij
Encoding: 307 307 160
Width: 570
Flags: HMW
HStem: -220 21G 403 97<29 122 29 122> 475 20G 585 104<67 67 197 197 350 350 480 480>
VStem: 57 140 87 131<0 348 348 365> 375 128<-17 24 24 348 348 365>
LayerCount: 2
Fore
SplineSet
218 395 m 2,0,-1
 218 0 l 1,1,2
 188 -5 188 -5 153.5 -5 c 0,3,4
 119 -5 119 -5 87 0 c 1,5,-1
 87 348 l 2,6,7
 87 403 87 403 42 403 c 2,8,-1
 29 403 l 1,9,10
 23 426 23 426 23 449 c 0,11,12
 23 472 23 472 29 495 c 1,13,14
 76 500 76 500 105 500 c 2,15,-1
 122 500 l 2,16,17
 166 500 166 500 192 472 c 128,-1,18
 218 444 218 444 218 395 c 2,0,-1
57 637 m 128,-1,20
 57 666 57 666 67 689 c 1,21,22
 91 702 91 702 133.5 702 c 0,23,24
 176 702 176 702 197 689 c 1,25,26
 207 666 207 666 207 637 c 128,-1,27
 207 608 207 608 197 585 c 1,28,29
 174 571 174 571 132 571 c 128,-1,30
 90 571 90 571 67 585 c 1,31,19
 57 608 57 608 57 637 c 128,-1,20
503 395 m 2,32,-1
 503 24 l 2,33,34
 503 -34 503 -34 497.5 -69.5 c 128,-1,35
 492 -105 492 -105 474.5 -137 c 128,-1,36
 457 -169 457 -169 423 -188.5 c 128,-1,37
 389 -208 389 -208 334 -220 c 1,38,39
 301 -191 301 -191 298 -140 c 1,40,41
 342 -120 342 -120 358.5 -94.5 c 128,-1,42
 375 -69 375 -69 375 -17 c 2,43,-1
 375 348 l 2,44,45
 375 403 375 403 329 403 c 2,46,-1
 307 403 l 1,47,48
 301 426 301 426 301 449 c 0,49,50
 301 472 301 472 307 495 c 1,51,52
 359 500 359 500 392 500 c 2,53,-1
 410 500 l 2,54,55
 453 500 453 500 478 472 c 128,-1,56
 503 444 503 444 503 395 c 2,32,-1
340 637 m 128,-1,58
 340 666 340 666 350 689 c 1,59,60
 374 702 374 702 416.5 702 c 0,61,62
 459 702 459 702 480 689 c 1,63,64
 490 666 490 666 490 637 c 128,-1,65
 490 608 490 608 480 585 c 1,66,67
 457 571 457 571 415 571 c 128,-1,68
 373 571 373 571 350 585 c 1,69,57
 340 608 340 608 340 637 c 128,-1,58
EndSplineSet
Substitution2: "'smcp' Lowercase to Small Capitals lookup 2 subtable" ij.smcp
Substitution2: "'aalt' Access All Alternates lookup 0 subtable" ij.smcp
EndChar

StartChar: igrave
Encoding: 236 236 161
Width: 279
Flags: HMW
HStem: 403 97<24 117 24 117> 475 20G 539 216<71 165>
VStem: -13 233<591 675> 82 131<0 348 348 365>
LayerCount: 2
Fore
SplineSet
213 395 m 2,0,-1
 213 0 l 1,1,2
 183 -5 183 -5 148.5 -5 c 0,3,4
 114 -5 114 -5 82 0 c 1,5,-1
 82 348 l 2,6,7
 82 403 82 403 37 403 c 2,8,-1
 24 403 l 1,9,10
 18 426 18 426 18 449 c 0,11,12
 18 472 18 472 24 495 c 1,13,14
 71 500 71 500 100 500 c 2,15,-1
 117 500 l 2,16,17
 161 500 161 500 187 472 c 128,-1,18
 213 444 213 444 213 395 c 2,0,-1
71 755 m 1,19,-1
 220 591 l 1,20,21
 213 573 213 573 197.5 558.5 c 128,-1,22
 182 544 182 544 165 539 c 1,23,-1
 -13 675 l 1,24,25
 -5 700 -5 700 20 723 c 128,-1,26
 45 746 45 746 71 755 c 1,19,-1
EndSplineSet
Substitution2: "'smcp' Lowercase to Small Capitals lookup 2 subtable" igrave.smcp
Substitution2: "'aalt' Access All Alternates lookup 0 subtable" igrave.smcp
EndChar

StartChar: iacute
Encoding: 237 237 162
Width: 279
Flags: HMW
HStem: 403 97<24 117 24 117> 475 20G 539 216<97 192>
VStem: 42 234<591 675> 82 131<0 348 348 365>
LayerCount: 2
Fore
SplineSet
213 395 m 2,0,-1
 213 0 l 1,1,2
 183 -5 183 -5 148.5 -5 c 0,3,4
 114 -5 114 -5 82 0 c 1,5,-1
 82 348 l 2,6,7
 82 403 82 403 37 403 c 2,8,-1
 24 403 l 1,9,10
 18 426 18 426 18 449 c 0,11,12
 18 472 18 472 24 495 c 1,13,14
 71 500 71 500 100 500 c 2,15,-1
 117 500 l 2,16,17
 161 500 161 500 187 472 c 128,-1,18
 213 444 213 444 213 395 c 2,0,-1
42 591 m 1,19,-1
 192 755 l 1,20,21
 218 747 218 747 242.5 724 c 128,-1,22
 267 701 267 701 276 675 c 1,23,-1
 97 539 l 1,24,25
 57 552 57 552 42 591 c 1,19,-1
EndSplineSet
Substitution2: "'smcp' Lowercase to Small Capitals lookup 2 subtable" iacute.smcp
Substitution2: "'aalt' Access All Alternates lookup 0 subtable" iacute.smcp
EndChar

StartChar: icircumflex
Encoding: 238 238 163
Width: 279
Flags: HMW
HStem: 403 97<24 117 24 117> 475 20G 543 193
VStem: -27 308<594 604> 82 131<0 348 348 365>
LayerCount: 2
Fore
SplineSet
213 395 m 2,0,-1
 213 0 l 1,1,2
 183 -5 183 -5 148.5 -5 c 0,3,4
 114 -5 114 -5 82 0 c 1,5,-1
 82 348 l 2,6,7
 82 403 82 403 37 403 c 2,8,-1
 24 403 l 1,9,10
 18 426 18 426 18 449 c 0,11,12
 18 472 18 472 24 495 c 1,13,14
 71 500 71 500 100 500 c 2,15,-1
 117 500 l 2,16,17
 161 500 161 500 187 472 c 128,-1,18
 213 444 213 444 213 395 c 2,0,-1
223 549 m 1,19,-1
 130 638 l 1,20,-1
 32 543 l 1,21,22
 -6 557 -6 557 -27 594 c 1,23,-1
 78 729 l 1,24,25
 126 745 126 745 187 729 c 1,26,-1
 281 604 l 1,27,28
 273 585 273 585 256 569.5 c 128,-1,29
 239 554 239 554 223 549 c 1,19,-1
EndSplineSet
Substitution2: "'smcp' Lowercase to Small Capitals lookup 2 subtable" icircumflex.smcp
Substitution2: "'aalt' Access All Alternates lookup 0 subtable" icircumflex.smcp
EndChar

StartChar: idieresis
Encoding: 239 239 164
Width: 279
Flags: HMW
HStem: 403 97<24 117 24 117> 475 20G 573 90<-27 -27 87 87 167 167 281 281>
VStem: -35 122 82 131<0 348 348 365> 159 122
LayerCount: 2
Fore
SplineSet
213 395 m 2,0,-1
 213 0 l 1,1,2
 183 -5 183 -5 148.5 -5 c 0,3,4
 114 -5 114 -5 82 0 c 1,5,-1
 82 348 l 2,6,7
 82 403 82 403 37 403 c 2,8,-1
 24 403 l 1,9,10
 18 426 18 426 18 449 c 0,11,12
 18 472 18 472 24 495 c 1,13,14
 71 500 71 500 100 500 c 2,15,-1
 117 500 l 2,16,17
 161 500 161 500 187 472 c 128,-1,18
 213 444 213 444 213 395 c 2,0,-1
159 618 m 128,-1,20
 159 643 159 643 167 663 c 1,21,22
 190 677 190 677 224 677 c 128,-1,23
 258 677 258 677 281 663 c 1,24,25
 289 643 289 643 289 617.5 c 0,26,27
 289 592 289 592 281 573 c 1,28,29
 259 559 259 559 224 559 c 128,-1,30
 189 559 189 559 167 573 c 1,31,19
 159 593 159 593 159 618 c 128,-1,20
-35 618 m 128,-1,33
 -35 643 -35 643 -27 663 c 1,34,35
 -4 677 -4 677 30 677 c 128,-1,36
 64 677 64 677 87 663 c 1,37,38
 95 643 95 643 95 617.5 c 0,39,40
 95 592 95 592 87 573 c 1,41,42
 65 559 65 559 30 559 c 128,-1,43
 -5 559 -5 559 -27 573 c 1,44,32
 -35 593 -35 593 -35 618 c 128,-1,33
EndSplineSet
Substitution2: "'smcp' Lowercase to Small Capitals lookup 2 subtable" idieresis.smcp
Substitution2: "'aalt' Access All Alternates lookup 0 subtable" idieresis.smcp
EndChar

StartChar: jcircumflex
Encoding: 309 309 165
Width: 284
Flags: HMW
HStem: -220 21G 403 97<21 124 21 124> 475 20G 543 193
VStem: -25 308<594 604> 89 128<-17 24 24 348 348 365>
LayerCount: 2
Fore
SplineSet
217 395 m 2,0,-1
 217 24 l 2,1,2
 217 -34 217 -34 211.5 -69.5 c 128,-1,3
 206 -105 206 -105 188.5 -137 c 128,-1,4
 171 -169 171 -169 137 -188.5 c 128,-1,5
 103 -208 103 -208 48 -220 c 1,6,7
 15 -191 15 -191 12 -140 c 1,8,9
 56 -120 56 -120 72.5 -94.5 c 128,-1,10
 89 -69 89 -69 89 -17 c 2,11,-1
 89 348 l 2,12,13
 89 403 89 403 43 403 c 2,14,-1
 21 403 l 1,15,16
 15 426 15 426 15 449 c 0,17,18
 15 472 15 472 21 495 c 1,19,20
 73 500 73 500 106 500 c 2,21,-1
 124 500 l 2,22,23
 167 500 167 500 192 472 c 128,-1,24
 217 444 217 444 217 395 c 2,0,-1
225 549 m 1,25,-1
 132 638 l 1,26,-1
 34 543 l 1,27,28
 -4 557 -4 557 -25 594 c 1,29,-1
 80 729 l 1,30,31
 128 745 128 745 189 729 c 1,32,-1
 283 604 l 1,33,34
 275 585 275 585 258 569.5 c 128,-1,35
 241 554 241 554 225 549 c 1,25,-1
EndSplineSet
Substitution2: "'smcp' Lowercase to Small Capitals lookup 2 subtable" jcircumflex.smcp
Substitution2: "'aalt' Access All Alternates lookup 0 subtable" jcircumflex.smcp
EndChar

StartChar: kcommaaccent
Encoding: 311 311 166
Width: 513
Flags: HMW
HStem: -278 21G -224 21G -73 21 207 108<221 252.5> 490 10
VStem: 69 127<0 205 0 314 314 655> 229 117<-146.5 -117.5>
LayerCount: 2
Fore
SplineSet
424 193 m 2,0,-1
 453 115 l 1,1,2
 475 52 475 52 501 33 c 1,3,4
 466 -7 466 -7 413 -7 c 0,5,6
 383 -7 383 -7 368 7.5 c 128,-1,7
 353 22 353 22 340 57 c 2,8,-1
 306 149 l 2,9,10
 293 183 293 183 277.5 195 c 128,-1,11
 262 207 262 207 241 207 c 0,12,13
 220 207 220 207 196 205 c 1,14,-1
 196 0 l 1,15,16
 166 -5 166 -5 132.5 -5 c 0,17,18
 99 -5 99 -5 69 0 c 1,19,-1
 69 729 l 1,20,-1
 75 736 l 1,21,-1
 126 736 l 2,22,23
 165 736 165 736 180.5 717.5 c 128,-1,24
 196 699 196 699 196 655 c 2,25,-1
 196 314 l 1,26,-1
 221 315 l 2,27,28
 238 315 238 315 247 331 c 2,29,-1
 316 450 l 1,30,31
 343 500 343 500 394 500 c 0,32,33
 418 500 418 500 466 498 c 1,34,-1
 472 490 l 1,35,-1
 379 330 l 1,36,37
 363 299 363 299 337 281 c 1,38,39
 398 261 398 261 424 193 c 2,0,-1
335 -59 m 1,40,41
 346 -83 346 -83 346 -115 c 0,42,43
 346 -170 346 -170 309 -213 c 128,-1,44
 272 -256 272 -256 207 -278 c 1,45,46
 175 -267 175 -267 166 -224 c 1,47,48
 229 -185 229 -185 229 -126 c 0,49,50
 229 -96 229 -96 216 -73 c 1,51,52
 239 -57 239 -57 273 -53 c 128,-1,53
 307 -49 307 -49 335 -59 c 1,40,41
EndSplineSet
Substitution2: "'smcp' Lowercase to Small Capitals lookup 2 subtable" kcommaaccent.smcp
Substitution2: "'aalt' Access All Alternates lookup 0 subtable" kcommaaccent.smcp
EndChar

StartChar: kgreenlandic
Encoding: 312 312 167
Width: 513
Flags: HMW
HStem: 207 108<221 252.5> 490 10
VStem: 69 127<0 205 0 314 314 422>
LayerCount: 2
Fore
SplineSet
424 193 m 2,0,-1
 453 115 l 1,1,2
 475 52 475 52 501 33 c 1,3,4
 466 -7 466 -7 413 -7 c 0,5,6
 383 -7 383 -7 368 7.5 c 128,-1,7
 353 22 353 22 340 57 c 2,8,-1
 306 149 l 2,9,10
 293 183 293 183 277.5 195 c 128,-1,11
 262 207 262 207 241 207 c 0,12,13
 220 207 220 207 196 205 c 1,14,-1
 196 0 l 1,15,16
 166 -5 166 -5 132.5 -5 c 0,17,18
 99 -5 99 -5 69 0 c 1,19,-1
 69 495 l 1,20,-1
 75 502 l 1,21,-1
 126 502 l 2,22,23
 165 502 165 502 180.5 484 c 128,-1,24
 196 466 196 466 196 422 c 2,25,-1
 196 314 l 1,26,-1
 221 315 l 2,27,28
 238 315 238 315 247 331 c 2,29,-1
 316 450 l 1,30,31
 343 500 343 500 394 500 c 0,32,33
 418 500 418 500 466 498 c 1,34,-1
 472 490 l 1,35,-1
 379 330 l 1,36,37
 363 299 363 299 337 281 c 1,38,39
 398 261 398 261 424 193 c 2,0,-1
EndSplineSet
Substitution2: "'smcp' Lowercase to Small Capitals lookup 2 subtable" kgreenlandic.smcp
Substitution2: "'aalt' Access All Alternates lookup 0 subtable" kgreenlandic.smcp
EndChar

StartChar: ldot
Encoding: 320 320 168
Width: 377
Flags: HMW
HStem: -5 101<140 268> 305 106<259 259 379 379>
VStem: 67 128<127 142 142 655> 251 128
LayerCount: 2
Fore
SplineSet
237 96 m 2,0,-1
 268 96 l 1,1,2
 279 68 279 68 279 42 c 0,3,4
 279 16 279 16 276 4 c 1,5,6
 215 -5 215 -5 179 -5 c 0,7,8
 121 -5 121 -5 94 24.5 c 128,-1,9
 67 54 67 54 67 117 c 2,10,-1
 67 729 l 1,11,-1
 74 736 l 1,12,-1
 124 736 l 2,13,14
 163 736 163 736 179 717.5 c 128,-1,15
 195 699 195 699 195 655 c 2,16,-1
 195 142 l 2,17,18
 195 96 195 96 237 96 c 2,0,-1
251 358 m 128,-1,20
 251 392 251 392 259 411 c 1,21,22
 287 426 287 426 320 426 c 128,-1,23
 353 426 353 426 379 411 c 1,24,25
 388 390 388 390 388 358 c 128,-1,26
 388 326 388 326 379 305 c 1,27,28
 358 289 358 289 320.5 289 c 0,29,30
 283 289 283 289 259 305 c 1,31,19
 251 324 251 324 251 358 c 128,-1,20
EndSplineSet
Substitution2: "'smcp' Lowercase to Small Capitals lookup 2 subtable" ldot.smcp
Substitution2: "'aalt' Access All Alternates lookup 0 subtable" ldot.smcp
EndChar

StartChar: lslash
Encoding: 322 322 169
Width: 349
Flags: HMW
HStem: -5 101<173 301>
VStem: 100 127<127 142 142 283 283 283 453 655>
LayerCount: 2
Fore
SplineSet
269 96 m 2,0,-1
 301 96 l 1,1,2
 311 70 311 70 311 41 c 0,3,4
 311 12 311 12 309 4 c 1,5,6
 248 -5 248 -5 212 -5 c 0,7,8
 154 -5 154 -5 127 24.5 c 128,-1,9
 100 54 100 54 100 117 c 2,10,-1
 100 283 l 1,11,-1
 32 249 l 1,12,-1
 22 254 l 1,13,14
 9 296 9 296 20 349 c 1,15,-1
 100 389 l 1,16,-1
 100 729 l 1,17,-1
 107 736 l 1,18,-1
 156 736 l 2,19,20
 195 736 195 736 211 717.5 c 128,-1,21
 227 699 227 699 227 655 c 2,22,-1
 227 453 l 1,23,-1
 304 492 l 1,24,-1
 313 487 l 1,25,26
 326 447 326 447 315 392 c 1,27,-1
 227 347 l 1,28,-1
 227 142 l 2,29,30
 227 96 227 96 269 96 c 2,0,-1
EndSplineSet
Substitution2: "'smcp' Lowercase to Small Capitals lookup 2 subtable" lslash.smcp
Substitution2: "'aalt' Access All Alternates lookup 0 subtable" lslash.smcp
EndChar

StartChar: ntilde
Encoding: 241 241 171
Width: 546
Flags: HMW
HStem: 388 117<316 318.5> 482 20G<75 125 125 145> 555 102<349 360.5 349 369.5>
VStem: 69 130<0 340 0 495> 97 366<607 655> 350 131<97.5 116 116 307 307 334>
LayerCount: 2
Fore
SplineSet
481 334 m 2,0,-1
 481 116 l 2,1,2
 481 52 481 52 502 21 c 1,3,4
 469 -7 469 -7 425.5 -7 c 0,5,6
 382 -7 382 -7 366 13 c 128,-1,7
 350 33 350 33 350 74 c 2,8,-1
 350 307 l 2,9,10
 350 351 350 351 339 369.5 c 128,-1,11
 328 388 328 388 298 388 c 0,12,13
 246 388 246 388 199 340 c 1,14,-1
 199 0 l 1,15,16
 169 -5 169 -5 134 -5 c 128,-1,17
 99 -5 99 -5 69 0 c 1,18,-1
 69 495 l 1,19,-1
 75 502 l 1,20,-1
 125 502 l 2,21,22
 182 502 182 502 195 442 c 1,23,24
 268 505 268 505 340 505 c 0,25,26
 412 505 412 505 446.5 458 c 128,-1,27
 481 411 481 411 481 334 c 2,0,-1
286 572 m 1,28,-1
 237 596 l 1,29,30
 221 605 221 605 204 605 c 0,31,32
 187 605 187 605 169 581 c 2,33,-1
 159 567 l 1,34,35
 140 568 140 568 122 579 c 128,-1,36
 104 590 104 590 97 607 c 1,37,-1
 106 627 l 1,38,39
 121 664 121 664 149.5 685.5 c 128,-1,40
 178 707 178 707 212 707 c 0,41,42
 246 707 246 707 274 691 c 1,43,-1
 323 666 l 2,44,45
 341 657 341 657 357 657 c 0,46,47
 373 657 373 657 391 682 c 2,48,-1
 401 695 l 1,49,50
 419 695 419 695 437.5 683.5 c 128,-1,51
 456 672 456 672 463 655 c 1,52,-1
 454 636 l 1,53,54
 438 598 438 598 409.5 576.5 c 128,-1,55
 381 555 381 555 348.5 555 c 0,56,57
 316 555 316 555 286 572 c 1,28,-1
EndSplineSet
Substitution2: "'smcp' Lowercase to Small Capitals lookup 2 subtable" ntilde.smcp
Substitution2: "'aalt' Access All Alternates lookup 0 subtable" ntilde.smcp
EndChar

StartChar: oe
Encoding: 339 339 172
Width: 814
Flags: HMW
HStem: -14 99<230 296> 206 92<491 653 490 765 491 491> 412 98<230 296.5 230 297.5> 416 94<546 602.5>
VStem: 37 134<205.5 290.5> 350 140<204.5 298> 653 123<298 309 309 338.5>
LayerCount: 2
Fore
SplineSet
765 206 m 1,0,-1
 491 206 l 1,1,2
 494 149 494 149 516.5 118.5 c 128,-1,3
 539 88 539 88 595.5 88 c 0,4,5
 652 88 652 88 725 122 c 1,6,7
 754 93 754 93 762 43 c 1,8,9
 684 -14 684 -14 574.5 -14 c 0,10,11
 465 -14 465 -14 416 54 c 1,12,13
 363 -14 363 -14 264.5 -14 c 0,14,15
 166 -14 166 -14 108 43 c 0,16,17
 37 114 37 114 37 248.5 c 0,18,19
 37 383 37 383 108 454 c 1,20,21
 167 510 167 510 265.5 510 c 0,22,23
 364 510 364 510 419 439 c 1,24,25
 471 510 471 510 569.5 510 c 0,26,27
 668 510 668 510 722 450.5 c 128,-1,28
 776 391 776 391 776 298 c 0,29,30
 776 249 776 249 765 206 c 1,0,-1
171 248.5 m 0,31,32
 171 85 171 85 260.5 85 c 0,33,34
 350 85 350 85 350 248.5 c 0,35,36
 350 412 350 412 260.5 412 c 0,37,38
 171 412 171 412 171 248.5 c 0,31,32
573 416 m 0,39,40
 496 416 496 416 490 298 c 1,41,-1
 653 298 l 1,42,-1
 653 309 l 2,43,44
 653 416 653 416 573 416 c 0,39,40
EndSplineSet
Substitution2: "'smcp' Lowercase to Small Capitals lookup 2 subtable" oe.smcp
Substitution2: "'aalt' Access All Alternates lookup 0 subtable" oe.smcp
EndChar

StartChar: oacute
Encoding: 243 243 174
Width: 521
Flags: HMW
HStem: -14 99<230 290.5> 412 98<230 290.5 230 297.5> 539 216<231 326>
VStem: 37 134<205.5 290.5> 176 234<591 675> 350 134<205.5 290.5 205.5 292>
LayerCount: 2
Fore
SplineSet
413 454 m 1,0,1
 484 383 484 383 484 248.5 c 128,-1,2
 484 114 484 114 413 43 c 0,3,4
 355 -14 355 -14 260.5 -14 c 128,-1,5
 166 -14 166 -14 108 43 c 0,6,7
 37 114 37 114 37 248.5 c 128,-1,8
 37 383 37 383 108 454 c 1,9,10
 167 510 167 510 260.5 510 c 128,-1,11
 354 510 354 510 413 454 c 1,0,1
171 248.5 m 128,-1,13
 171 85 171 85 260.5 85 c 128,-1,14
 350 85 350 85 350 248.5 c 128,-1,15
 350 412 350 412 260.5 412 c 128,-1,12
 171 412 171 412 171 248.5 c 128,-1,13
176 591 m 1,16,-1
 326 755 l 1,17,18
 352 747 352 747 376.5 724 c 128,-1,19
 401 701 401 701 410 675 c 1,20,-1
 231 539 l 1,21,22
 191 552 191 552 176 591 c 1,16,-1
EndSplineSet
Substitution2: "'smcp' Lowercase to Small Capitals lookup 2 subtable" oacute.smcp
Substitution2: "'aalt' Access All Alternates lookup 0 subtable" oacute.smcp
EndChar

StartChar: otilde
Encoding: 245 245 176
Width: 521
Flags: HMW
HStem: -14 99<230 290.5> 412 98<230 290.5 230 297.5> 555 102<329 340.5 329 349.5>
VStem: 37 134<205.5 290.5> 77 366<607 655> 350 134<205.5 290.5 205.5 292>
LayerCount: 2
Fore
SplineSet
413 454 m 1,0,1
 484 383 484 383 484 248.5 c 128,-1,2
 484 114 484 114 413 43 c 0,3,4
 355 -14 355 -14 260.5 -14 c 128,-1,5
 166 -14 166 -14 108 43 c 0,6,7
 37 114 37 114 37 248.5 c 128,-1,8
 37 383 37 383 108 454 c 1,9,10
 167 510 167 510 260.5 510 c 128,-1,11
 354 510 354 510 413 454 c 1,0,1
171 248.5 m 128,-1,13
 171 85 171 85 260.5 85 c 128,-1,14
 350 85 350 85 350 248.5 c 128,-1,15
 350 412 350 412 260.5 412 c 128,-1,12
 171 412 171 412 171 248.5 c 128,-1,13
266 572 m 1,16,-1
 217 596 l 1,17,18
 201 605 201 605 184 605 c 128,-1,19
 167 605 167 605 149 581 c 2,20,-1
 139 567 l 1,21,22
 120 568 120 568 102 579 c 128,-1,23
 84 590 84 590 77 607 c 1,24,-1
 86 627 l 1,25,26
 101 664 101 664 129.5 685.5 c 128,-1,27
 158 707 158 707 192 707 c 128,-1,28
 226 707 226 707 254 691 c 1,29,-1
 303 666 l 2,30,31
 321 657 321 657 337 657 c 128,-1,32
 353 657 353 657 371 682 c 2,33,-1
 381 695 l 1,34,35
 399 695 399 695 417.5 683.5 c 128,-1,36
 436 672 436 672 443 655 c 1,37,-1
 434 636 l 1,38,39
 418 598 418 598 389.5 576.5 c 128,-1,40
 361 555 361 555 328.5 555 c 128,-1,41
 296 555 296 555 266 572 c 1,16,-1
EndSplineSet
Substitution2: "'smcp' Lowercase to Small Capitals lookup 2 subtable" otilde.smcp
Substitution2: "'aalt' Access All Alternates lookup 0 subtable" otilde.smcp
EndChar

StartChar: oslash
Encoding: 248 248 178
Width: 524
Flags: HMW
HStem: -14 94<254 292.5> 417 93<231 269.5> 475 20G<348 348> 536 20G<383 383>
VStem: 38 122<233.5 288> 363 122<210 264.5>
LayerCount: 2
Fore
SplineSet
415 453 m 1,0,1
 485 383 485 383 485 248 c 128,-1,2
 485 113 485 113 415 43 c 0,3,4
 357 -14 357 -14 262 -14 c 0,5,6
 213 -14 213 -14 174 1 c 1,7,-1
 139 -58 l 1,8,9
 95 -49 95 -49 70 -20 c 1,10,-1
 107 45 l 1,11,12
 38 114 38 114 38 249 c 128,-1,13
 38 384 38 384 109 454 c 0,14,15
 166 510 166 510 262 510 c 0,16,17
 309 510 309 510 348 495 c 1,18,-1
 383 556 l 1,19,20
 426 546 426 546 452 518 c 1,21,-1
 415 453 l 1,0,1
363 249 m 0,22,23
 363 299 363 299 353 338 c 1,24,-1
 222 88 l 1,25,26
 240 80 240 80 262 80 c 0,27,28
 363 80 363 80 363 249 c 0,22,23
160 249 m 0,29,30
 160 194 160 194 170 160 c 1,31,-1
 301 409 l 1,32,33
 283 417 283 417 262 417 c 0,34,35
 160 417 160 417 160 249 c 0,29,30
EndSplineSet
Substitution2: "'smcp' Lowercase to Small Capitals lookup 2 subtable" oslash.smcp
Substitution2: "'aalt' Access All Alternates lookup 0 subtable" oslash.smcp
EndChar

StartChar: rcommaaccent
Encoding: 343 343 180
Width: 383
Flags: HMW
HStem: -278 21G -224 21G -73 21 476 20G
VStem: 77 131<0 319 0 333 0 361> 100 117<-146.5 -117.5>
LayerCount: 2
Fore
SplineSet
40 436 m 1,0,1
 44 454 44 454 56.5 474 c 128,-1,2
 69 494 69 494 82 504 c 1,3,4
 163 494 163 494 193 414 c 1,5,6
 231 503 231 503 320 503 c 0,7,8
 353 503 353 503 380 496 c 1,9,10
 380 426 380 426 348 374 c 1,11,12
 333 379 333 379 302 381 c 1,13,14
 244 381 244 381 208 319 c 1,15,-1
 208 0 l 1,16,17
 178 -5 178 -5 143.5 -5 c 0,18,19
 109 -5 109 -5 77 0 c 1,20,-1
 77 333 l 2,21,22
 77 404 77 404 40 436 c 1,0,1
206 -59 m 1,23,24
 217 -83 217 -83 217 -115 c 0,25,26
 217 -170 217 -170 180 -213 c 128,-1,27
 143 -256 143 -256 78 -278 c 1,28,29
 46 -267 46 -267 37 -224 c 1,30,31
 100 -185 100 -185 100 -126 c 0,32,33
 100 -96 100 -96 87 -73 c 1,34,35
 110 -57 110 -57 144 -53 c 128,-1,36
 178 -49 178 -49 206 -59 c 1,23,24
EndSplineSet
Substitution2: "'smcp' Lowercase to Small Capitals lookup 2 subtable" rcommaaccent.smcp
Substitution2: "'aalt' Access All Alternates lookup 0 subtable" rcommaaccent.smcp
EndChar

StartChar: germandbls
Encoding: 223 223 181
Width: 642
Flags: HMW
HStem: -14 99<401.5 427.5 396.5 477> 374 101<14 100> 599 100<296 364>
VStem: 100 133<0 375 375 375 475 489 0 503 0 567.5> 431 133<487 520.5>
LayerCount: 2
Fore
SplineSet
100 0 m 1,0,-1
 100 375 l 1,1,-1
 14 374 l 1,2,3
 9 399 9 399 9 425 c 0,4,5
 9 451 9 451 14 476 c 1,6,-1
 100 475 l 1,7,-1
 100 503 l 2,8,9
 100 598 100 598 162.5 648.5 c 128,-1,10
 225 699 225 699 330.5 699 c 0,11,12
 436 699 436 699 500 643.5 c 128,-1,13
 564 588 564 588 564 495 c 0,14,15
 564 460 564 460 548 418 c 1,16,17
 512 409 512 409 494 390.5 c 128,-1,18
 476 372 476 372 476 351 c 0,19,20
 476 330 476 330 504 305 c 1,21,-1
 542 269 l 2,22,23
 614 200 614 200 614 133.5 c 0,24,25
 614 67 614 67 560.5 26.5 c 128,-1,26
 507 -14 507 -14 427.5 -14 c 0,27,28
 348 -14 348 -14 291 15 c 1,29,30
 292 37 292 37 303 64.5 c 128,-1,31
 314 92 314 92 329 106 c 1,32,33
 371 85 371 85 404.5 85 c 0,34,35
 438 85 438 85 457 99 c 128,-1,36
 476 113 476 113 476 138 c 0,37,38
 476 163 476 163 441 195 c 2,39,-1
 400 232 l 2,40,41
 337 289 337 289 337 343 c 0,42,43
 337 378 337 378 361.5 411 c 128,-1,44
 386 444 386 444 428 461 c 1,45,46
 431 476 431 476 431 492 c 0,47,48
 431 538 431 538 405 568.5 c 128,-1,49
 379 599 379 599 330 599 c 0,50,51
 233 599 233 599 233 489 c 2,52,-1
 233 0 l 1,53,54
 200 -5 200 -5 166.5 -5 c 0,55,56
 133 -5 133 -5 100 0 c 1,0,-1
EndSplineSet
Substitution2: "'smcp' Lowercase to Small Capitals lookup 2 subtable" germandbls.smcp
Substitution2: "'aalt' Access All Alternates lookup 0 subtable" germandbls.smcp
EndChar

StartChar: uacute
Encoding: 250 250 183
Width: 548
Flags: HMW
HStem: -9 118<227.5 233> 476 20<347 347 478 478> 539 216<237 332>
VStem: 65 131<162 189 189 381 381 399.5> 182 234<591 675> 347 131<155 496>
LayerCount: 2
Fore
SplineSet
65 162 m 2,0,-1
 65 381 l 2,1,2
 65 443 65 443 44 476 c 1,3,4
 77 504 77 504 120.5 504 c 0,5,6
 164 504 164 504 180 483.5 c 128,-1,7
 196 463 196 463 196 422 c 2,8,-1
 196 189 l 2,9,10
 196 146 196 146 207 127.5 c 128,-1,11
 218 109 218 109 248 109 c 0,12,13
 301 109 301 109 347 155 c 1,14,-1
 347 496 l 1,15,16
 369 501 369 501 411.5 501 c 0,17,18
 454 501 454 501 478 496 c 1,19,-1
 478 141 l 2,20,21
 478 82 478 82 506 58 c 1,22,23
 501 40 501 40 488.5 21 c 128,-1,24
 476 2 476 2 462 -8 c 1,25,26
 389 -1 389 -1 361 63 c 1,27,28
 284 -9 284 -9 202 -9 c 0,29,30
 135 -9 135 -9 100 38 c 128,-1,31
 65 85 65 85 65 162 c 2,0,-1
182 591 m 1,32,-1
 332 755 l 1,33,34
 358 747 358 747 382.5 724 c 128,-1,35
 407 701 407 701 416 675 c 1,36,-1
 237 539 l 1,37,38
 197 552 197 552 182 591 c 1,32,-1
EndSplineSet
Substitution2: "'smcp' Lowercase to Small Capitals lookup 2 subtable" uacute.smcp
Substitution2: "'aalt' Access All Alternates lookup 0 subtable" uacute.smcp
EndChar

StartChar: udieresis
Encoding: 252 252 185
Width: 548
Flags: HMW
HStem: -9 118<227.5 233> 476 20<347 347 478 478> 573 90<112 112 226 226 306 306 420 420>
VStem: 65 131<162 189 189 381 381 399.5> 104 122 298 122 347 131<155 496>
LayerCount: 2
Fore
SplineSet
65 162 m 2,0,-1
 65 381 l 2,1,2
 65 443 65 443 44 476 c 1,3,4
 77 504 77 504 120.5 504 c 0,5,6
 164 504 164 504 180 483.5 c 128,-1,7
 196 463 196 463 196 422 c 2,8,-1
 196 189 l 2,9,10
 196 146 196 146 207 127.5 c 128,-1,11
 218 109 218 109 248 109 c 0,12,13
 301 109 301 109 347 155 c 1,14,-1
 347 496 l 1,15,16
 369 501 369 501 411.5 501 c 0,17,18
 454 501 454 501 478 496 c 1,19,-1
 478 141 l 2,20,21
 478 82 478 82 506 58 c 1,22,23
 501 40 501 40 488.5 21 c 128,-1,24
 476 2 476 2 462 -8 c 1,25,26
 389 -1 389 -1 361 63 c 1,27,28
 284 -9 284 -9 202 -9 c 0,29,30
 135 -9 135 -9 100 38 c 128,-1,31
 65 85 65 85 65 162 c 2,0,-1
298 618 m 128,-1,33
 298 643 298 643 306 663 c 1,34,35
 329 677 329 677 363 677 c 128,-1,36
 397 677 397 677 420 663 c 1,37,38
 428 643 428 643 428 617.5 c 0,39,40
 428 592 428 592 420 573 c 1,41,42
 398 559 398 559 363 559 c 128,-1,43
 328 559 328 559 306 573 c 1,44,32
 298 593 298 593 298 618 c 128,-1,33
104 618 m 128,-1,46
 104 643 104 643 112 663 c 1,47,48
 135 677 135 677 169 677 c 128,-1,49
 203 677 203 677 226 663 c 1,50,51
 234 643 234 643 234 617.5 c 0,52,53
 234 592 234 592 226 573 c 1,54,55
 204 559 204 559 169 559 c 128,-1,56
 134 559 134 559 112 573 c 1,57,45
 104 593 104 593 104 618 c 128,-1,46
EndSplineSet
Substitution2: "'smcp' Lowercase to Small Capitals lookup 2 subtable" udieresis.smcp
Substitution2: "'aalt' Access All Alternates lookup 0 subtable" udieresis.smcp
EndChar

StartChar: ydieresis
Encoding: 255 255 187
Width: 483
Flags: HMW
HStem: -219 98<98 142 98 184.5> 482 20G<392.5 412.5> 485 20G<79.5 106> 573 90<86 86 200 200 280 280 394 394>
VStem: 3 472 78 122 272 122
LayerCount: 2
Fore
SplineSet
475 484 m 1,0,-1
 347 14 l 2,1,2
 314 -105 314 -105 263.5 -162 c 128,-1,3
 213 -219 213 -219 112 -219 c 0,4,5
 56 -219 56 -219 3 -200 c 1,6,7
 1 -178 1 -178 9 -150 c 128,-1,8
 17 -122 17 -122 30 -107 c 1,9,10
 74 -121 74 -121 113 -121 c 0,11,12
 190 -121 190 -121 221 -19 c 2,13,-1
 225 -6 l 1,14,15
 187 -5 187 -5 165 8 c 128,-1,16
 143 21 143 21 134 52 c 2,17,-1
 10 486 l 1,18,19
 51 505 51 505 83 505 c 0,20,21
 115 505 115 505 130.5 492.5 c 128,-1,22
 146 480 146 480 155 448 c 2,23,-1
 212 237 l 2,24,25
 218 214 218 214 241 98 c 0,26,27
 242 91 242 91 250 91 c 1,28,-1
 348 496 l 1,29,30
 371 502 371 502 406 502 c 0,31,32
 441 502 441 502 470 492 c 1,33,-1
 475 484 l 1,0,-1
272 618 m 128,-1,35
 272 643 272 643 280 663 c 1,36,37
 303 677 303 677 337 677 c 128,-1,38
 371 677 371 677 394 663 c 1,39,40
 402 643 402 643 402 617.5 c 0,41,42
 402 592 402 592 394 573 c 1,43,44
 372 559 372 559 337 559 c 128,-1,45
 302 559 302 559 280 573 c 1,46,34
 272 593 272 593 272 618 c 128,-1,35
78 618 m 128,-1,48
 78 643 78 643 86 663 c 1,49,50
 109 677 109 677 143 677 c 128,-1,51
 177 677 177 677 200 663 c 1,52,53
 208 643 208 643 208 617.5 c 0,54,55
 208 592 208 592 200 573 c 1,56,57
 178 559 178 559 143 559 c 128,-1,58
 108 559 108 559 86 573 c 1,59,47
 78 593 78 593 78 618 c 128,-1,48
EndSplineSet
Substitution2: "'smcp' Lowercase to Small Capitals lookup 2 subtable" ydieresis.smcp
Substitution2: "'aalt' Access All Alternates lookup 0 subtable" ydieresis.smcp
EndChar

StartChar: eth
Encoding: 240 240 188
Width: 519
Flags: HMW
HStem: -14 97<228 288.5> 393 94<225.5 259 220 273.5>
VStem: 35 134<205 283.5> 348 134<208 273>
LayerCount: 2
Fore
SplineSet
97 571 m 1,0,-1
 176 625 l 1,1,2
 143 649 143 649 105 670 c 1,3,4
 108 693 108 693 123 717 c 128,-1,5
 138 741 138 741 156 750 c 1,6,7
 215 726 215 726 268 688 c 1,8,-1
 353 747 l 1,9,10
 389 723 389 723 398 684 c 1,11,-1
 330 637 l 1,12,13
 482 490 482 490 482 247 c 0,14,15
 482 113 482 113 411 43 c 0,16,17
 353 -14 353 -14 258.5 -14 c 0,18,19
 164 -14 164 -14 106 43 c 0,20,21
 35 113 35 113 35 239.75 c 0,22,23
 35 366.5 35 366.5 107 434 c 1,24,25
 165 487 165 487 249 487 c 0,26,27
 275 487 275 487 304 475 c 1,28,29
 286 523 286 523 236 573 c 1,30,-1
 141 508 l 1,31,32
 105 535 105 535 97 571 c 1,0,-1
348 247 m 0,33,34
 348 320 348 320 336 370 c 1,35,36
 298 393 298 393 260 393 c 0,37,38
 169 393 169 393 169 238 c 0,39,40
 169 83 169 83 258.5 83 c 0,41,42
 348 83 348 83 348 247 c 0,33,34
EndSplineSet
Substitution2: "'smcp' Lowercase to Small Capitals lookup 2 subtable" eth.smcp
Substitution2: "'aalt' Access All Alternates lookup 0 subtable" eth.smcp
EndChar

StartChar: thorn
Encoding: 254 254 189
Width: 531
Flags: HMW
HStem: -216 21G<75 124 75 75> -9 99<282 302 263.5 348> 400 106<293.5 305.5>
VStem: 69 126<-164 -135 -135 17 119 349 460 655> 360 133<200 305.5>
LayerCount: 2
Fore
SplineSet
446 437.5 m 128,-1,1
 493 369 493 369 493 249 c 128,-1,2
 493 129 493 129 436 60 c 128,-1,3
 379 -9 379 -9 301 -9 c 0,4,5
 247 -9 247 -9 195 17 c 1,6,-1
 195 -135 l 2,7,8
 195 -179 195 -179 179 -197.5 c 128,-1,9
 163 -216 163 -216 124 -216 c 2,10,-1
 75 -216 l 1,11,-1
 69 -209 l 1,12,-1
 69 729 l 1,13,-1
 75 736 l 1,14,-1
 124 736 l 2,15,16
 163 736 163 736 179 717.5 c 128,-1,17
 195 699 195 699 195 655 c 2,18,-1
 195 460 l 1,19,20
 250 506 250 506 317 506 c 0,21,0
 399 506 399 506 446 437.5 c 128,-1,1
285 400 m 0,22,23
 233 400 233 400 195 349 c 1,24,-1
 195 119 l 1,25,26
 241 90 241 90 278 90 c 128,-1,27
 315 90 315 90 337.5 132 c 128,-1,28
 360 174 360 174 360 251 c 128,-1,29
 360 328 360 328 339 364 c 128,-1,30
 318 400 318 400 285 400 c 0,22,23
EndSplineSet
Substitution2: "'smcp' Lowercase to Small Capitals lookup 2 subtable" thorn.smcp
Substitution2: "'aalt' Access All Alternates lookup 0 subtable" thorn.smcp
EndChar

StartChar: AE
Encoding: 198 198 190
Width: 882
Flags: HMW
HStem: -2 113<594 752> 154 107<257.5 350 299 350 350 351> 289 110<525 761 525 761 590 761> 570 113<524 590 524 524 590 812>
VStem: 395 130<78 172 155 172 260 289 398 501>
LayerCount: 2
Fore
SplineSet
525 172 m 1,0,-1
 524 109 l 1,1,2
 566 111 566 111 594 111 c 2,3,-1
 841 111 l 1,4,5
 841 79 841 79 838 62 c 0,6,7
 827 -2 827 -2 752 -2 c 2,8,-1
 471 -2 l 2,9,10
 435 -2 435 -2 415 19 c 128,-1,11
 395 40 395 40 395 78 c 2,12,-1
 395 155 l 1,13,14
 380 154 380 154 351 154 c 2,15,-1
 262 154 l 2,16,17
 231 154 231 154 215 155 c 1,18,-1
 145 0 l 1,19,20
 126 -5 126 -5 81 -5 c 128,-1,21
 36 -5 36 -5 14 4 c 1,22,-1
 10 10 l 1,23,-1
 321 671 l 1,24,25
 348 683 348 683 402 683 c 2,26,-1
 818 683 l 1,27,28
 823 658 823 658 823 629.5 c 128,-1,29
 823 601 823 601 812 570 c 1,30,-1
 524 570 l 1,31,-1
 525 501 l 1,32,-1
 525 398 l 1,33,34
 550 399 550 399 590 399 c 2,35,-1
 761 399 l 1,36,37
 769 376 769 376 769 344 c 128,-1,38
 769 312 769 312 761 289 c 1,39,-1
 525 289 l 1,40,-1
 525 172 l 1,0,-1
350 261 m 1,41,-1
 395 260 l 1,42,-1
 395 557 l 1,43,-1
 390 557 l 1,44,45
 350 451 350 451 321 388 c 2,46,-1
 263 260 l 1,47,-1
 299 261 l 1,48,-1
 350 261 l 1,41,-1
EndSplineSet
Substitution2: "'c2sc' Capitals to Small Capitals lookup 3 subtable" ae.smcp
Substitution2: "'aalt' Access All Alternates lookup 0 subtable" ae.smcp
EndChar

StartChar: Agrave
Encoding: 192 192 191
Width: 625
Flags: HMW
HStem: 154 108<232 352 266 352 352 356.5 266 377> 557 131<304 310 304 304> 728 193<226 401>
VStem: 14 597<9 10> 172 267<792 820>
LayerCount: 2
Fore
SplineSet
426 155 m 1,0,-1
 377 154 l 1,1,-1
 237 154 l 2,2,3
 204 154 204 154 188 155 c 1,4,-1
 141 -1 l 1,5,6
 120 -6 120 -6 81.5 -6 c 128,-1,7
 43 -6 43 -6 19 3 c 1,8,-1
 14 10 l 1,9,-1
 237 683 l 1,10,11
 274 688 274 688 317 688 c 128,-1,12
 360 688 360 688 392 682 c 1,13,-1
 611 9 l 1,14,15
 582 -8 582 -8 541.5 -8 c 128,-1,16
 501 -8 501 -8 483.5 7 c 128,-1,17
 466 22 466 22 454 64 c 2,18,-1
 426 155 l 1,0,-1
221 261 m 1,19,-1
 266 262 l 1,20,-1
 352 262 l 2,21,22
 356 262 356 262 371 261.5 c 128,-1,23
 386 261 386 261 394 261 c 1,24,-1
 364 363 l 2,25,26
 330 477 330 477 310 557 c 1,27,-1
 304 557 l 1,28,29
 295 514 295 514 260 388 c 1,30,-1
 221 261 l 1,19,-1
226 921 m 1,31,-1
 439 792 l 1,32,33
 431 746 431 746 401 728 c 1,34,-1
 172 820 l 1,35,36
 174 848 174 848 191 877.5 c 128,-1,37
 208 907 208 907 226 921 c 1,31,-1
EndSplineSet
Substitution2: "'c2sc' Capitals to Small Capitals lookup 3 subtable" agrave.smcp
Substitution2: "'aalt' Access All Alternates lookup 0 subtable" agrave.smcp
EndChar

StartChar: Aacute
Encoding: 193 193 192
Width: 625
Flags: HMW
HStem: 154 108<232 352 266 352 352 356.5 266 377> 557 131<304 310 304 304> 728 193<240 415>
VStem: 14 597<9 10> 202 267<792 820>
LayerCount: 2
Fore
SplineSet
426 155 m 1,0,-1
 377 154 l 1,1,-1
 237 154 l 2,2,3
 204 154 204 154 188 155 c 1,4,-1
 141 -1 l 1,5,6
 120 -6 120 -6 81.5 -6 c 128,-1,7
 43 -6 43 -6 19 3 c 1,8,-1
 14 10 l 1,9,-1
 237 683 l 1,10,11
 274 688 274 688 317 688 c 128,-1,12
 360 688 360 688 392 682 c 1,13,-1
 611 9 l 1,14,15
 582 -8 582 -8 541.5 -8 c 128,-1,16
 501 -8 501 -8 483.5 7 c 128,-1,17
 466 22 466 22 454 64 c 2,18,-1
 426 155 l 1,0,-1
221 261 m 1,19,-1
 266 262 l 1,20,-1
 352 262 l 2,21,22
 356 262 356 262 371 261.5 c 128,-1,23
 386 261 386 261 394 261 c 1,24,-1
 364 363 l 2,25,26
 330 477 330 477 310 557 c 1,27,-1
 304 557 l 1,28,29
 295 514 295 514 260 388 c 1,30,-1
 221 261 l 1,19,-1
202 792 m 1,31,-1
 415 921 l 1,32,33
 433 907 433 907 450 877.5 c 128,-1,34
 467 848 467 848 469 820 c 1,35,-1
 240 728 l 1,36,37
 226 736 226 736 215 755 c 128,-1,38
 204 774 204 774 202 792 c 1,31,-1
EndSplineSet
Substitution2: "'c2sc' Capitals to Small Capitals lookup 3 subtable" aacute.smcp
Substitution2: "'aalt' Access All Alternates lookup 0 subtable" aacute.smcp
EndChar

StartChar: Acircumflex
Encoding: 194 194 193
Width: 625
Flags: HMW
HStem: 154 108<232 352 266 352 352 356.5 266 377> 557 131<304 310 304 304> 726 178
VStem: 14 597<9 10> 141 341<782 791>
LayerCount: 2
Fore
SplineSet
426 155 m 1,0,-1
 377 154 l 1,1,-1
 237 154 l 2,2,3
 204 154 204 154 188 155 c 1,4,-1
 141 -1 l 1,5,6
 120 -6 120 -6 81.5 -6 c 128,-1,7
 43 -6 43 -6 19 3 c 1,8,-1
 14 10 l 1,9,-1
 237 683 l 1,10,11
 274 688 274 688 317 688 c 128,-1,12
 360 688 360 688 392 682 c 1,13,-1
 611 9 l 1,14,15
 582 -8 582 -8 541.5 -8 c 128,-1,16
 501 -8 501 -8 483.5 7 c 128,-1,17
 466 22 466 22 454 64 c 2,18,-1
 426 155 l 1,0,-1
221 261 m 1,19,-1
 266 262 l 1,20,-1
 352 262 l 2,21,22
 356 262 356 262 371 261.5 c 128,-1,23
 386 261 386 261 394 261 c 1,24,-1
 364 363 l 2,25,26
 330 477 330 477 310 557 c 1,27,-1
 304 557 l 1,28,29
 295 514 295 514 260 388 c 1,30,-1
 221 261 l 1,19,-1
429 736 m 1,31,-1
 314 810 l 1,32,-1
 196 726 l 1,33,34
 180 732 180 732 163 748 c 128,-1,35
 146 764 146 764 141 782 c 1,36,-1
 258 899 l 1,37,38
 315 911 315 911 369 899 c 1,39,-1
 482 791 l 1,40,41
 476 772 476 772 460.5 757 c 128,-1,42
 445 742 445 742 429 736 c 1,31,-1
EndSplineSet
Substitution2: "'c2sc' Capitals to Small Capitals lookup 3 subtable" acircumflex.smcp
Substitution2: "'aalt' Access All Alternates lookup 0 subtable" acircumflex.smcp
EndChar

StartChar: Atilde
Encoding: 195 195 194
Width: 625
Flags: HMW
HStem: 154 108<232 352 266 352 352 356.5 266 377> 557 131<304 310 304 304> 741 102<387 398.5 387 408>
VStem: 14 597<9 10> 124 382<793 841>
LayerCount: 2
Fore
SplineSet
426 155 m 1,0,-1
 377 154 l 1,1,-1
 237 154 l 2,2,3
 204 154 204 154 188 155 c 1,4,-1
 141 -1 l 1,5,6
 120 -6 120 -6 81.5 -6 c 128,-1,7
 43 -6 43 -6 19 3 c 1,8,-1
 14 10 l 1,9,-1
 237 683 l 1,10,11
 274 688 274 688 317 688 c 128,-1,12
 360 688 360 688 392 682 c 1,13,-1
 611 9 l 1,14,15
 582 -8 582 -8 541.5 -8 c 128,-1,16
 501 -8 501 -8 483.5 7 c 128,-1,17
 466 22 466 22 454 64 c 2,18,-1
 426 155 l 1,0,-1
221 261 m 1,19,-1
 266 262 l 1,20,-1
 352 262 l 2,21,22
 356 262 356 262 371 261.5 c 128,-1,23
 386 261 386 261 394 261 c 1,24,-1
 364 363 l 2,25,26
 330 477 330 477 310 557 c 1,27,-1
 304 557 l 1,28,29
 295 514 295 514 260 388 c 1,30,-1
 221 261 l 1,19,-1
321 758 m 1,31,-1
 270 782 l 1,32,33
 254 791 254 791 235 791 c 128,-1,34
 216 791 216 791 200 767 c 2,35,-1
 190 753 l 1,36,37
 170 754 170 754 150.5 765 c 128,-1,38
 131 776 131 776 124 793 c 1,39,-1
 133 812 l 1,40,41
 170 893 170 893 247 893 c 0,42,43
 277 893 277 893 309 876 c 1,44,-1
 360 852 l 2,45,46
 378 843 378 843 395.5 843 c 128,-1,47
 413 843 413 843 430 867 c 1,48,-1
 440 880 l 1,49,50
 460 880 460 880 479.5 869 c 128,-1,51
 499 858 499 858 506 841 c 1,52,-1
 497 822 l 1,53,54
 460 741 460 741 383 741 c 0,55,56
 351 741 351 741 321 758 c 1,31,-1
EndSplineSet
Substitution2: "'c2sc' Capitals to Small Capitals lookup 3 subtable" atilde.smcp
Substitution2: "'aalt' Access All Alternates lookup 0 subtable" atilde.smcp
EndChar

StartChar: Adieresis
Encoding: 196 196 195
Width: 625
Flags: HMW
HStem: 154 108<232 352 266 352 352 356.5 266 377> 557 131<304 310 304 304> 750 106
VStem: 14 597<9 10> 149 111<750 750 842 842> 370 111<750 750 842 842>
LayerCount: 2
Fore
SplineSet
426 155 m 1,0,-1
 377 154 l 1,1,-1
 237 154 l 2,2,3
 204 154 204 154 188 155 c 1,4,-1
 141 -1 l 1,5,6
 120 -6 120 -6 81.5 -6 c 128,-1,7
 43 -6 43 -6 19 3 c 1,8,-1
 14 10 l 1,9,-1
 237 683 l 1,10,11
 274 688 274 688 317 688 c 128,-1,12
 360 688 360 688 392 682 c 1,13,-1
 611 9 l 1,14,15
 582 -8 582 -8 541.5 -8 c 128,-1,16
 501 -8 501 -8 483.5 7 c 128,-1,17
 466 22 466 22 454 64 c 2,18,-1
 426 155 l 1,0,-1
221 261 m 1,19,-1
 266 262 l 1,20,-1
 352 262 l 2,21,22
 356 262 356 262 371 261.5 c 128,-1,23
 386 261 386 261 394 261 c 1,24,-1
 364 363 l 2,25,26
 330 477 330 477 310 557 c 1,27,-1
 304 557 l 1,28,29
 295 514 295 514 260 388 c 1,30,-1
 221 261 l 1,19,-1
427 856 m 128,-1,32
 458 856 458 856 481 842 c 1,33,34
 492 825 492 825 492 795.5 c 128,-1,35
 492 766 492 766 481 750 c 1,36,37
 458 736 458 736 427 736 c 128,-1,38
 396 736 396 736 370 750 c 1,39,40
 358 766 358 766 358 796 c 128,-1,41
 358 826 358 826 370 842 c 1,42,31
 396 856 396 856 427 856 c 128,-1,32
149 842 m 1,43,44
 170 856 170 856 202 856 c 128,-1,45
 234 856 234 856 260 842 c 1,46,47
 270 827 270 827 270 796 c 128,-1,48
 270 765 270 765 260 750 c 1,49,50
 234 736 234 736 202 736 c 128,-1,51
 170 736 170 736 149 750 c 1,52,53
 138 766 138 766 138 795.5 c 128,-1,54
 138 825 138 825 149 842 c 1,43,44
EndSplineSet
Substitution2: "'c2sc' Capitals to Small Capitals lookup 3 subtable" adieresis.smcp
Substitution2: "'aalt' Access All Alternates lookup 0 subtable" adieresis.smcp
EndChar

StartChar: Aring
Encoding: 197 197 196
Width: 625
Flags: HMW
HStem: 154 108<232 352 266 352 352 356.5 266 377> 837 68<300 329.5>
VStem: 183 82<769.5 799 769.5 817.5> 364 82<769.5 799>
LayerCount: 2
Fore
SplineSet
426 155 m 1,0,-1
 377 154 l 1,1,-1
 237 154 l 2,2,3
 204 154 204 154 188 155 c 1,4,-1
 141 -1 l 1,5,6
 120 -6 120 -6 81.5 -6 c 128,-1,7
 43 -6 43 -6 19 3 c 1,8,-1
 14 10 l 1,9,-1
 237 683 l 1,10,-1
 240 683 l 1,11,12
 183 718 183 718 183 784 c 0,13,14
 183 835 183 835 220 870 c 128,-1,15
 257 905 257 905 315 905 c 128,-1,16
 373 905 373 905 409.5 870 c 128,-1,17
 446 835 446 835 446 784 c 0,18,19
 446 717 446 717 388 683 c 1,20,21
 391 682 391 682 392 682 c 2,22,-1
 611 9 l 1,23,24
 582 -8 582 -8 541.5 -8 c 128,-1,25
 501 -8 501 -8 483.5 7 c 128,-1,26
 466 22 466 22 454 64 c 2,27,-1
 426 155 l 1,0,-1
221 261 m 1,28,-1
 266 262 l 1,29,-1
 352 262 l 2,30,31
 356 262 356 262 371 261.5 c 128,-1,32
 386 261 386 261 394 261 c 1,33,-1
 364 363 l 2,34,35
 330 477 330 477 310 557 c 1,36,-1
 304 557 l 1,37,38
 295 514 295 514 260 388 c 1,39,-1
 221 261 l 1,28,-1
279 822 m 128,-1,41
 265 807 265 807 265 784.5 c 128,-1,42
 265 762 265 762 279 747 c 128,-1,43
 293 732 293 732 314.5 732 c 128,-1,44
 336 732 336 732 350 747 c 128,-1,45
 364 762 364 762 364 784.5 c 128,-1,46
 364 807 364 807 350.5 822 c 128,-1,47
 337 837 337 837 315 837 c 128,-1,40
 293 837 293 837 279 822 c 128,-1,41
EndSplineSet
Substitution2: "'c2sc' Capitals to Small Capitals lookup 3 subtable" aring.smcp
Substitution2: "'aalt' Access All Alternates lookup 0 subtable" aring.smcp
EndChar

StartChar: Ccedilla
Encoding: 199 199 197
Width: 606
Flags: HMW
HStem: -228 21G<292 346> -228 69<292 310.5 288 346> -92 58 590 108<274.5 371>
VStem: 42 141<261.5 420 261.5 464> 337 101<-135.5 -116.5> 446 129
LayerCount: 2
Fore
SplineSet
258 -76 m 1,0,1
 266 -42 266 -42 278 -12 c 1,2,3
 214 -6 214 -6 167 26 c 128,-1,4
 120 58 120 58 93.5 108.5 c 0,5,6
 42 206.641509434 42 206.641509434 42 339 c 0,7,8
 42 517 42 517 122 607.5 c 128,-1,9
 202 698 202 698 319.5 698 c 128,-1,10
 437 698 437 698 506 639 c 128,-1,11
 575 580 575 580 575 496 c 0,12,13
 575 421 575 421 499 421 c 0,14,15
 478 421 478 421 446 428 c 1,16,17
 448 497 448 497 419 543.5 c 128,-1,18
 390 590 390 590 322 590 c 0,19,20
 183 590 183 590 183 338 c 0,21,22
 183 224 183 224 222.5 163.5 c 128,-1,23
 262 103 262 103 337.5 103 c 128,-1,24
 413 103 413 103 508 176 c 1,25,26
 529 162 529 162 548 137 c 128,-1,27
 567 112 567 112 572 89 c 1,28,29
 534 51 534 51 475 23 c 128,-1,30
 416 -5 416 -5 351 -12 c 1,31,32
 344 -25 344 -25 341 -34 c 1,33,34
 385 -37 385 -37 411.5 -61.5 c 128,-1,35
 438 -86 438 -86 438 -127.5 c 128,-1,36
 438 -169 438 -169 401.5 -198.5 c 128,-1,37
 365 -228 365 -228 311 -228 c 128,-1,38
 257 -228 257 -228 226 -206 c 1,39,40
 228 -169 228 -169 249 -146 c 1,41,42
 269 -159 269 -159 297 -159 c 0,43,44
 337 -159 337 -159 337 -126 c 0,45,46
 337 -111 337 -111 327 -101.5 c 128,-1,47
 317 -92 317 -92 303.5 -92 c 128,-1,48
 290 -92 290 -92 278 -96 c 1,49,50
 263 -88 263 -88 258 -76 c 1,0,1
EndSplineSet
Substitution2: "'c2sc' Capitals to Small Capitals lookup 3 subtable" ccedilla.smcp
Substitution2: "'aalt' Access All Alternates lookup 0 subtable" ccedilla.smcp
EndChar

StartChar: Egrave
Encoding: 200 200 198
Width: 570
Flags: HMW
HStem: -2 113<284 440> 289 110<215 449 215 449 280 449> 570 113<214 280 214 214 280 500> 728 193<210 385>
VStem: 82 133<160 171 171 289 398 501> 156 267<792 820>
LayerCount: 2
Fore
SplineSet
215 171 m 1,0,-1
 214 109 l 1,1,2
 256 111 256 111 284 111 c 2,3,-1
 529 111 l 1,4,5
 529 79 529 79 526 62 c 0,6,7
 515 -2 515 -2 440 -2 c 2,8,-1
 159 -2 l 2,9,10
 123 -2 123 -2 102.5 19.5 c 128,-1,11
 82 41 82 41 82 78 c 2,12,-1
 82 676 l 1,13,-1
 89 683 l 1,14,-1
 506 683 l 1,15,16
 511 658 511 658 511 629.5 c 128,-1,17
 511 601 511 601 500 570 c 1,18,-1
 214 570 l 1,19,-1
 215 501 l 1,20,-1
 215 398 l 1,21,22
 240 399 240 399 280 399 c 2,23,-1
 449 399 l 1,24,25
 457 376 457 376 457 344 c 128,-1,26
 457 312 457 312 449 289 c 1,27,-1
 215 289 l 1,28,-1
 215 171 l 1,0,-1
210 921 m 1,29,-1
 423 792 l 1,30,31
 415 746 415 746 385 728 c 1,32,-1
 156 820 l 1,33,34
 158 848 158 848 175 877.5 c 128,-1,35
 192 907 192 907 210 921 c 1,29,-1
EndSplineSet
Substitution2: "'c2sc' Capitals to Small Capitals lookup 3 subtable" egrave.smcp
Substitution2: "'aalt' Access All Alternates lookup 0 subtable" egrave.smcp
EndChar

StartChar: Eacute
Encoding: 201 201 199
Width: 570
Flags: HMW
HStem: -2 113<284 440> 289 110<215 449 215 449 280 449> 570 113<214 280 214 214 280 500> 728 193<224 399>
VStem: 82 133<160 171 171 289 398 501> 186 267<792 820>
LayerCount: 2
Fore
SplineSet
215 171 m 1,0,-1
 214 109 l 1,1,2
 256 111 256 111 284 111 c 2,3,-1
 529 111 l 1,4,5
 529 79 529 79 526 62 c 0,6,7
 515 -2 515 -2 440 -2 c 2,8,-1
 159 -2 l 2,9,10
 123 -2 123 -2 102.5 19.5 c 128,-1,11
 82 41 82 41 82 78 c 2,12,-1
 82 676 l 1,13,-1
 89 683 l 1,14,-1
 506 683 l 1,15,16
 511 658 511 658 511 629.5 c 128,-1,17
 511 601 511 601 500 570 c 1,18,-1
 214 570 l 1,19,-1
 215 501 l 1,20,-1
 215 398 l 1,21,22
 240 399 240 399 280 399 c 2,23,-1
 449 399 l 1,24,25
 457 376 457 376 457 344 c 128,-1,26
 457 312 457 312 449 289 c 1,27,-1
 215 289 l 1,28,-1
 215 171 l 1,0,-1
186 792 m 1,29,-1
 399 921 l 1,30,31
 417 907 417 907 434 877.5 c 128,-1,32
 451 848 451 848 453 820 c 1,33,-1
 224 728 l 1,34,35
 210 736 210 736 199 755 c 128,-1,36
 188 774 188 774 186 792 c 1,29,-1
EndSplineSet
Substitution2: "'c2sc' Capitals to Small Capitals lookup 3 subtable" eacute.smcp
Substitution2: "'aalt' Access All Alternates lookup 0 subtable" eacute.smcp
EndChar

StartChar: Ecircumflex
Encoding: 202 202 200
Width: 570
Flags: HMW
HStem: -2 113<284 440> 289 110<215 449 215 449 280 449> 570 113<214 280 214 214 280 500> 726 178
VStem: 82 133<160 171 171 289 398 501> 125 341<782 791>
LayerCount: 2
Fore
SplineSet
215 171 m 1,0,-1
 214 109 l 1,1,2
 256 111 256 111 284 111 c 2,3,-1
 529 111 l 1,4,5
 529 79 529 79 526 62 c 0,6,7
 515 -2 515 -2 440 -2 c 2,8,-1
 159 -2 l 2,9,10
 123 -2 123 -2 102.5 19.5 c 128,-1,11
 82 41 82 41 82 78 c 2,12,-1
 82 676 l 1,13,-1
 89 683 l 1,14,-1
 506 683 l 1,15,16
 511 658 511 658 511 629.5 c 128,-1,17
 511 601 511 601 500 570 c 1,18,-1
 214 570 l 1,19,-1
 215 501 l 1,20,-1
 215 398 l 1,21,22
 240 399 240 399 280 399 c 2,23,-1
 449 399 l 1,24,25
 457 376 457 376 457 344 c 128,-1,26
 457 312 457 312 449 289 c 1,27,-1
 215 289 l 1,28,-1
 215 171 l 1,0,-1
413 736 m 1,29,-1
 298 810 l 1,30,-1
 180 726 l 1,31,32
 164 732 164 732 147 748 c 128,-1,33
 130 764 130 764 125 782 c 1,34,-1
 242 899 l 1,35,36
 299 911 299 911 353 899 c 1,37,-1
 466 791 l 1,38,39
 460 772 460 772 444.5 757 c 128,-1,40
 429 742 429 742 413 736 c 1,29,-1
EndSplineSet
Substitution2: "'c2sc' Capitals to Small Capitals lookup 3 subtable" ecircumflex.smcp
Substitution2: "'aalt' Access All Alternates lookup 0 subtable" ecircumflex.smcp
EndChar

StartChar: Edieresis
Encoding: 203 203 201
Width: 570
Flags: HMW
HStem: -2 113<284 440> 289 110<215 449 215 449 280 449> 570 113<214 280 214 214 280 500> 750 106
VStem: 82 133<160 171 171 289 398 501> 133 111<750 750 842 842> 354 111<750 750 842 842>
LayerCount: 2
Fore
SplineSet
215 171 m 1,0,-1
 214 109 l 1,1,2
 256 111 256 111 284 111 c 2,3,-1
 529 111 l 1,4,5
 529 79 529 79 526 62 c 0,6,7
 515 -2 515 -2 440 -2 c 2,8,-1
 159 -2 l 2,9,10
 123 -2 123 -2 102.5 19.5 c 128,-1,11
 82 41 82 41 82 78 c 2,12,-1
 82 676 l 1,13,-1
 89 683 l 1,14,-1
 506 683 l 1,15,16
 511 658 511 658 511 629.5 c 128,-1,17
 511 601 511 601 500 570 c 1,18,-1
 214 570 l 1,19,-1
 215 501 l 1,20,-1
 215 398 l 1,21,22
 240 399 240 399 280 399 c 2,23,-1
 449 399 l 1,24,25
 457 376 457 376 457 344 c 128,-1,26
 457 312 457 312 449 289 c 1,27,-1
 215 289 l 1,28,-1
 215 171 l 1,0,-1
411 856 m 128,-1,30
 442 856 442 856 465 842 c 1,31,32
 476 825 476 825 476 795.5 c 128,-1,33
 476 766 476 766 465 750 c 1,34,35
 442 736 442 736 411 736 c 128,-1,36
 380 736 380 736 354 750 c 1,37,38
 342 766 342 766 342 796 c 128,-1,39
 342 826 342 826 354 842 c 1,40,29
 380 856 380 856 411 856 c 128,-1,30
133 842 m 1,41,42
 154 856 154 856 186 856 c 128,-1,43
 218 856 218 856 244 842 c 1,44,45
 254 827 254 827 254 796 c 128,-1,46
 254 765 254 765 244 750 c 1,47,48
 218 736 218 736 186 736 c 128,-1,49
 154 736 154 736 133 750 c 1,50,51
 122 766 122 766 122 795.5 c 128,-1,52
 122 825 122 825 133 842 c 1,41,42
EndSplineSet
Substitution2: "'c2sc' Capitals to Small Capitals lookup 3 subtable" edieresis.smcp
Substitution2: "'aalt' Access All Alternates lookup 0 subtable" edieresis.smcp
EndChar

StartChar: Igrave
Encoding: 204 204 202
Width: 306
Flags: HMW
HStem: -5 693<144 162.5> 729 193<64 239>
VStem: 10 267<793 821> 86 134<0 683 0 683>
LayerCount: 2
Fore
SplineSet
86 0 m 1,0,-1
 86 683 l 1,1,2
 111 688 111 688 151.5 688 c 0,3,4
 192 688 192 688 220 683 c 1,5,-1
 220 0 l 1,6,7
 192 -5 192 -5 151.5 -5 c 0,8,9
 111 -5 111 -5 86 0 c 1,0,-1
64 922 m 1,10,-1
 277 793 l 1,11,12
 269 747 269 747 239 729 c 1,13,-1
 10 821 l 1,14,15
 12 849 12 849 29 878.5 c 128,-1,16
 46 908 46 908 64 922 c 1,10,-1
EndSplineSet
Substitution2: "'c2sc' Capitals to Small Capitals lookup 3 subtable" igrave.smcp
Substitution2: "'aalt' Access All Alternates lookup 0 subtable" igrave.smcp
EndChar

StartChar: Iacute
Encoding: 205 205 203
Width: 306
Flags: HMW
HStem: -5 693<144 162.5> 729 193<78 253>
VStem: 40 267<793 821> 86 134<0 683 0 683>
LayerCount: 2
Fore
SplineSet
86 0 m 1,0,-1
 86 683 l 1,1,2
 111 688 111 688 151.5 688 c 0,3,4
 192 688 192 688 220 683 c 1,5,-1
 220 0 l 1,6,7
 192 -5 192 -5 151.5 -5 c 0,8,9
 111 -5 111 -5 86 0 c 1,0,-1
40 793 m 1,10,-1
 253 922 l 1,11,12
 271 908 271 908 288 878.5 c 128,-1,13
 305 849 305 849 307 821 c 1,14,-1
 78 729 l 1,15,16
 64 737 64 737 53 756 c 128,-1,17
 42 775 42 775 40 793 c 1,10,-1
EndSplineSet
Substitution2: "'c2sc' Capitals to Small Capitals lookup 3 subtable" iacute.smcp
Substitution2: "'aalt' Access All Alternates lookup 0 subtable" iacute.smcp
EndChar

StartChar: Itilde
Encoding: 296 296 204
Width: 306
Flags: HMW
HStem: -5 693<144 162.5> 742 102<225 236.5 225 246>
VStem: -38 382<794 842> 86 134<0 683 0 683>
LayerCount: 2
Fore
SplineSet
86 0 m 1,0,-1
 86 683 l 1,1,2
 111 688 111 688 151.5 688 c 0,3,4
 192 688 192 688 220 683 c 1,5,-1
 220 0 l 1,6,7
 192 -5 192 -5 151.5 -5 c 0,8,9
 111 -5 111 -5 86 0 c 1,0,-1
159 759 m 1,10,-1
 108 783 l 1,11,12
 92 792 92 792 73.5 792 c 0,13,14
 55 792 55 792 38 768 c 2,15,-1
 28 754 l 1,16,17
 8 755 8 755 -11.5 766 c 128,-1,18
 -31 777 -31 777 -38 794 c 1,19,-1
 -29 813 l 1,20,21
 8 894 8 894 85 894 c 0,22,23
 115 894 115 894 147 877 c 1,24,-1
 198 853 l 2,25,26
 216 844 216 844 233.5 844 c 0,27,28
 251 844 251 844 268 868 c 1,29,-1
 278 881 l 1,30,31
 298 881 298 881 317.5 870 c 128,-1,32
 337 859 337 859 344 842 c 1,33,-1
 335 823 l 1,34,35
 298 742 298 742 221 742 c 0,36,37
 189 742 189 742 159 759 c 1,10,-1
EndSplineSet
Substitution2: "'c2sc' Capitals to Small Capitals lookup 3 subtable" itilde.smcp
Substitution2: "'aalt' Access All Alternates lookup 0 subtable" itilde.smcp
EndChar

StartChar: Icircumflex
Encoding: 206 206 205
Width: 306
Flags: HMW
HStem: -5 693<144 162.5> 727 178
VStem: -21 341<783 792> 86 134<0 683 0 683>
LayerCount: 2
Fore
SplineSet
86 0 m 1,0,-1
 86 683 l 1,1,2
 111 688 111 688 151.5 688 c 0,3,4
 192 688 192 688 220 683 c 1,5,-1
 220 0 l 1,6,7
 192 -5 192 -5 151.5 -5 c 0,8,9
 111 -5 111 -5 86 0 c 1,0,-1
267 737 m 1,10,-1
 152 811 l 1,11,-1
 34 727 l 1,12,13
 18 733 18 733 1 749 c 128,-1,14
 -16 765 -16 765 -21 783 c 1,15,-1
 96 900 l 1,16,17
 153 912 153 912 207 900 c 1,18,-1
 320 792 l 1,19,20
 314 773 314 773 298.5 758 c 128,-1,21
 283 743 283 743 267 737 c 1,10,-1
EndSplineSet
Substitution2: "'c2sc' Capitals to Small Capitals lookup 3 subtable" icircumflex.smcp
Substitution2: "'aalt' Access All Alternates lookup 0 subtable" icircumflex.smcp
EndChar

StartChar: Idieresis
Encoding: 207 207 206
Width: 306
Flags: HMW
HStem: -5 693<144 162.5> 751 106
VStem: -13 111<751 751 843 843> 86 134<0 683 0 683> 208 111<751 751 843 843>
LayerCount: 2
Fore
SplineSet
86 0 m 1,0,-1
 86 683 l 1,1,2
 111 688 111 688 151.5 688 c 128,-1,3
 192 688 192 688 220 683 c 1,4,-1
 220 0 l 1,5,6
 192 -5 192 -5 151.5 -5 c 128,-1,7
 111 -5 111 -5 86 0 c 1,0,-1
265 857 m 128,-1,9
 296 857 296 857 319 843 c 1,10,11
 330 826 330 826 330 797 c 128,-1,12
 330 768 330 768 319 751 c 1,13,14
 296 737 296 737 265 737 c 128,-1,15
 234 737 234 737 208 751 c 1,16,17
 196 767 196 767 196 797 c 128,-1,18
 196 827 196 827 208 843 c 1,19,8
 234 857 234 857 265 857 c 128,-1,9
-13 843 m 1,20,21
 8 857 8 857 40 857 c 128,-1,22
 72 857 72 857 98 843 c 1,23,24
 108 828 108 828 108 797 c 128,-1,25
 108 766 108 766 98 751 c 1,26,27
 72 737 72 737 40 737 c 128,-1,28
 8 737 8 737 -13 751 c 1,29,30
 -24 768 -24 768 -24 797 c 128,-1,31
 -24 826 -24 826 -13 843 c 1,20,21
EndSplineSet
Substitution2: "'c2sc' Capitals to Small Capitals lookup 3 subtable" idieresis.smcp
Substitution2: "'aalt' Access All Alternates lookup 0 subtable" idieresis.smcp
EndChar

StartChar: IJ
Encoding: 306 306 207
Width: 761
Flags: HMW
HStem: -10 111<444 495.5 440 560.5> -5 693<144 162.5>
VStem: 86 134<0 683 0 683> 555 134<241 256 256 683>
LayerCount: 2
Fore
SplineSet
86 0 m 1,0,-1
 86 683 l 1,1,2
 111 688 111 688 151.5 688 c 128,-1,3
 192 688 192 688 220 683 c 1,4,-1
 220 0 l 1,5,6
 192 -5 192 -5 151.5 -5 c 128,-1,7
 111 -5 111 -5 86 0 c 1,0,-1
359 133 m 1,8,9
 411 101 411 101 462 101 c 128,-1,10
 513 101 513 101 534 134.5 c 128,-1,11
 555 168 555 168 555 241 c 2,12,-1
 555 683 l 1,13,14
 581 688 581 688 622 688 c 128,-1,15
 663 688 663 688 689 683 c 1,16,-1
 689 256 l 2,17,18
 689 194 689 194 680 149.5 c 128,-1,19
 671 105 671 105 648 67 c 0,20,21
 601.394736842 -10 601.394736842 -10 470 -10 c 0,22,23
 382 -10 382 -10 311 33 c 1,24,25
 321 90 321 90 359 133 c 1,8,9
EndSplineSet
Substitution2: "'c2sc' Capitals to Small Capitals lookup 3 subtable" ij.smcp
Substitution2: "'aalt' Access All Alternates lookup 0 subtable" ij.smcp
EndChar

StartChar: Jcircumflex
Encoding: 308 308 208
Width: 460
Flags: HMW
HStem: -10 111<143 194.5 139 259.5> 726 178
VStem: 147 341<782 791> 254 134<241 256 256 683>
LayerCount: 2
Fore
SplineSet
58 133 m 1,0,1
 110 101 110 101 161 101 c 128,-1,2
 212 101 212 101 233 134.5 c 128,-1,3
 254 168 254 168 254 241 c 2,4,-1
 254 683 l 1,5,6
 280 688 280 688 321 688 c 128,-1,7
 362 688 362 688 388 683 c 1,8,-1
 388 256 l 2,9,10
 388 194 388 194 379 149.5 c 128,-1,11
 370 105 370 105 347 67 c 0,12,13
 300.394736842 -10 300.394736842 -10 169 -10 c 0,14,15
 81 -10 81 -10 10 33 c 1,16,17
 20 90 20 90 58 133 c 1,0,1
435 736 m 1,18,-1
 320 810 l 1,19,-1
 202 726 l 1,20,21
 186 732 186 732 169 748 c 128,-1,22
 152 764 152 764 147 782 c 1,23,-1
 264 899 l 1,24,25
 321 911 321 911 375 899 c 1,26,-1
 488 791 l 1,27,28
 482 772 482 772 466.5 757 c 128,-1,29
 451 742 451 742 435 736 c 1,18,-1
EndSplineSet
Substitution2: "'c2sc' Capitals to Small Capitals lookup 3 subtable" jcircumflex.smcp
Substitution2: "'aalt' Access All Alternates lookup 0 subtable" jcircumflex.smcp
EndChar

StartChar: Lslash
Encoding: 321 321 209
Width: 526
Flags: HMW
HStem: -2 116<317 411>
VStem: 91 134<110 274 274 274 421 603>
LayerCount: 2
Fore
SplineSet
225 603 m 2,0,-1
 225 421 l 1,1,-1
 390 479 l 1,2,-1
 400 474 l 1,3,4
 413 435 413 435 402 375 c 1,5,-1
 225 315 l 1,6,-1
 225 110 l 1,7,8
 268 114 268 114 317 114 c 2,9,-1
 502 114 l 1,10,11
 502 79 502 79 499 63 c 0,12,13
 488 -2 488 -2 411 -2 c 2,14,-1
 169 -2 l 2,15,16
 133 -2 133 -2 112 19.5 c 128,-1,17
 91 41 91 41 91 78 c 2,18,-1
 91 274 l 1,19,-1
 22 249 l 1,20,-1
 12 254 l 1,21,22
 -2 298 -2 298 10 354 c 1,23,-1
 91 381 l 1,24,-1
 91 682 l 1,25,-1
 98 689 l 1,26,-1
 147 689 l 2,27,28
 187 689 187 689 206 668.5 c 128,-1,29
 225 648 225 648 225 603 c 2,0,-1
EndSplineSet
Substitution2: "'c2sc' Capitals to Small Capitals lookup 3 subtable" lslash.smcp
Substitution2: "'aalt' Access All Alternates lookup 0 subtable" lslash.smcp
EndChar

StartChar: Ldot
Encoding: 319 319 210
Width: 517
Flags: HMW
HStem: -2 116<308 403> 305 106<345 345 465 465>
VStem: 82 135<110 603 110 682 110 682> 337 128
LayerCount: 2
Fore
SplineSet
308 114 m 2,0,-1
 494 114 l 1,1,2
 494 84 494 84 490 63 c 0,3,4
 479 -2 479 -2 403 -2 c 2,5,-1
 160 -2 l 2,6,7
 124 -2 124 -2 103 19.5 c 128,-1,8
 82 41 82 41 82 78 c 2,9,-1
 82 682 l 1,10,-1
 89 689 l 1,11,-1
 139 689 l 2,12,13
 179 689 179 689 198 668.5 c 128,-1,14
 217 648 217 648 217 603 c 2,15,-1
 217 110 l 1,16,17
 260 114 260 114 308 114 c 2,0,-1
337 358 m 128,-1,19
 337 392 337 392 345 411 c 1,20,21
 373 426 373 426 406 426 c 128,-1,22
 439 426 439 426 465 411 c 1,23,24
 474 390 474 390 474 358 c 128,-1,25
 474 326 474 326 465 305 c 1,26,27
 444 289 444 289 406.5 289 c 0,28,29
 369 289 369 289 345 305 c 1,30,18
 337 324 337 324 337 358 c 128,-1,19
EndSplineSet
Substitution2: "'c2sc' Capitals to Small Capitals lookup 3 subtable" ldot.smcp
Substitution2: "'aalt' Access All Alternates lookup 0 subtable" ldot.smcp
EndChar

